<svg width="27" height="29" viewBox="0 0 27 29" fill="none" xmlns="http://www.w3.org/2000/svg">
<g clip-path="url(#clip0_459_379)">
<path fill-rule="evenodd" clip-rule="evenodd" d="M5.53072 14.0529L8.75193 17.5761C8.87242 17.6989 8.96906 17.847 9.03608 18.0115C9.10311 18.1761 9.13915 18.3537 9.14206 18.5338C9.14496 18.7139 9.11467 18.8928 9.05299 19.0598C8.99131 19.2268 8.89951 19.3785 8.78306 19.5059C8.66661 19.6333 8.52789 19.7337 8.37519 19.8012C8.22249 19.8686 8.05893 19.9017 7.89427 19.8986C7.7296 19.8954 7.56721 19.856 7.41678 19.7827C7.26635 19.7093 7.13096 19.6036 7.01869 19.4719L1.70451 13.6595L0.837891 12.7116L1.70451 11.7637L7.01869 5.95137C7.25116 5.71443 7.55864 5.58545 7.87635 5.59158C8.19406 5.59771 8.49719 5.73848 8.72188 5.98423C8.94657 6.22999 9.07527 6.56153 9.08088 6.90903C9.08648 7.25652 8.96855 7.59283 8.75193 7.8471L5.53072 11.3703H21.6858C23.0952 11.3703 24.4469 11.9827 25.4435 13.0727C26.4401 14.1627 27 15.6411 27 17.1827C27 18.7242 26.4401 20.2026 25.4435 21.2927C24.4469 22.3827 23.0952 22.9951 21.6858 22.9951H18.4156C18.0903 22.9951 17.7784 22.8537 17.5484 22.6022C17.3184 22.3506 17.1892 22.0095 17.1892 21.6537C17.1892 21.298 17.3184 20.9568 17.5484 20.7053C17.7784 20.4537 18.0903 20.3124 18.4156 20.3124H21.6858C22.4447 20.3124 23.1726 19.9827 23.7092 19.3957C24.2458 18.8088 24.5473 18.0127 24.5473 17.1827C24.5473 16.3526 24.2458 15.5566 23.7092 14.9696C23.1726 14.3827 22.4447 14.0529 21.6858 14.0529H5.53072Z" fill="white"/>
</g>
<defs>
<clipPath id="clip0_459_379">
<rect width="26.1621" height="28.6148" fill="white" transform="translate(0.837891 0.192627)"/>
</clipPath>
</defs>
</svg>
