<svg width="33" height="33" viewBox="0 0 33 33" fill="none" xmlns="http://www.w3.org/2000/svg">
<g clip-path="url(#clip0_454_144)">
<path d="M23.5176 12.5175C23.1274 12.1273 22.4948 12.1269 22.1041 12.5167L17.2063 17.4039C16.816 17.7934 16.184 17.7934 15.7937 17.4039L10.8959 12.5167C10.5052 12.1269 9.87264 12.1273 9.48241 12.5175L8.95711 13.0428C8.56658 13.4333 8.56658 14.0665 8.95711 14.457L15.7929 21.2928C16.1834 21.6833 16.8166 21.6833 17.2071 21.2928L24.0429 14.457C24.4334 14.0665 24.4334 13.4333 24.0429 13.0428L23.5176 12.5175Z" fill="#6265FF"/>
<rect x="0.5" y="0.5" width="32" height="32" rx="16" stroke="black"/>
</g>
<rect x="0.945" y="0.945" width="31.11" height="31.11" rx="15.555" stroke="#6265FF" stroke-width="1.89"/>
<defs>
<clipPath id="clip0_454_144">
<rect width="33" height="33" rx="16.5" fill="white"/>
</clipPath>
</defs>
</svg>
