<svg width="509" height="141" viewBox="0 0 509 141" fill="none" xmlns="http://www.w3.org/2000/svg">
<g filter="url(#filter0_d_336_2)">
<path d="M489 34.7823H453.54V61.9387C453.54 63.7463 453.921 65.6104 454.684 67.531C456.237 71.4569 458.807 73.4199 462.394 73.4199C467.224 73.4199 470.896 71.4004 473.409 67.3616C475.358 64.2547 476.333 61.3315 476.333 58.5918V41.7303H484.933V77.8259C484.255 77.4305 482.984 76.8233 481.12 76.0042L476.248 73.8435V70.4543C472.915 72.8832 470.063 74.4225 467.69 75.0721C466.25 75.4675 464.541 75.6653 462.564 75.6653C456.294 75.6653 451.393 72.9115 447.863 67.4039C446.253 64.8902 445.448 62.1506 445.448 59.185V34.7823H440.322V29.6984H489V34.7823Z" fill="black"/>
</g>
<g filter="url(#filter1_d_336_2)">
<path d="M441.974 34.7823H407.785V47.5344C410.864 44.1734 413.716 42.0127 416.343 41.0524C417.812 40.5158 419.464 40.2475 421.3 40.2475C428.191 40.2475 433.346 43.6367 436.763 50.4153C438.26 53.3809 439.009 56.3041 439.009 59.185C439.009 64.4383 436.848 69.1833 432.527 73.4199C431.086 74.8321 430.013 75.8065 429.307 76.3431L422.359 72.1913C424.11 70.3554 426.101 68.0959 428.333 65.4128C430.846 62.3907 432.117 58.5777 432.145 53.974C432.174 51.2343 431.552 48.9466 430.281 47.1107C428.841 44.9642 426.807 43.9192 424.181 43.9757C421.752 44.0322 419.153 44.9501 416.385 46.7294C413.9 48.3111 411.838 50.2034 410.2 52.4065C408.421 54.7789 407.531 57.0667 407.531 59.2697V76.0889L399.608 71.8524V34.7823H394.948V29.6984H399.608C399.608 21.3947 397.448 14.3055 393.127 8.43076C390.528 4.90028 388.127 2.41482 385.924 0.97438L394.482 0.889648C399.227 3.48808 402.998 9.09449 405.794 17.7089C407.121 21.8042 407.785 25.8007 407.785 29.6984H441.974V34.7823Z" fill="black"/>
</g>
<g filter="url(#filter2_d_336_2)">
<path d="M395.965 34.7823H368.173V45.7127C369.839 44.7524 372.565 43.4956 376.35 41.9421C377.903 41.5185 379.781 41.3067 381.984 41.3067C385.006 41.3067 387.704 42.1398 390.076 43.8062C392.731 45.6421 394.058 48.0146 394.058 50.9237C394.058 54.8496 391.813 57.7022 387.322 59.4816C385.458 60.2159 383.848 60.5831 382.493 60.5831L392.321 72.5302L386.941 76.4279L371.816 58.4648L374.612 52.6607C376.109 53.0843 377.677 53.2962 379.315 53.2962C381.716 53.2962 383.679 52.7313 385.204 51.6015C386.927 50.3588 387.788 48.5794 387.788 46.2635C387.788 44.0039 386.178 42.8742 382.959 42.8742C380.699 42.8742 378.298 43.9616 375.756 46.1364C373.949 47.6898 372.297 49.568 370.8 51.771C368.992 54.4259 368.088 56.6996 368.088 58.5919V76.3432L360.801 73.081V34.7823H355.421V29.6984H360.547C360.547 21.5924 359.078 14.8563 356.141 9.48994C355.576 8.44492 354.489 6.87738 352.879 4.78734C351.354 2.78202 350.295 1.18624 349.701 0H358.302C359.968 1.55341 361.691 4.10948 363.47 7.66821C366.492 13.7124 368.003 21.0558 368.003 29.6984H395.965V34.7823Z" fill="black"/>
</g>
<g filter="url(#filter3_d_336_2)">
<path d="M356.989 34.7823H329.197V45.7127C330.863 44.7524 333.589 43.4956 337.373 41.9421C338.927 41.5185 340.805 41.3067 343.008 41.3067C346.03 41.3067 348.727 42.1398 351.1 43.8062C353.755 45.6421 355.082 48.0146 355.082 50.9237C355.082 54.8496 352.837 57.7022 348.346 59.4816C346.482 60.2159 344.872 60.5831 343.516 60.5831L353.345 72.5302L347.965 76.4279L332.84 58.4648L335.636 52.6607C337.133 53.0843 338.701 53.2962 340.339 53.2962C342.74 53.2962 344.702 52.7313 346.228 51.6015C347.951 50.3588 348.812 48.5794 348.812 46.2635C348.812 44.0039 347.202 42.8742 343.982 42.8742C341.723 42.8742 339.322 43.9616 336.78 46.1364C334.972 47.6898 333.32 49.568 331.823 51.771C330.016 54.4259 329.112 56.6996 329.112 58.5919V76.3432L321.825 73.081V34.7823H316.444V29.6984H321.571C321.571 21.5924 320.102 14.8563 317.165 9.48994C316.6 8.44492 315.512 6.87738 313.903 4.78734C312.377 2.78202 311.318 1.18624 310.725 0H319.325C320.992 1.55341 322.715 4.10948 324.494 7.66821C327.516 13.7124 329.027 21.0558 329.027 29.6984H356.989V34.7823Z" fill="black"/>
</g>
<g filter="url(#filter4_d_336_2)">
<path d="M317.631 34.7823H289.415V41.5608C289.528 41.5608 289.641 41.6173 289.754 41.7303C289.867 41.8432 289.966 41.8997 290.051 41.8997C289.825 41.8997 289.698 41.8856 289.669 41.8573C289.669 41.7161 291.773 41.2642 295.982 40.5016C297.535 40.2192 299.074 40.078 300.6 40.078C306.955 40.078 311.036 41.8574 312.843 45.4161C314.058 47.7886 314.665 52.5759 314.665 59.7781V76.0889C314.072 75.863 311.827 74.945 307.929 73.3351C307.929 72.4313 307.745 71.8523 307.378 71.5981C305.881 72.4737 304.653 73.1374 303.692 73.5893C300.642 75.0298 297.097 75.75 293.059 75.75C287.494 75.75 283.201 73.9989 280.179 70.4966C278.711 68.802 277.976 66.9097 277.976 64.8196C277.976 62.4754 279.134 60.1453 281.45 57.8293C285.941 53.3385 291.519 51.0931 298.185 51.0931C302.224 51.0931 305.472 52.0251 307.929 53.8892V49.9916C306.686 48.4099 305.472 47.3508 304.285 46.8141C303.127 46.2775 301.532 46.0374 299.498 46.0939C294.951 46.1787 290.785 47.0119 287 48.5935C285.306 49.2996 283.653 49.9351 282.043 50.5V47.3649C282.411 47.0542 282.947 46.5882 283.653 45.9668C283.766 45.8256 283.837 45.7409 283.865 45.7126V34.7823H275.18V29.6984H317.631V34.7823ZM307.929 61.5998C307.929 60.3571 306.446 59.2414 303.481 58.2529C301.023 57.4338 298.976 57.0243 297.337 57.0243C291.378 57.0243 286.605 59.1708 283.018 63.4639C281.577 65.1868 280.857 66.599 280.857 67.7005C281.45 69.7623 283.78 70.7932 287.848 70.7932C293.101 70.7932 297.902 69.4798 302.252 66.8532C306.037 64.5654 307.929 62.8143 307.929 61.5998Z" fill="black"/>
</g>
<g filter="url(#filter5_d_336_2)">
<path d="M276.663 34.7823H242.474V47.5344C245.552 44.1734 248.405 42.0127 251.031 41.0524C252.5 40.5158 254.152 40.2475 255.988 40.2475C262.88 40.2475 268.034 43.6367 271.452 50.4153C272.949 53.3809 273.697 56.3041 273.697 59.185C273.697 64.4383 271.536 69.1833 267.215 73.4199C265.775 74.8321 264.701 75.8065 263.995 76.3431L257.047 72.1913C258.799 70.3554 260.79 68.0959 263.021 65.4128C265.535 62.3907 266.806 58.5777 266.834 53.974C266.862 51.2343 266.241 48.9466 264.97 47.1107C263.529 44.9642 261.496 43.9192 258.869 43.9757C256.44 44.0322 253.842 44.9501 251.074 46.7294C248.588 48.3111 246.527 50.2034 244.888 52.4065C243.109 54.7789 242.219 57.0667 242.219 59.2697V76.0889L234.297 71.8524V34.7823H229.637V29.6984H234.297C234.297 21.3947 232.136 14.3055 227.815 8.43076C225.217 4.90028 222.816 2.41482 220.613 0.97438L229.171 0.889648C233.916 3.48808 237.686 9.09449 240.482 17.7089C241.81 21.8042 242.474 25.8007 242.474 29.6984H276.663V34.7823Z" fill="black"/>
</g>
<g filter="url(#filter6_d_336_2)">
<path d="M230.781 34.7823H221.926V46.6023C223.79 48.3252 224.92 49.4408 225.316 49.9492C226.022 50.853 226.742 52.2511 227.476 54.1434H221.842C221.842 51.0648 220.966 48.6641 219.215 46.9412C217.492 45.2184 215.091 44.3569 212.013 44.3569C208.793 44.3569 205.785 45.2466 202.989 47.026C200.306 48.7206 198.145 51.0084 196.507 53.8892C194.953 56.6289 194.177 59.2838 194.177 61.854C194.177 64.8761 195.264 67.178 197.439 68.7596C199.359 70.1718 201.887 70.8779 205.022 70.8779C210.247 70.8779 213.891 69.4375 215.953 66.5566H224.977C224.214 69.6069 221.404 72.1771 216.546 74.2672C214.371 75.1992 212.352 75.6653 210.488 75.6653C206.844 75.6653 203.172 74.6343 199.472 72.5725C195.942 70.6237 193.033 68.1241 190.745 65.0738C188.457 61.9952 187.313 58.959 187.313 55.9652C187.313 53.7056 188.316 51.1496 190.321 48.2969C194.53 42.3092 199.656 39.3154 205.7 39.3154C209.683 39.3154 212.832 40.1486 215.148 41.815V34.7823H185.238V29.6984H230.781V34.7823Z" fill="black"/>
</g>
<g filter="url(#filter7_d_336_2)">
<path d="M106.522 22.8608L106.522 29.6573L64.5096 29.9662L64.5096 62.3926C64.5096 67.2181 65.2563 70.7258 66.7496 72.9158C68.4421 75.3286 71.3956 76.6463 75.6101 76.869C78.2981 77.0175 80.9861 76.0338 83.6741 73.918C86.0634 72.0621 88.0379 69.705 89.5976 66.8469C91.2901 63.7289 92.1363 60.6851 92.1363 57.7156L92.0368 36.7248L102.44 40.7336V97.7484C102.44 104.69 99.5864 110.35 93.8785 114.73C88.6021 118.776 82.413 120.799 75.3114 120.799C63.2984 120.799 54.7532 117.143 49.6758 109.831C47.6183 106.861 46.5896 104.319 46.5896 102.203C46.6228 97.5628 48.9457 93.6654 53.5585 90.5102C57.6403 87.7263 61.8714 86.3344 66.2518 86.3344L72.5736 95.7997C66.8658 96.2451 61.7552 97.6 57.2421 99.8642C54.2886 101.349 52.8118 103.261 52.8118 105.599C53.1769 108.977 55.4501 111.965 59.6314 114.563C62.1203 116.122 65.3393 116.902 69.2883 116.902C78.3479 116.902 85.184 113.617 89.7968 107.047C91.987 103.929 93.0821 100.291 93.0821 96.1338V73.4726C90.9251 77.4072 85.1674 79.3745 75.8092 79.3745C67.9443 79.3745 61.9875 76.3679 57.9389 70.3546C55.9478 67.4222 54.9523 64.0815 54.9523 60.3325V29.5423H47.8838V22.8608H106.522Z" fill="#0B59D5"/>
</g>
<g filter="url(#filter8_d_336_2)">
<path d="M186.551 34.7823H141.008V29.6984H186.551V34.7823ZM177.442 53.3808C177.442 46.6023 174.237 43.2131 167.825 43.2131C163.08 43.2131 159.112 45.6985 155.921 50.6694C153.096 55.0755 151.684 59.764 151.684 64.7349V77.0633L144.736 73.4199V41.5608H152.023V46.6023L155.793 43.7638C159.126 41.2501 162.643 39.9933 166.343 39.9933C171.37 39.9933 175.536 41.9421 178.84 45.8397C181.947 49.5114 183.501 53.9034 183.501 59.0155C183.501 65.4269 180.789 71.584 175.366 77.487L167.19 72.3607C169.732 69.847 171.892 67.531 173.672 65.4127C176.186 62.4189 177.442 58.4083 177.442 53.3808Z" fill="black"/>
</g>
<g filter="url(#filter9_d_336_2)">
<path d="M141.558 34.7823H113.343V41.5608C113.456 41.5608 113.569 41.6173 113.682 41.7303C113.794 41.8432 113.893 41.8997 113.978 41.8997C113.752 41.8997 113.625 41.8856 113.597 41.8573C113.597 41.7161 115.701 41.2642 119.909 40.5016C121.463 40.2192 123.002 40.078 124.527 40.078C130.882 40.078 134.963 41.8574 136.771 45.4161C137.985 47.7886 138.593 52.5759 138.593 59.7781V76.0889C137.999 75.863 135.754 74.945 131.856 73.3351C131.856 72.4313 131.673 71.8523 131.306 71.5981C129.809 72.4737 128.58 73.1374 127.62 73.5893C124.57 75.0298 121.025 75.75 116.986 75.75C111.422 75.75 107.129 73.9989 104.107 70.4966C102.638 68.802 101.904 66.9097 101.904 64.8196C101.904 62.4754 103.062 60.1453 105.378 57.8293C109.869 53.3385 115.447 51.0931 122.112 51.0931C126.151 51.0931 129.399 52.0251 131.856 53.8892V49.9916C130.614 48.4099 129.399 47.3508 128.213 46.8141C127.055 46.2775 125.459 46.0374 123.426 46.0939C118.878 46.1787 114.712 47.0119 110.928 48.5935C109.233 49.2996 107.581 49.9351 105.971 50.5V47.3649C106.338 47.0542 106.875 46.5882 107.581 45.9668C107.694 45.8256 107.764 45.7409 107.793 45.7126V34.7823H99.1077V29.6984H141.558V34.7823ZM131.856 61.5998C131.856 60.3571 130.374 59.2414 127.408 58.2529C124.951 57.4338 122.903 57.0243 121.265 57.0243C115.306 57.0243 110.532 59.1708 106.945 63.4639C105.505 65.1868 104.785 66.599 104.785 67.7005C105.378 69.7623 107.708 70.7932 111.775 70.7932C117.028 70.7932 121.83 69.4798 126.179 66.8532C129.964 64.5654 131.856 62.8143 131.856 61.5998Z" fill="black"/>
</g>
<g filter="url(#filter10_d_336_2)">
<path d="M56.0499 82.2424C56.0499 87.4957 53.508 90.1224 48.4241 90.1224C46.1646 90.1224 42.8883 89.0492 38.5952 86.9026C33.8503 84.5301 29.8679 83.3439 26.6481 83.3439C19.7283 83.3439 13.204 86.0694 7.07509 91.5205C4.13773 94.1472 1.83585 97.2399 0.169463 100.799C0.0564871 100.347 0 99.6265 0 98.6379C0 95.2487 1.01678 91.8735 3.05034 88.5125C4.91443 85.4057 7.32928 82.8073 10.2949 80.7172C13.6277 78.373 17.4265 77.2009 21.6913 77.2009C24.6286 77.2009 27.1847 77.6951 29.3595 78.6837C30.5175 79.2203 32.7488 80.6042 36.0533 82.8355C38.8777 84.7561 41.0383 85.7164 42.5353 85.7164C46.2634 85.7164 49.2291 84.1771 51.4321 81.0985C52.3924 79.771 52.8725 78.4718 52.8725 77.2009C52.8725 74.9696 52.1947 73.1055 50.839 71.6086C49.4832 70.0834 47.7039 69.3208 45.5009 69.3208C43.4673 69.3208 40.1204 70.3517 35.4602 72.4135C30.7999 74.4471 27.453 75.4639 25.4195 75.4639C23.9226 75.4639 22.1149 74.7154 19.9967 73.2185C15.5906 70.0834 13.3876 67.1602 13.3876 64.4487C13.3876 62.9518 14.2208 61.582 15.8872 60.3393C17.3841 59.1813 18.9234 58.5317 20.505 58.3904L20.5898 57.9244L18.5139 55.0012C17.3559 53.363 16.7769 51.5978 16.7769 49.7055C16.7769 43.2094 22.0867 39.9613 32.7064 39.9613C33.0171 39.9048 33.2289 39.6506 33.3419 39.1987V34.4961H11.3964V29.4122H54.9484V34.4961H39.9086V41.6136C39.9086 42.941 40.2899 43.7601 41.0525 44.0708C41.5326 44.0708 42.1398 43.633 42.8742 42.7575L44.4841 40.8086C44.9077 40.385 45.6703 40.1025 46.7718 39.9613C48.5512 39.9613 50.2458 40.9781 51.8557 43.0117C52.5901 43.9437 53.0702 44.8757 53.2962 45.8078L48.8478 50.8917C48.7913 49.5925 48.523 48.4062 48.0428 47.333C47.3932 45.8925 46.5459 45.1723 45.5009 45.1723C45.1054 45.1723 44.6394 45.3559 44.1028 45.7231C43.5662 46.0902 43.2978 46.4574 43.2978 46.8246C43.2978 47.2482 43.4814 47.7566 43.8486 48.3497C44.2723 49.0558 44.5123 49.4936 44.5688 49.6631C44.7665 50.3127 44.8654 51.1318 44.8654 52.1203C44.8654 55.9332 43.312 58.5175 40.2051 59.8732C38.1433 60.777 34.8953 61.2289 30.461 61.2289C24.8122 61.2289 20.9569 62.4858 18.8951 64.9995C18.0761 65.988 17.6807 66.793 17.7089 67.4144C17.7371 68.2617 18.1608 69.0101 18.9799 69.6597C19.7989 70.2811 20.6463 70.5918 21.5218 70.5918C23.1317 70.5918 26.2244 69.4762 30.7999 67.2449C36.1945 64.6182 40.5441 63.2766 43.8486 63.2201C46.8707 63.1637 49.4126 64.5052 51.4744 67.2449C53.1408 69.4197 54.3412 72.1876 55.0755 75.5486C55.7251 78.5142 56.0499 80.7455 56.0499 82.2424ZM39.5696 48.2226C39.5696 44.8051 37.7479 43.0964 34.1045 43.0964C31.1671 43.0964 28.3851 44.1273 25.7584 46.1891C22.934 48.3921 21.5218 50.9199 21.5218 53.7726C21.5218 55.326 22.1149 56.6534 23.3012 57.7549C24.5157 58.8565 25.8996 59.4072 27.453 59.4072C29.0629 59.4355 30.8847 58.8565 32.9182 57.6702C34.7258 56.6252 36.2228 55.4107 37.409 54.0268C38.8494 52.3321 39.5696 50.3974 39.5696 48.2226Z" fill="black"/>
</g>
<path d="M129.706 103.417H124.157V112.245C124.157 112.494 124.237 112.735 124.398 112.969C124.566 113.225 124.771 113.353 125.012 113.353C126.101 113.353 126.646 112.227 126.646 109.975L128.851 111.236C128.01 113.101 126.708 114.029 124.946 114.022C123.923 114.015 123.126 113.547 122.555 112.618C122.307 112.216 122.182 111.814 122.182 111.412V103.417H119.89V102.101H122.182V98.4155L124.157 99.7864V102.101H129.706V103.417ZM141.605 103.417H132.755V106.718C133.552 105.848 134.29 105.288 134.97 105.04C135.35 104.901 135.778 104.831 136.253 104.831C138.037 104.831 139.372 105.709 140.257 107.464C140.644 108.231 140.838 108.988 140.838 109.734C140.838 111.094 140.278 112.322 139.16 113.419C138.787 113.784 138.509 114.037 138.326 114.175L136.528 113.101C136.981 112.625 137.496 112.041 138.074 111.346C138.725 110.564 139.054 109.577 139.061 108.385C139.068 107.676 138.908 107.083 138.579 106.608C138.206 106.052 137.679 105.782 136.999 105.796C136.37 105.811 135.698 106.049 134.981 106.509C134.338 106.919 133.804 107.409 133.38 107.979C132.919 108.593 132.689 109.185 132.689 109.756V114.11L130.638 113.013V103.417H129.432V102.101H130.638C130.638 99.951 130.079 98.1158 128.96 96.595C128.288 95.681 127.666 95.0376 127.096 94.6647L129.311 94.6428C130.54 95.3155 131.516 96.7668 132.239 98.9968C132.583 100.057 132.755 101.092 132.755 102.101H141.605V103.417ZM153.044 103.417H150.05V105.577C150.394 105.658 150.642 105.756 150.796 105.873V107.167C149.926 106.868 149.019 106.718 148.076 106.718C147.396 106.718 146.738 106.831 146.102 107.058C145.254 107.358 144.826 107.785 144.819 108.341C144.804 108.926 145.634 109.218 147.308 109.218C147.345 109.218 147.583 109.207 148.021 109.185L148.679 109.152V110.161C147.685 110.191 147.064 110.216 146.815 110.238C145.067 110.392 144.194 110.896 144.194 111.752C144.194 112.227 144.497 112.6 145.104 112.87C145.579 113.082 146.091 113.188 146.639 113.188C149.016 113.188 150.939 112.136 152.408 110.03V112.805C151.151 113.602 149.663 114 147.945 114C146.065 114 144.442 113.565 143.075 112.695C142.41 112.271 142.077 111.785 142.077 111.236C142.077 110.703 142.311 110.238 142.779 109.843C143.064 109.602 143.536 109.324 144.194 109.01L143.47 108.593C143.039 108.345 142.823 108.012 142.823 107.595C142.823 106.689 143.506 106.038 144.874 105.643C145.912 105.343 147.078 105.193 148.372 105.193V103.417H141.342V102.101H153.044V103.417ZM171.217 103.417H162.037V110.447C162.037 110.915 162.136 111.397 162.334 111.894C162.736 112.911 163.401 113.419 164.33 113.419C165.58 113.419 166.53 112.896 167.181 111.85C167.686 111.046 167.938 110.289 167.938 109.58V105.215H170.164V114.559C169.989 114.457 169.66 114.3 169.177 114.088L167.916 113.528V112.651C167.053 113.28 166.315 113.678 165.701 113.846C165.328 113.949 164.885 114 164.373 114C162.75 114 161.482 113.287 160.568 111.861C160.151 111.211 159.943 110.501 159.943 109.734V103.417H158.616V102.101H171.217V103.417ZM175.977 103.417H174.814V102.101H175.977V103.417ZM172.226 103.417H170.976V102.101H172.226V103.417ZM174.452 100.774V114.274C174.379 114.252 174.284 114.212 174.167 114.154L173.597 113.857C172.946 113.521 172.603 113.353 172.566 113.353V100.795C172.566 100.028 172.416 99.2125 172.116 98.3497C171.7 97.1433 171.053 96.0466 170.175 95.0596L169.484 94.2809H171.82C173.034 95.4946 173.831 96.9825 174.211 98.7446C174.372 99.4903 174.452 100.167 174.452 100.774ZM185.507 103.417H179.958V112.245C179.958 112.494 180.038 112.735 180.199 112.969C180.367 113.225 180.572 113.353 180.813 113.353C181.903 113.353 182.448 112.227 182.448 109.975L184.652 111.236C183.811 113.101 182.51 114.029 180.748 114.022C179.724 114.015 178.927 113.547 178.357 112.618C178.108 112.216 177.984 111.814 177.984 111.412V103.417H175.692V102.101H177.984V98.4155L179.958 99.7864V102.101H185.507V103.417ZM189.072 100.949C189.042 100.978 188.958 100.993 188.819 100.993C188.702 100.993 188.6 100.978 188.512 100.949L187.8 99.4903C187.507 99.0297 187.109 98.719 186.604 98.5581C186.107 98.39 185.8 98.2072 185.683 98.0098C185.573 97.6734 185.361 97.158 185.047 96.4634V96.2111H185.474C186.037 96.3866 186.494 96.5511 186.845 96.7047C187.423 96.9606 187.81 97.2567 188.008 97.593C188.118 97.7758 188.286 98.2437 188.512 98.9968C188.724 99.706 188.904 100.2 189.05 100.477C189.064 100.609 189.072 100.766 189.072 100.949ZM189.719 103.417H185.255V102.101H189.719V103.417ZM188.469 114.252L186.626 113.232V104.766H188.469V114.252ZM206.356 103.417H202.737L202.759 104.952C203.753 105.318 204.47 105.796 204.908 106.389C205.362 107.003 205.588 107.833 205.588 108.878C205.588 110.384 204.985 111.679 203.779 112.761C203.552 112.965 203.205 113.232 202.737 113.561C202.159 113.971 201.794 114.175 201.64 114.175C201.487 114.175 200.781 113.532 199.524 112.245C200.299 112.201 201.106 111.953 201.947 111.499C202.744 111.075 203.421 110.556 203.976 109.942C204.576 109.284 204.876 108.586 204.876 107.847C204.876 107.116 204.47 106.608 203.658 106.323C203.263 106.184 202.872 106.122 202.485 106.136C200.116 106.232 198.664 107.61 198.131 110.271L195.882 109.35C195.882 108.736 196.12 108.048 196.595 107.288C196.771 107.01 196.862 106.853 196.869 106.816C196.869 106.473 196.376 106.301 195.389 106.301C194.124 106.301 193.141 106.857 192.439 107.968C192.132 108.458 191.978 108.948 191.978 109.438C191.978 110.461 192.45 111.43 193.393 112.344L195.477 114.362C194.204 113.923 193.024 113.287 191.934 112.454C190.479 111.342 189.752 110.15 189.752 108.878C189.752 107.27 190.563 106.071 192.186 105.281C192.896 104.937 193.627 104.766 194.38 104.766C195.345 104.766 196.31 105.054 197.275 105.632C197.641 105.851 197.853 105.968 197.911 105.983C198.467 105.742 199.078 105.482 199.743 105.204C200.094 105.058 200.448 104.959 200.807 104.908L200.829 103.417H189.423V102.101H206.356V103.417ZM216.939 103.417H209.635V105.171C209.665 105.171 209.694 105.186 209.723 105.215C209.752 105.244 209.778 105.259 209.8 105.259C209.741 105.259 209.708 105.255 209.701 105.248C209.701 105.212 210.246 105.095 211.335 104.897C211.737 104.824 212.136 104.788 212.531 104.788C214.176 104.788 215.232 105.248 215.7 106.169C216.015 106.784 216.172 108.023 216.172 109.887V114.11C216.018 114.051 215.437 113.814 214.428 113.397C214.428 113.163 214.38 113.013 214.285 112.947C213.898 113.174 213.58 113.346 213.331 113.463C212.542 113.835 211.624 114.022 210.578 114.022C209.138 114.022 208.027 113.569 207.244 112.662C206.864 112.223 206.674 111.733 206.674 111.192C206.674 110.586 206.974 109.982 207.573 109.383C208.736 108.22 210.18 107.639 211.906 107.639C212.951 107.639 213.792 107.88 214.428 108.363V107.354C214.106 106.944 213.792 106.67 213.485 106.531C213.185 106.392 212.772 106.33 212.246 106.345C211.068 106.367 209.99 106.582 209.01 106.992C208.571 107.175 208.144 107.339 207.727 107.485V106.674C207.822 106.593 207.961 106.473 208.144 106.312C208.173 106.275 208.191 106.253 208.199 106.246V103.417H205.95V102.101H216.939V103.417ZM214.428 110.359C214.428 110.037 214.044 109.748 213.276 109.492C212.64 109.28 212.11 109.174 211.686 109.174C210.143 109.174 208.908 109.73 207.979 110.841C207.606 111.287 207.42 111.653 207.42 111.938C207.573 112.472 208.177 112.739 209.23 112.739C210.589 112.739 211.832 112.399 212.958 111.719C213.938 111.127 214.428 110.673 214.428 110.359ZM226.613 103.417H221.063V112.245C221.063 112.494 221.144 112.735 221.304 112.969C221.473 113.225 221.677 113.353 221.919 113.353C223.008 113.353 223.553 112.227 223.553 109.975L225.757 111.236C224.916 113.101 223.615 114.029 221.853 114.022C220.829 114.015 220.032 113.547 219.462 112.618C219.213 112.216 219.089 111.814 219.089 111.412V103.417H216.797V102.101H219.089V98.4155L221.063 99.7864V102.101H226.613V103.417ZM238.019 103.417H235.024V105.577C235.368 105.658 235.617 105.756 235.77 105.873V107.167C234.9 106.868 233.994 106.718 233.05 106.718C232.37 106.718 231.712 106.831 231.076 107.058C230.228 107.358 229.8 107.785 229.793 108.341C229.778 108.926 230.608 109.218 232.283 109.218C232.319 109.218 232.557 109.207 232.996 109.185L233.654 109.152V110.161C232.659 110.191 232.038 110.216 231.789 110.238C230.042 110.392 229.168 110.896 229.168 111.752C229.168 112.227 229.471 112.6 230.078 112.87C230.553 113.082 231.065 113.188 231.614 113.188C233.99 113.188 235.913 112.136 237.382 110.03V112.805C236.125 113.602 234.637 114 232.919 114C231.04 114 229.417 113.565 228.049 112.695C227.384 112.271 227.051 111.785 227.051 111.236C227.051 110.703 227.285 110.238 227.753 109.843C228.038 109.602 228.51 109.324 229.168 109.01L228.444 108.593C228.013 108.345 227.797 108.012 227.797 107.595C227.797 106.689 228.481 106.038 229.848 105.643C230.886 105.343 232.052 105.193 233.346 105.193V103.417H226.316V102.101H238.019V103.417ZM248.755 103.417H247.593V102.101H248.755V103.417ZM245.005 103.417H243.754V102.101H245.005V103.417ZM247.231 100.774V114.274C247.158 114.252 247.063 114.212 246.946 114.154L246.376 113.857C245.725 113.521 245.381 113.353 245.345 113.353V100.795C245.345 100.028 245.195 99.2125 244.895 98.3497C244.478 97.1433 243.831 96.0466 242.954 95.0596L242.263 94.2809H244.599C245.813 95.4946 246.61 96.9825 246.99 98.7446C247.151 99.4903 247.231 100.167 247.231 100.774ZM252.287 100.949C252.258 100.978 252.174 100.993 252.035 100.993C251.918 100.993 251.815 100.978 251.728 100.949L251.015 99.4903C250.722 99.0297 250.324 98.719 249.819 98.5581C249.322 98.39 249.015 98.2072 248.898 98.0098C248.788 97.6734 248.576 97.158 248.262 96.4634V96.2111H248.69C249.253 96.3866 249.71 96.5511 250.061 96.7047C250.638 96.9606 251.026 97.2567 251.223 97.593C251.333 97.7758 251.501 98.2437 251.728 98.9968C251.94 99.706 252.119 100.2 252.265 100.477C252.28 100.609 252.287 100.766 252.287 100.949ZM252.934 103.417H248.47V102.101H252.934V103.417ZM251.684 114.252L249.841 113.232V104.766H251.684V114.252ZM264.877 103.417H256.542V107.507C257.149 106.754 257.873 106.104 258.714 105.555C259.284 105.182 259.854 104.996 260.425 104.996C261.58 104.996 262.552 105.438 263.342 106.323C264.066 107.135 264.428 108.016 264.428 108.966C264.428 110.063 263.898 111.178 262.837 112.311C261.777 113.437 260.702 114 259.613 114C259.057 114 258.472 113.751 257.858 113.254C257.668 113.101 257.2 112.644 256.454 111.883V114.132L254.546 113.309V103.417H252.748V102.101H254.546C254.546 100.36 254.06 98.6532 253.088 96.9788C252.32 95.6555 251.585 94.6867 250.883 94.0725H253.285C254.009 94.6867 254.641 95.4654 255.182 96.4085C256.089 97.9951 256.542 99.8925 256.542 102.101H264.877V103.417ZM263.21 110.096C263.21 109.416 262.83 108.681 262.07 107.891C261.222 107.007 260.238 106.564 259.12 106.564C258.418 106.564 257.76 106.912 257.145 107.606C256.904 107.884 256.783 108.092 256.783 108.231C256.783 108.838 257.054 109.54 257.595 110.337C258.736 112.019 259.913 112.859 261.127 112.859C261.894 112.859 262.494 112.366 262.925 111.379C263.115 110.947 263.21 110.52 263.21 110.096ZM275.768 103.417H264.68V102.101H275.768V103.417ZM274.858 107.354C274.858 107.785 274.598 108.271 274.079 108.812C273.64 109.273 273.18 109.617 272.697 109.843L271.052 107.979C271.549 107.935 272.021 107.752 272.467 107.431C272.978 107.065 273.234 106.648 273.234 106.18C273.234 105.932 273.074 105.72 272.752 105.544C272.474 105.383 272.2 105.303 271.929 105.303C271.366 105.303 270.763 105.573 270.12 106.115C268.811 107.211 268.157 108.425 268.157 109.756V114.406L266.051 113.309V105.193H268.178V106.027C268.493 105.712 269.144 105.383 270.131 105.04C270.613 104.872 271.11 104.788 271.622 104.788C272.682 104.788 273.582 105.193 274.32 106.005C274.678 106.4 274.858 106.849 274.858 107.354ZM286.296 103.417H278.992V105.171C279.021 105.171 279.051 105.186 279.08 105.215C279.109 105.244 279.135 105.259 279.157 105.259C279.098 105.259 279.065 105.255 279.058 105.248C279.058 105.212 279.603 105.095 280.692 104.897C281.094 104.824 281.493 104.788 281.888 104.788C283.533 104.788 284.589 105.248 285.057 106.169C285.371 106.784 285.529 108.023 285.529 109.887V114.11C285.375 114.051 284.794 113.814 283.785 113.397C283.785 113.163 283.737 113.013 283.642 112.947C283.255 113.174 282.937 113.346 282.688 113.463C281.898 113.835 280.981 114.022 279.935 114.022C278.495 114.022 277.384 113.569 276.601 112.662C276.221 112.223 276.031 111.733 276.031 111.192C276.031 110.586 276.331 109.982 276.93 109.383C278.093 108.22 279.537 107.639 281.262 107.639C282.308 107.639 283.149 107.88 283.785 108.363V107.354C283.463 106.944 283.149 106.67 282.842 106.531C282.542 106.392 282.129 106.33 281.602 106.345C280.425 106.367 279.347 106.582 278.367 106.992C277.928 107.175 277.501 107.339 277.084 107.485V106.674C277.179 106.593 277.318 106.473 277.501 106.312C277.53 106.275 277.548 106.253 277.555 106.246V103.417H275.307V102.101H286.296V103.417ZM283.785 110.359C283.785 110.037 283.401 109.748 282.633 109.492C281.997 109.28 281.467 109.174 281.043 109.174C279.5 109.174 278.265 109.73 277.336 110.841C276.963 111.287 276.777 111.653 276.777 111.938C276.93 112.472 277.534 112.739 278.586 112.739C279.946 112.739 281.189 112.399 282.315 111.719C283.295 111.127 283.785 110.673 283.785 110.359ZM297.242 103.417H286.154V102.101H297.242V103.417ZM296.331 107.354C296.331 107.785 296.072 108.271 295.553 108.812C295.114 109.273 294.653 109.617 294.171 109.843L292.526 107.979C293.023 107.935 293.495 107.752 293.941 107.431C294.452 107.065 294.708 106.648 294.708 106.18C294.708 105.932 294.547 105.72 294.226 105.544C293.948 105.383 293.674 105.303 293.403 105.303C292.84 105.303 292.237 105.573 291.594 106.115C290.285 107.211 289.63 108.425 289.63 109.756V114.406L287.525 113.309V105.193H289.652V106.027C289.967 105.712 290.617 105.383 291.604 105.04C292.087 104.872 292.584 104.788 293.096 104.788C294.156 104.788 295.056 105.193 295.794 106.005C296.152 106.4 296.331 106.849 296.331 107.354ZM300.762 100.949C300.733 100.978 300.649 100.993 300.51 100.993C300.393 100.993 300.291 100.978 300.203 100.949L299.49 99.4903C299.197 99.0297 298.799 98.719 298.295 98.5581C297.797 98.39 297.49 98.2072 297.373 98.0098C297.264 97.6734 297.052 97.158 296.737 96.4634V96.2111H297.165C297.728 96.3866 298.185 96.5511 298.536 96.7047C299.113 96.9606 299.501 97.2567 299.698 97.593C299.808 97.7758 299.976 98.2437 300.203 98.9968C300.415 99.706 300.594 100.2 300.74 100.477C300.755 100.609 300.762 100.766 300.762 100.949ZM301.409 103.417H296.946V102.101H301.409V103.417ZM300.159 114.252L298.316 113.232V104.766H300.159V114.252ZM312.047 103.417H304.743V105.171C304.773 105.171 304.802 105.186 304.831 105.215C304.86 105.244 304.886 105.259 304.908 105.259C304.849 105.259 304.816 105.255 304.809 105.248C304.809 105.212 305.354 105.095 306.443 104.897C306.845 104.824 307.244 104.788 307.639 104.788C309.284 104.788 310.34 105.248 310.808 106.169C311.123 106.784 311.28 108.023 311.28 109.887V114.11C311.126 114.051 310.545 113.814 309.536 113.397C309.536 113.163 309.488 113.013 309.393 112.947C309.006 113.174 308.688 113.346 308.439 113.463C307.65 113.835 306.732 114.022 305.686 114.022C304.246 114.022 303.135 113.569 302.352 112.662C301.972 112.223 301.782 111.733 301.782 111.192C301.782 110.586 302.082 109.982 302.681 109.383C303.844 108.22 305.288 107.639 307.013 107.639C308.059 107.639 308.9 107.88 309.536 108.363V107.354C309.214 106.944 308.9 106.67 308.593 106.531C308.293 106.392 307.88 106.33 307.353 106.345C306.176 106.367 305.098 106.582 304.118 106.992C303.679 107.175 303.252 107.339 302.835 107.485V106.674C302.93 106.593 303.069 106.473 303.252 106.312C303.281 106.275 303.299 106.253 303.307 106.246V103.417H301.058V102.101H312.047V103.417ZM309.536 110.359C309.536 110.037 309.152 109.748 308.384 109.492C307.748 109.28 307.218 109.174 306.794 109.174C305.251 109.174 304.016 109.73 303.087 110.841C302.714 111.287 302.528 111.653 302.528 111.938C302.681 112.472 303.285 112.739 304.337 112.739C305.697 112.739 306.94 112.399 308.066 111.719C309.046 111.127 309.536 110.673 309.536 110.359ZM323.695 103.417H311.905V102.101H323.695V103.417ZM321.337 108.231C321.337 106.476 320.507 105.599 318.847 105.599C317.619 105.599 316.592 106.243 315.765 107.529C315.034 108.67 314.669 109.884 314.669 111.17V114.362L312.87 113.419V105.171H314.756V106.476L315.732 105.742C316.595 105.091 317.505 104.766 318.463 104.766C319.765 104.766 320.843 105.27 321.699 106.279C322.503 107.23 322.905 108.366 322.905 109.69C322.905 111.35 322.203 112.943 320.799 114.472L318.683 113.145C319.341 112.494 319.9 111.894 320.361 111.346C321.011 110.571 321.337 109.533 321.337 108.231ZM340.277 103.417H332.973V105.171C333.002 105.171 333.031 105.186 333.061 105.215C333.09 105.244 333.116 105.259 333.137 105.259C333.079 105.259 333.046 105.255 333.039 105.248C333.039 105.212 333.583 105.095 334.673 104.897C335.075 104.824 335.473 104.788 335.868 104.788C337.513 104.788 338.57 105.248 339.038 106.169C339.352 106.784 339.509 108.023 339.509 109.887V114.11C339.356 114.051 338.775 113.814 337.766 113.397C337.766 113.163 337.718 113.013 337.623 112.947C337.236 113.174 336.917 113.346 336.669 113.463C335.879 113.835 334.962 114.022 333.916 114.022C332.476 114.022 331.364 113.569 330.582 112.662C330.202 112.223 330.012 111.733 330.012 111.192C330.012 110.586 330.312 109.982 330.911 109.383C332.074 108.22 333.518 107.639 335.243 107.639C336.289 107.639 337.13 107.88 337.766 108.363V107.354C337.444 106.944 337.13 106.67 336.822 106.531C336.523 106.392 336.11 106.33 335.583 106.345C334.406 106.367 333.328 106.582 332.348 106.992C331.909 107.175 331.481 107.339 331.065 107.485V106.674C331.16 106.593 331.299 106.473 331.481 106.312C331.511 106.275 331.529 106.253 331.536 106.246V103.417H329.288V102.101H340.277V103.417ZM337.766 110.359C337.766 110.037 337.382 109.748 336.614 109.492C335.978 109.28 335.448 109.174 335.024 109.174C333.481 109.174 332.245 109.73 331.317 110.841C330.944 111.287 330.758 111.653 330.758 111.938C330.911 112.472 331.514 112.739 332.567 112.739C333.927 112.739 335.17 112.399 336.296 111.719C337.276 111.127 337.766 110.673 337.766 110.359ZM349.95 103.417H344.401V112.245C344.401 112.494 344.481 112.735 344.642 112.969C344.81 113.225 345.015 113.353 345.256 113.353C346.346 113.353 346.89 112.227 346.89 109.975L349.095 111.236C348.254 113.101 346.953 114.029 345.19 114.022C344.167 114.015 343.37 113.547 342.8 112.618C342.551 112.216 342.427 111.814 342.427 111.412V103.417H340.135V102.101H342.427V98.4155L344.401 99.7864V102.101H349.95V103.417ZM368.441 102.101L368.419 103.417H359.163L359.185 109.887C359.185 110.838 359.349 111.529 359.678 111.96C360.051 112.435 360.702 112.695 361.63 112.739C362.223 112.768 362.815 112.574 363.407 112.158C363.934 111.792 364.369 111.328 364.712 110.765C365.085 110.15 365.272 109.551 365.272 108.966L365.25 104.831L367.542 105.621V116.851C367.542 118.219 366.913 119.334 365.655 120.196C364.493 120.993 363.129 121.392 361.565 121.392C358.918 121.392 357.035 120.672 355.916 119.231C355.463 118.646 355.236 118.146 355.236 117.729C355.244 116.815 355.756 116.047 356.772 115.426C357.671 114.877 358.603 114.603 359.569 114.603L360.961 116.468C359.704 116.555 358.578 116.822 357.583 117.268C356.933 117.561 356.607 117.937 356.607 118.398C356.688 119.063 357.189 119.652 358.11 120.164C358.658 120.471 359.367 120.624 360.238 120.624C362.234 120.624 363.74 119.977 364.756 118.683C365.239 118.069 365.48 117.352 365.48 116.533V112.07C365.005 112.845 363.736 113.232 361.674 113.232C359.941 113.232 358.629 112.64 357.737 111.456C357.298 110.878 357.079 110.22 357.079 109.481V103.417H355.522V102.101H368.441ZM380.001 103.417H377.533V106.433C377.533 106.498 377.825 106.824 378.41 107.409C378.856 107.95 379.079 108.725 379.079 109.734C379.079 111.408 378.337 112.647 376.853 113.452C376.151 113.832 375.387 114.022 374.561 114.022C373.362 114.022 372.126 113.492 370.854 112.432C369.523 111.32 368.858 110.114 368.858 108.812C368.858 108.213 369.073 107.591 369.505 106.948C369.892 106.37 370.36 105.892 370.909 105.511C371.567 105.058 372.36 104.831 373.289 104.831C373.8 104.831 374.557 104.967 375.559 105.237C375.603 105.237 375.625 105.208 375.625 105.149V103.417H368.101V102.101H380.001V103.417ZM377.467 108.275C377.467 107.244 377.014 106.553 376.107 106.202C375.771 106.071 375.482 106.005 375.241 106.005C374.334 106.005 373.358 106.411 372.312 107.222C371.091 108.173 370.481 109.383 370.481 110.852C370.481 111.54 370.876 112.103 371.665 112.541C372.024 112.739 372.386 112.837 372.751 112.837C373.658 112.837 374.652 112.399 375.734 111.521C376.889 110.586 377.467 109.503 377.467 108.275ZM392.097 103.417H382.918V110.447C382.918 110.915 383.016 111.397 383.214 111.894C383.616 112.911 384.281 113.419 385.21 113.419C386.46 113.419 387.411 112.896 388.061 111.85C388.566 111.046 388.818 110.289 388.818 109.58V105.215H391.045V114.559C390.869 114.457 390.54 114.3 390.057 114.088L388.796 113.528V112.651C387.933 113.28 387.195 113.678 386.581 113.846C386.208 113.949 385.766 114 385.254 114C383.631 114 382.362 113.287 381.448 111.861C381.031 111.211 380.823 110.501 380.823 109.734V103.417H379.496V102.101H392.097V103.417ZM402.988 103.417H391.9V102.101H402.988V103.417ZM402.078 107.354C402.078 107.785 401.818 108.271 401.299 108.812C400.86 109.273 400.4 109.617 399.917 109.843L398.272 107.979C398.769 107.935 399.241 107.752 399.687 107.431C400.199 107.065 400.454 106.648 400.454 106.18C400.454 105.932 400.294 105.72 399.972 105.544C399.694 105.383 399.42 105.303 399.149 105.303C398.586 105.303 397.983 105.573 397.34 106.115C396.031 107.211 395.377 108.425 395.377 109.756V114.406L393.271 113.309V105.193H395.399V106.027C395.713 105.712 396.364 105.383 397.351 105.04C397.833 104.872 398.33 104.788 398.842 104.788C399.902 104.788 400.802 105.193 401.54 106.005C401.898 106.4 402.078 106.849 402.078 107.354ZM416.116 103.417H412.474V114.088C412.401 114.088 411.765 113.803 410.566 113.232V103.417H408.702V102.101H410.478C410.478 101.925 410.31 101.603 409.974 101.135L409.327 100.236C409.144 99.9144 409.053 99.5598 409.053 99.1723C409.053 98.7628 409.217 98.3278 409.546 97.8672C409.839 97.4577 410.179 97.1287 410.566 96.8801C411.063 96.5657 411.637 96.4085 412.288 96.4085C413.626 96.4085 414.602 96.8728 415.216 97.8014C415.501 98.2328 415.673 98.7372 415.732 99.3149C415.081 98.3059 414.273 97.8014 413.308 97.8014C412.511 97.8014 411.904 98.1121 411.487 98.7336C411.29 99.0261 411.191 99.3295 411.191 99.6439C411.191 100.141 411.59 100.755 412.387 101.486C412.445 101.647 412.474 101.852 412.474 102.101H416.116V103.417ZM419.647 100.949C419.618 100.978 419.534 100.993 419.395 100.993C419.278 100.993 419.175 100.978 419.088 100.949L418.375 99.4903C418.082 99.0297 417.684 98.719 417.179 98.5581C416.682 98.39 416.375 98.2072 416.258 98.0098C416.149 97.6734 415.936 97.158 415.622 96.4634V96.2111H416.05C416.613 96.3866 417.07 96.5511 417.421 96.7047C417.998 96.9606 418.386 97.2567 418.583 97.593C418.693 97.7758 418.861 98.2437 419.088 98.9968C419.3 99.706 419.479 100.2 419.625 100.477C419.64 100.609 419.647 100.766 419.647 100.949ZM420.294 103.417H415.83V102.101H420.294V103.417ZM419.044 114.252L417.201 113.232V104.766H419.044V114.252ZM431.897 103.417H420.108V102.101H431.897V103.417ZM429.54 108.231C429.54 106.476 428.71 105.599 427.05 105.599C425.822 105.599 424.794 106.243 423.968 107.529C423.237 108.67 422.871 109.884 422.871 111.17V114.362L421.073 113.419V105.171H422.959V106.476L423.935 105.742C424.798 105.091 425.708 104.766 426.666 104.766C427.968 104.766 429.046 105.27 429.901 106.279C430.706 107.23 431.108 108.366 431.108 109.69C431.108 111.35 430.406 112.943 429.002 114.472L426.885 113.145C427.543 112.494 428.103 111.894 428.563 111.346C429.214 110.571 429.54 109.533 429.54 108.231ZM443.139 115.777C443.139 117.137 442.481 117.817 441.165 117.817C440.58 117.817 439.732 117.539 438.62 116.983C437.392 116.369 436.361 116.062 435.528 116.062C433.736 116.062 432.047 116.767 430.461 118.179C429.7 118.858 429.105 119.659 428.673 120.58C428.644 120.463 428.629 120.277 428.629 120.021C428.629 119.144 428.892 118.27 429.419 117.4C429.901 116.596 430.527 115.923 431.294 115.382C432.157 114.775 433.14 114.472 434.245 114.472C435.005 114.472 435.667 114.6 436.23 114.855C436.529 114.994 437.107 115.353 437.962 115.93C438.694 116.427 439.253 116.676 439.64 116.676C440.606 116.676 441.373 116.278 441.944 115.481C442.192 115.137 442.316 114.801 442.316 114.472C442.316 113.894 442.141 113.411 441.79 113.024C441.439 112.629 440.978 112.432 440.408 112.432C439.882 112.432 439.015 112.699 437.809 113.232C436.602 113.759 435.736 114.022 435.21 114.022C434.822 114.022 434.354 113.828 433.806 113.441C432.665 112.629 432.095 111.872 432.095 111.17C432.095 110.783 432.311 110.428 432.742 110.107C433.129 109.807 433.528 109.639 433.937 109.602L433.959 109.481L433.422 108.725C433.122 108.301 432.972 107.844 432.972 107.354C432.972 105.672 434.347 104.831 437.096 104.831C437.176 104.817 437.231 104.751 437.26 104.634V103.417H431.579V102.101H442.854V103.417H438.96V105.259C438.96 105.603 439.059 105.815 439.257 105.895C439.381 105.895 439.538 105.782 439.728 105.555L440.145 105.051C440.255 104.941 440.452 104.868 440.737 104.831C441.198 104.831 441.636 105.095 442.053 105.621C442.243 105.862 442.368 106.104 442.426 106.345L441.275 107.661C441.26 107.325 441.19 107.018 441.066 106.74C440.898 106.367 440.679 106.18 440.408 106.18C440.306 106.18 440.185 106.228 440.046 106.323C439.907 106.418 439.838 106.513 439.838 106.608C439.838 106.718 439.885 106.849 439.98 107.003C440.09 107.186 440.152 107.299 440.167 107.343C440.218 107.511 440.244 107.723 440.244 107.979C440.244 108.966 439.841 109.635 439.037 109.986C438.503 110.22 437.663 110.337 436.515 110.337C435.052 110.337 434.054 110.662 433.521 111.313C433.309 111.569 433.206 111.777 433.214 111.938C433.221 112.158 433.331 112.351 433.543 112.519C433.755 112.68 433.974 112.761 434.201 112.761C434.617 112.761 435.418 112.472 436.602 111.894C437.999 111.214 439.125 110.867 439.98 110.852C440.763 110.838 441.421 111.185 441.954 111.894C442.386 112.457 442.697 113.174 442.887 114.044C443.055 114.812 443.139 115.389 443.139 115.777ZM438.873 106.97C438.873 106.085 438.401 105.643 437.458 105.643C436.698 105.643 435.977 105.91 435.297 106.444C434.566 107.014 434.201 107.668 434.201 108.407C434.201 108.809 434.354 109.152 434.661 109.438C434.976 109.723 435.334 109.865 435.736 109.865C436.153 109.873 436.624 109.723 437.151 109.416C437.619 109.145 438.006 108.831 438.313 108.473C438.686 108.034 438.873 107.533 438.873 106.97ZM454.227 103.417H451.233V105.577C451.576 105.658 451.825 105.756 451.979 105.873V107.167C451.108 106.868 450.202 106.718 449.259 106.718C448.579 106.718 447.921 106.831 447.285 107.058C446.436 107.358 446.009 107.785 446.001 108.341C445.987 108.926 446.817 109.218 448.491 109.218C448.527 109.218 448.765 109.207 449.204 109.185L449.862 109.152V110.161C448.867 110.191 448.246 110.216 447.997 110.238C446.25 110.392 445.376 110.896 445.376 111.752C445.376 112.227 445.68 112.6 446.287 112.87C446.762 113.082 447.274 113.188 447.822 113.188C450.198 113.188 452.121 112.136 453.591 110.03V112.805C452.333 113.602 450.845 114 449.127 114C447.248 114 445.625 113.565 444.258 112.695C443.592 112.271 443.26 111.785 443.26 111.236C443.26 110.703 443.494 110.238 443.961 109.843C444.247 109.602 444.718 109.324 445.376 109.01L444.652 108.593C444.221 108.345 444.005 108.012 444.005 107.595C444.005 106.689 444.689 106.038 446.056 105.643C447.094 105.343 448.261 105.193 449.555 105.193V103.417H442.525V102.101H454.227V103.417ZM465.062 103.417H453.975V102.101H465.062V103.417ZM464.152 107.354C464.152 107.785 463.893 108.271 463.374 108.812C462.935 109.273 462.474 109.617 461.992 109.843L460.347 107.979C460.844 107.935 461.315 107.752 461.761 107.431C462.273 107.065 462.529 106.648 462.529 106.18C462.529 105.932 462.368 105.72 462.046 105.544C461.769 105.383 461.494 105.303 461.224 105.303C460.661 105.303 460.058 105.573 459.414 106.115C458.106 107.211 457.451 108.425 457.451 109.756V114.406L455.345 113.309V105.193H457.473V106.027C457.788 105.712 458.438 105.383 459.425 105.04C459.908 104.872 460.405 104.788 460.917 104.788C461.977 104.788 462.876 105.193 463.615 106.005C463.973 106.4 464.152 106.849 464.152 107.354ZM474.582 103.417H469.033V112.245C469.033 112.494 469.113 112.735 469.274 112.969C469.442 113.225 469.647 113.353 469.888 113.353C470.977 113.353 471.522 112.227 471.522 109.975L473.727 111.236C472.886 113.101 471.584 114.029 469.822 114.022C468.799 114.015 468.002 113.547 467.431 112.618C467.183 112.216 467.058 111.814 467.058 111.412V103.417H464.766V102.101H467.058V98.4155L469.033 99.7864V102.101H474.582V103.417ZM478.146 100.949C478.117 100.978 478.033 100.993 477.894 100.993C477.777 100.993 477.675 100.978 477.587 100.949L476.874 99.4903C476.582 99.0297 476.183 98.719 475.679 98.5581C475.182 98.39 474.874 98.2072 474.758 98.0098C474.648 97.6734 474.436 97.158 474.121 96.4634V96.2111H474.549C475.112 96.3866 475.569 96.5511 475.92 96.7047C476.498 96.9606 476.885 97.2567 477.083 97.593C477.192 97.7758 477.36 98.2437 477.587 98.9968C477.799 99.706 477.978 100.2 478.124 100.477C478.139 100.609 478.146 100.766 478.146 100.949ZM478.793 103.417H474.33V102.101H478.793V103.417ZM477.543 114.252L475.701 113.232V104.766H477.543V114.252ZM491.164 103.417H478.585V102.101H491.164V103.417ZM490.287 109.481C490.287 110.286 490.046 111.046 489.563 111.763C489.117 112.428 488.529 112.973 487.798 113.397C487.066 113.814 486.39 114.022 485.769 114.022C485.162 114.022 484.405 113.682 483.498 113.002C483.06 112.673 482.416 112.106 481.568 111.302V120.602L479.813 119.681V105.171H481.524V107.847L482.193 107.145C483.736 105.53 484.986 104.722 485.944 104.722C486.982 104.722 487.973 105.259 488.916 106.334C489.83 107.379 490.287 108.429 490.287 109.481ZM489.201 108.209C489.201 107.654 488.913 107.12 488.335 106.608C488.05 106.352 487.688 106.224 487.249 106.224C486.386 106.224 485.315 106.747 484.036 107.793C482.72 108.867 482.062 109.821 482.062 110.655C482.062 111.145 482.519 111.576 483.433 111.949C483.842 112.117 484.241 112.201 484.628 112.201C485.9 112.201 487.004 111.712 487.94 110.732C488.781 109.854 489.201 109.014 489.201 108.209ZM502.099 103.417H500.903V107.573C500.472 107.317 499.851 107.098 499.039 106.915C498.279 106.74 497.621 106.652 497.065 106.652C495.727 106.652 494.605 106.89 493.698 107.365C493.186 107.635 492.93 107.99 492.93 108.429C492.93 109.014 493.237 109.306 493.851 109.306C494.224 109.306 494.711 109.196 495.31 108.977C495.698 108.838 496.195 108.663 496.802 108.451C497.058 108.363 497.511 108.319 498.162 108.319C499.427 108.319 500.37 108.71 500.991 109.492C501.291 109.865 501.441 110.304 501.441 110.809C501.441 111.971 500.71 112.885 499.247 113.55C498.641 113.828 498.063 113.985 497.515 114.022C498.041 114.548 498.542 114.812 499.017 114.812C499.171 114.812 499.335 114.79 499.511 114.746L500.618 116.555C500.392 116.753 499.927 116.851 499.225 116.851C498.655 116.851 498.173 116.658 497.778 116.27C497.566 116.058 497.266 115.616 496.878 114.943C496.549 114.366 496.275 114.073 496.056 114.066C494.703 114.029 493.661 113.784 492.93 113.331C492.47 113.046 492.239 112.655 492.239 112.158C492.239 111.543 492.605 111.236 493.336 111.236C493.607 111.236 494.17 111.448 495.025 111.872C495.888 112.289 496.597 112.497 497.153 112.497C498.264 112.497 499.306 112.234 500.278 111.708C500.754 111.452 500.991 111.138 500.991 110.765C500.991 110.209 500.552 109.931 499.675 109.931C499.405 109.931 498.531 110.129 497.054 110.523C496.184 110.757 495.65 110.874 495.453 110.874C494.29 110.874 493.332 110.326 492.579 109.229C492.214 108.703 492.031 108.136 492.031 107.529C492.024 106.294 492.868 105.46 494.564 105.029C495.259 104.853 495.913 104.766 496.528 104.766C497.229 104.766 498.224 104.937 499.511 105.281V103.417H490.781V102.101H502.099V103.417Z" fill="black" fill-opacity="0.61"/>
<defs>
<filter id="filter0_d_336_2" x="440.322" y="29.6984" width="67.7764" height="64.9155" filterUnits="userSpaceOnUse" color-interpolation-filters="sRGB">
<feFlood flood-opacity="0" result="BackgroundImageFix"/>
<feColorMatrix in="SourceAlpha" type="matrix" values="0 0 0 0 0 0 0 0 0 0 0 0 0 0 0 0 0 0 127 0" result="hardAlpha"/>
<feOffset dx="11.5513" dy="9.24105"/>
<feGaussianBlur stdDeviation="3.77343"/>
<feComposite in2="hardAlpha" operator="out"/>
<feColorMatrix type="matrix" values="0 0 0 0 0 0 0 0 0 0 0 0 0 0 0 0 0 0 0.25 0"/>
<feBlend mode="normal" in2="BackgroundImageFix" result="effect1_dropShadow_336_2"/>
<feBlend mode="normal" in="SourceGraphic" in2="effect1_dropShadow_336_2" result="shape"/>
</filter>
<filter id="filter1_d_336_2" x="385.924" y="0.889648" width="75.1482" height="92.2414" filterUnits="userSpaceOnUse" color-interpolation-filters="sRGB">
<feFlood flood-opacity="0" result="BackgroundImageFix"/>
<feColorMatrix in="SourceAlpha" type="matrix" values="0 0 0 0 0 0 0 0 0 0 0 0 0 0 0 0 0 0 127 0" result="hardAlpha"/>
<feOffset dx="11.5513" dy="9.24105"/>
<feGaussianBlur stdDeviation="3.77343"/>
<feComposite in2="hardAlpha" operator="out"/>
<feColorMatrix type="matrix" values="0 0 0 0 0 0 0 0 0 0 0 0 0 0 0 0 0 0 0.25 0"/>
<feBlend mode="normal" in2="BackgroundImageFix" result="effect1_dropShadow_336_2"/>
<feBlend mode="normal" in="SourceGraphic" in2="effect1_dropShadow_336_2" result="shape"/>
</filter>
<filter id="filter2_d_336_2" x="349.701" y="0" width="65.3616" height="93.2158" filterUnits="userSpaceOnUse" color-interpolation-filters="sRGB">
<feFlood flood-opacity="0" result="BackgroundImageFix"/>
<feColorMatrix in="SourceAlpha" type="matrix" values="0 0 0 0 0 0 0 0 0 0 0 0 0 0 0 0 0 0 127 0" result="hardAlpha"/>
<feOffset dx="11.5513" dy="9.24105"/>
<feGaussianBlur stdDeviation="3.77343"/>
<feComposite in2="hardAlpha" operator="out"/>
<feColorMatrix type="matrix" values="0 0 0 0 0 0 0 0 0 0 0 0 0 0 0 0 0 0 0.25 0"/>
<feBlend mode="normal" in2="BackgroundImageFix" result="effect1_dropShadow_336_2"/>
<feBlend mode="normal" in="SourceGraphic" in2="effect1_dropShadow_336_2" result="shape"/>
</filter>
<filter id="filter3_d_336_2" x="310.725" y="0" width="65.3616" height="93.2158" filterUnits="userSpaceOnUse" color-interpolation-filters="sRGB">
<feFlood flood-opacity="0" result="BackgroundImageFix"/>
<feColorMatrix in="SourceAlpha" type="matrix" values="0 0 0 0 0 0 0 0 0 0 0 0 0 0 0 0 0 0 127 0" result="hardAlpha"/>
<feOffset dx="11.5513" dy="9.24105"/>
<feGaussianBlur stdDeviation="3.77343"/>
<feComposite in2="hardAlpha" operator="out"/>
<feColorMatrix type="matrix" values="0 0 0 0 0 0 0 0 0 0 0 0 0 0 0 0 0 0 0.25 0"/>
<feBlend mode="normal" in2="BackgroundImageFix" result="effect1_dropShadow_336_2"/>
<feBlend mode="normal" in="SourceGraphic" in2="effect1_dropShadow_336_2" result="shape"/>
</filter>
<filter id="filter4_d_336_2" x="275.18" y="29.6984" width="61.5486" height="63.1784" filterUnits="userSpaceOnUse" color-interpolation-filters="sRGB">
<feFlood flood-opacity="0" result="BackgroundImageFix"/>
<feColorMatrix in="SourceAlpha" type="matrix" values="0 0 0 0 0 0 0 0 0 0 0 0 0 0 0 0 0 0 127 0" result="hardAlpha"/>
<feOffset dx="11.5513" dy="9.24105"/>
<feGaussianBlur stdDeviation="3.77343"/>
<feComposite in2="hardAlpha" operator="out"/>
<feColorMatrix type="matrix" values="0 0 0 0 0 0 0 0 0 0 0 0 0 0 0 0 0 0 0.25 0"/>
<feBlend mode="normal" in2="BackgroundImageFix" result="effect1_dropShadow_336_2"/>
<feBlend mode="normal" in="SourceGraphic" in2="effect1_dropShadow_336_2" result="shape"/>
</filter>
<filter id="filter5_d_336_2" x="220.613" y="0.889648" width="75.1482" height="92.2414" filterUnits="userSpaceOnUse" color-interpolation-filters="sRGB">
<feFlood flood-opacity="0" result="BackgroundImageFix"/>
<feColorMatrix in="SourceAlpha" type="matrix" values="0 0 0 0 0 0 0 0 0 0 0 0 0 0 0 0 0 0 127 0" result="hardAlpha"/>
<feOffset dx="11.5513" dy="9.24105"/>
<feGaussianBlur stdDeviation="3.77343"/>
<feComposite in2="hardAlpha" operator="out"/>
<feColorMatrix type="matrix" values="0 0 0 0 0 0 0 0 0 0 0 0 0 0 0 0 0 0 0.25 0"/>
<feBlend mode="normal" in2="BackgroundImageFix" result="effect1_dropShadow_336_2"/>
<feBlend mode="normal" in="SourceGraphic" in2="effect1_dropShadow_336_2" result="shape"/>
</filter>
<filter id="filter6_d_336_2" x="185.238" y="29.6984" width="64.6414" height="62.7548" filterUnits="userSpaceOnUse" color-interpolation-filters="sRGB">
<feFlood flood-opacity="0" result="BackgroundImageFix"/>
<feColorMatrix in="SourceAlpha" type="matrix" values="0 0 0 0 0 0 0 0 0 0 0 0 0 0 0 0 0 0 127 0" result="hardAlpha"/>
<feOffset dx="11.5513" dy="9.24105"/>
<feGaussianBlur stdDeviation="3.77343"/>
<feComposite in2="hardAlpha" operator="out"/>
<feColorMatrix type="matrix" values="0 0 0 0 0 0 0 0 0 0 0 0 0 0 0 0 0 0 0.25 0"/>
<feBlend mode="normal" in2="BackgroundImageFix" result="effect1_dropShadow_336_2"/>
<feBlend mode="normal" in="SourceGraphic" in2="effect1_dropShadow_336_2" result="shape"/>
</filter>
<filter id="filter7_d_336_2" x="46.5896" y="22.8608" width="82.5244" height="117.797" filterUnits="userSpaceOnUse" color-interpolation-filters="sRGB">
<feFlood flood-opacity="0" result="BackgroundImageFix"/>
<feColorMatrix in="SourceAlpha" type="matrix" values="0 0 0 0 0 0 0 0 0 0 0 0 0 0 0 0 0 0 127 0" result="hardAlpha"/>
<feOffset dx="13.6644" dy="10.9315"/>
<feGaussianBlur stdDeviation="4.46369"/>
<feComposite in2="hardAlpha" operator="out"/>
<feColorMatrix type="matrix" values="0 0 0 0 0 0 0 0 0 0 0 0 0 0 0 0 0 0 0.25 0"/>
<feBlend mode="normal" in2="BackgroundImageFix" result="effect1_dropShadow_336_2"/>
<feBlend mode="normal" in="SourceGraphic" in2="effect1_dropShadow_336_2" result="shape"/>
</filter>
<filter id="filter8_d_336_2" x="141.008" y="29.6984" width="64.6414" height="64.5765" filterUnits="userSpaceOnUse" color-interpolation-filters="sRGB">
<feFlood flood-opacity="0" result="BackgroundImageFix"/>
<feColorMatrix in="SourceAlpha" type="matrix" values="0 0 0 0 0 0 0 0 0 0 0 0 0 0 0 0 0 0 127 0" result="hardAlpha"/>
<feOffset dx="11.5513" dy="9.24105"/>
<feGaussianBlur stdDeviation="3.77343"/>
<feComposite in2="hardAlpha" operator="out"/>
<feColorMatrix type="matrix" values="0 0 0 0 0 0 0 0 0 0 0 0 0 0 0 0 0 0 0.25 0"/>
<feBlend mode="normal" in2="BackgroundImageFix" result="effect1_dropShadow_336_2"/>
<feBlend mode="normal" in="SourceGraphic" in2="effect1_dropShadow_336_2" result="shape"/>
</filter>
<filter id="filter9_d_336_2" x="99.1077" y="29.6984" width="61.5486" height="63.1784" filterUnits="userSpaceOnUse" color-interpolation-filters="sRGB">
<feFlood flood-opacity="0" result="BackgroundImageFix"/>
<feColorMatrix in="SourceAlpha" type="matrix" values="0 0 0 0 0 0 0 0 0 0 0 0 0 0 0 0 0 0 127 0" result="hardAlpha"/>
<feOffset dx="11.5513" dy="9.24105"/>
<feGaussianBlur stdDeviation="3.77343"/>
<feComposite in2="hardAlpha" operator="out"/>
<feColorMatrix type="matrix" values="0 0 0 0 0 0 0 0 0 0 0 0 0 0 0 0 0 0 0.25 0"/>
<feBlend mode="normal" in2="BackgroundImageFix" result="effect1_dropShadow_336_2"/>
<feBlend mode="normal" in="SourceGraphic" in2="effect1_dropShadow_336_2" result="shape"/>
</filter>
<filter id="filter10_d_336_2" x="0" y="29.4122" width="75.1482" height="88.1743" filterUnits="userSpaceOnUse" color-interpolation-filters="sRGB">
<feFlood flood-opacity="0" result="BackgroundImageFix"/>
<feColorMatrix in="SourceAlpha" type="matrix" values="0 0 0 0 0 0 0 0 0 0 0 0 0 0 0 0 0 0 127 0" result="hardAlpha"/>
<feOffset dx="11.5513" dy="9.24105"/>
<feGaussianBlur stdDeviation="3.77343"/>
<feComposite in2="hardAlpha" operator="out"/>
<feColorMatrix type="matrix" values="0 0 0 0 0 0 0 0 0 0 0 0 0 0 0 0 0 0 0.25 0"/>
<feBlend mode="normal" in2="BackgroundImageFix" result="effect1_dropShadow_336_2"/>
<feBlend mode="normal" in="SourceGraphic" in2="effect1_dropShadow_336_2" result="shape"/>
</filter>
</defs>
</svg>
