<svg width="675" height="192" viewBox="0 0 675 192" fill="none" xmlns="http://www.w3.org/2000/svg">
<g filter="url(#filter0_d_914_73)">
<path d="M659.782 68.6454H612.228V105.064C612.228 107.488 612.739 109.988 613.762 112.564C615.845 117.829 619.292 120.461 624.102 120.461C630.579 120.461 635.503 117.753 638.874 112.336C641.487 108.17 642.794 104.25 642.794 100.576V77.9631H654.328V126.37C653.419 125.839 651.714 125.025 649.214 123.927L642.681 121.029V116.484C638.211 119.741 634.386 121.806 631.204 122.677C629.272 123.207 626.981 123.472 624.329 123.472C615.921 123.472 609.349 119.779 604.614 112.393C602.455 109.022 601.376 105.348 601.376 101.371V68.6454H594.501V61.8275H659.782V68.6454Z" fill="#4E4E4E"/>
<path d="M596.717 68.6454H550.867V85.7468C554.995 81.2395 558.821 78.3419 562.343 77.0541C564.313 76.3344 566.529 75.9746 568.991 75.9746C578.233 75.9746 585.145 80.5198 589.728 89.6103C591.736 93.5873 592.74 97.5076 592.74 101.371C592.74 108.416 589.842 114.779 584.047 120.461C582.115 122.355 580.676 123.662 579.729 124.381L570.411 118.813C572.76 116.351 575.43 113.321 578.422 109.723C581.793 105.67 583.498 100.557 583.536 94.3827C583.573 90.7087 582.74 87.6407 581.036 85.1787C579.104 82.3 576.377 80.8986 572.854 80.9743C569.597 81.0501 566.112 82.2811 562.4 84.6673C559.067 86.7884 556.302 89.3262 554.105 92.2806C551.719 95.4622 550.526 98.5303 550.526 101.485V124.04L539.901 118.359V68.6454H533.652V61.8276H539.901C539.901 50.6917 537.004 41.1846 531.209 33.3062C527.724 28.5716 524.504 25.2385 521.55 23.3067L533.027 23.1931C539.39 26.6778 544.447 34.1964 548.196 45.7488C549.977 51.241 550.867 56.6005 550.867 61.8276H596.717V68.6454Z" fill="#4E4E4E"/>
<path d="M535.015 68.6454H497.745V83.3038C499.979 82.0159 503.634 80.3304 508.71 78.2472C510.793 77.679 513.312 77.395 516.266 77.395C520.319 77.395 523.937 78.5123 527.118 80.7471C530.679 83.2091 532.459 86.3907 532.459 90.2921C532.459 95.5569 529.448 99.3825 523.425 101.769C520.925 102.754 518.766 103.246 516.948 103.246L530.129 119.268L522.914 124.495L502.631 100.405L506.381 92.6215C508.388 93.1896 510.49 93.4737 512.687 93.4737C515.907 93.4737 518.539 92.7162 520.584 91.2011C522.895 89.5345 524.05 87.1483 524.05 84.0424C524.05 81.0122 521.891 79.4971 517.573 79.4971C514.543 79.4971 511.324 80.9554 507.915 83.8719C505.49 85.9551 503.275 88.474 501.267 91.4284C498.843 94.9888 497.631 98.0379 497.631 100.576V124.381L487.859 120.006V68.6454H480.643V61.8276H487.518C487.518 50.9569 485.548 41.9233 481.609 34.7266C480.852 33.3252 479.393 31.223 477.234 28.4201C475.189 25.7309 473.769 23.5908 472.973 22H484.507C486.741 24.0832 489.052 27.5111 491.438 32.2836C495.491 40.3892 497.517 50.2372 497.517 61.8276H535.015V68.6454Z" fill="#4E4E4E"/>
<path d="M482.745 68.6454H445.474V83.3038C447.709 82.0159 451.364 80.3304 456.44 78.2472C458.523 77.679 461.042 77.395 463.996 77.395C468.049 77.395 471.666 78.5123 474.848 80.7471C478.408 83.2091 480.189 86.3907 480.189 90.2921C480.189 95.5569 477.177 99.3825 471.155 101.769C468.655 102.754 466.496 103.246 464.678 103.246L477.859 119.268L470.644 124.495L450.36 100.405L454.11 92.6215C456.118 93.1896 458.22 93.4737 460.417 93.4737C463.636 93.4737 466.269 92.7162 468.314 91.2011C470.625 89.5345 471.78 87.1483 471.78 84.0424C471.78 81.0122 469.621 79.4971 465.303 79.4971C462.273 79.4971 459.053 80.9554 455.644 83.8719C453.22 85.9551 451.004 88.474 448.997 91.4284C446.573 94.9888 445.361 98.0379 445.361 100.576V124.381L435.588 120.006V68.6454H428.373V61.8276H435.248C435.248 50.9569 433.278 41.9233 429.339 34.7266C428.581 33.3252 427.123 31.223 424.964 28.4201C422.919 25.7309 421.498 23.5908 420.703 22H432.236C434.471 24.0832 436.782 27.5111 439.168 32.2836C443.221 40.3892 445.247 50.2372 445.247 61.8276H482.745V68.6454Z" fill="#4E4E4E"/>
<path d="M429.964 68.6454H392.125V77.7358C392.276 77.7358 392.428 77.8116 392.579 77.9631C392.731 78.1146 392.863 78.1903 392.977 78.1903C392.674 78.1903 392.503 78.1714 392.466 78.1335C392.466 77.9441 395.287 77.3381 400.931 76.3154C403.014 75.9367 405.079 75.7473 407.124 75.7473C415.646 75.7473 421.119 78.1335 423.543 82.906C425.172 86.0877 425.987 92.5078 425.987 102.166V124.04C425.191 123.737 422.18 122.506 416.953 120.347C416.953 119.135 416.707 118.359 416.214 118.018C414.207 119.192 412.559 120.082 411.271 120.688C407.181 122.62 402.427 123.586 397.011 123.586C389.549 123.586 383.792 121.237 379.739 116.541C377.769 114.268 376.784 111.73 376.784 108.927C376.784 105.784 378.337 102.659 381.443 99.5529C387.466 93.5305 394.946 90.5193 403.885 90.5193C409.302 90.5193 413.658 91.7692 416.953 94.2691V89.0421C415.286 86.921 413.658 85.5006 412.067 84.7809C410.514 84.0613 408.374 83.7393 405.647 83.8151C399.548 83.9287 393.962 85.0461 388.886 87.1672C386.614 88.1141 384.398 88.9663 382.239 89.7239V85.5195C382.731 85.1029 383.451 84.4779 384.398 83.6446C384.549 83.4552 384.644 83.3416 384.682 83.3037V68.6454H373.035V61.8275H429.964V68.6454ZM416.953 104.609C416.953 102.943 414.964 101.447 410.987 100.121C407.692 99.0226 404.946 98.4734 402.749 98.4734C394.757 98.4734 388.356 101.352 383.545 107.109C381.614 109.42 380.648 111.314 380.648 112.791C381.443 115.556 384.568 116.938 390.022 116.938C397.068 116.938 403.507 115.177 409.34 111.655C414.415 108.587 416.953 106.238 416.953 104.609Z" fill="#4E4E4E"/>
<path d="M375.023 68.6454H329.173V85.7468C333.302 81.2395 337.127 78.3419 340.65 77.0541C342.619 76.3344 344.835 75.9746 347.297 75.9746C356.539 75.9746 363.452 80.5198 368.035 89.6103C370.042 93.5873 371.046 97.5076 371.046 101.371C371.046 108.416 368.149 114.779 362.353 120.461C360.422 122.355 358.982 123.662 358.035 124.381L348.718 118.813C351.066 116.351 353.736 113.321 356.729 109.723C360.1 105.67 361.804 100.557 361.842 94.3827C361.88 90.7087 361.047 87.6407 359.342 85.1787C357.41 82.3 354.683 80.8986 351.161 80.9743C347.903 81.0501 344.419 82.2811 340.707 84.6673C337.374 86.7884 334.609 89.3262 332.412 92.2806C330.025 95.4622 328.832 98.5303 328.832 101.485V124.04L318.208 118.359V68.6454H311.958V61.8276H318.208C318.208 50.6917 315.31 41.1846 309.515 33.3062C306.03 28.5716 302.811 25.2385 299.856 23.3067L311.333 23.1931C317.696 26.6778 322.753 34.1964 326.503 45.7488C328.283 51.241 329.173 56.6005 329.173 61.8276H375.023V68.6454Z" fill="#4E4E4E"/>
<path d="M313.493 68.6454H301.618V84.4968C304.118 86.8073 305.633 88.3035 306.164 88.9853C307.111 90.1973 308.076 92.0722 309.061 94.61H301.505C301.505 90.4814 300.331 87.2619 297.982 84.9514C295.672 82.6409 292.452 81.4856 288.324 81.4856C284.006 81.4856 279.972 82.6787 276.222 85.065C272.624 87.3376 269.726 90.4056 267.529 94.2691C265.446 97.9431 264.404 101.504 264.404 104.95C264.404 109.003 265.863 112.09 268.779 114.211C271.355 116.105 274.745 117.052 278.949 117.052C285.956 117.052 290.842 115.12 293.607 111.257H305.709C304.686 115.348 300.918 118.794 294.403 121.597C291.486 122.847 288.778 123.472 286.278 123.472C281.392 123.472 276.468 122.09 271.506 119.325C266.772 116.711 262.87 113.359 259.802 109.268C256.734 105.14 255.2 101.068 255.2 97.053C255.2 94.0229 256.545 90.595 259.234 86.7695C264.878 78.7395 271.752 74.7246 279.858 74.7246C285.199 74.7246 289.422 75.842 292.528 78.0767V68.6454H252.416V61.8275H313.493V68.6454Z" fill="#4E4E4E"/>
<path d="M146.853 52.658L146.853 61.7725L90.5117 62.1868L90.5117 105.673C90.5117 112.144 91.513 116.848 93.5157 119.785C95.7854 123.021 99.7462 124.788 105.398 125.086C109.003 125.286 112.608 123.966 116.213 121.129C119.417 118.64 122.065 115.479 124.156 111.646C126.426 107.465 127.561 103.383 127.561 99.4005L127.427 71.2504L141.379 76.6266V153.087C141.379 162.396 137.552 169.987 129.897 175.861C122.821 181.287 114.521 184 104.998 184C88.8873 184 77.4276 179.097 70.6186 169.29C67.8593 165.308 66.4797 161.898 66.4797 159.061C66.5242 152.838 69.6395 147.612 75.8255 143.38C81.2994 139.647 86.9736 137.78 92.8481 137.78L101.326 150.474C93.6714 151.071 86.8179 152.888 80.7654 155.925C76.8046 157.916 74.8242 160.479 74.8242 163.615C75.3137 168.145 78.3622 172.153 83.9696 175.637C87.3074 177.728 91.6243 178.773 96.9202 178.773C109.07 178.773 118.237 174.368 124.423 165.557C127.361 161.375 128.829 156.497 128.829 150.922V120.532C125.937 125.808 118.215 128.447 105.665 128.447C95.1178 128.447 87.1294 124.414 81.7 116.35C79.0297 112.418 77.6946 107.938 77.6946 102.91V61.6182H68.2154V52.658H146.853Z" fill="#0B59D5"/>
<path d="M254.177 68.6454H193.1V61.8275H254.177V68.6454ZM241.961 93.5873C241.961 84.4968 237.662 79.9516 229.064 79.9516C222.701 79.9516 217.379 83.2848 213.099 89.9511C209.311 95.8599 207.418 102.147 207.418 108.814V125.347L198.1 120.461V77.7358H207.872V84.4968L212.929 80.6902C217.398 77.3192 222.114 75.6336 227.076 75.6336C233.818 75.6336 239.405 78.2472 243.836 83.4742C248.003 88.3982 250.086 94.288 250.086 101.144C250.086 109.742 246.45 117.999 239.177 125.915L228.212 119.041C231.621 115.67 234.518 112.564 236.905 109.723C240.276 105.708 241.961 100.329 241.961 93.5873Z" fill="#4E4E4E"/>
<path d="M193.839 68.6454H156V77.7358C156.152 77.7358 156.303 77.8116 156.455 77.9631C156.606 78.1146 156.739 78.1903 156.852 78.1903C156.549 78.1903 156.379 78.1714 156.341 78.1335C156.341 77.9441 159.163 77.3381 164.806 76.3154C166.89 75.9367 168.954 75.7473 170.999 75.7473C179.522 75.7473 184.995 78.1335 187.419 82.906C189.048 86.0877 189.862 92.5078 189.862 102.166V124.04C189.067 123.737 186.055 122.506 180.828 120.347C180.828 119.135 180.582 118.359 180.09 118.018C178.082 119.192 176.435 120.082 175.147 120.688C171.056 122.62 166.303 123.586 160.886 123.586C153.424 123.586 147.667 121.237 143.614 116.541C141.645 114.268 140.66 111.73 140.66 108.927C140.66 105.784 142.213 102.659 145.319 99.5529C151.341 93.5305 158.822 90.5193 167.761 90.5193C173.177 90.5193 177.533 91.7692 180.828 94.2691V89.0421C179.162 86.921 177.533 85.5006 175.942 84.7809C174.389 84.0613 172.249 83.7393 169.522 83.8151C163.424 83.9287 157.837 85.0461 152.762 87.1672C150.489 88.1141 148.273 88.9663 146.114 89.7239V85.5195C146.607 85.1029 147.326 84.4779 148.273 83.6446C148.425 83.4552 148.519 83.3416 148.557 83.3037V68.6454H136.91V61.8275H193.839V68.6454ZM180.828 104.609C180.828 102.943 178.84 101.447 174.863 100.121C171.568 99.0226 168.821 98.4734 166.625 98.4734C158.633 98.4734 152.231 101.352 147.421 107.109C145.489 109.42 144.523 111.314 144.523 112.791C145.319 115.556 148.444 116.938 153.898 116.938C160.943 116.938 167.382 115.177 173.215 111.655C178.291 108.587 180.828 106.238 180.828 104.609Z" fill="#4E4E4E"/>
<path d="M79.1667 132.293C79.1667 139.338 75.7578 142.86 68.9399 142.86C65.9098 142.86 61.5161 141.421 55.7588 138.542C49.3955 135.361 44.0548 133.77 39.7369 133.77C30.457 133.77 21.7075 137.425 13.4882 144.735C9.54897 148.258 6.462 152.405 4.22726 157.178C4.07575 156.572 4 155.606 4 154.28C4 149.735 5.36357 145.209 8.09071 140.701C10.5906 136.535 13.8291 133.05 17.8061 130.247C22.2756 127.103 27.37 125.532 33.0895 125.532C37.0287 125.532 40.4565 126.194 43.373 127.52C44.926 128.24 47.9183 130.096 52.3499 133.088C56.1376 135.664 59.0351 136.951 61.0426 136.951C66.0424 136.951 70.0194 134.887 72.9738 130.759C74.2617 128.978 74.9056 127.236 74.9056 125.532C74.9056 122.539 73.9965 120.039 72.1784 118.032C70.3603 115.987 67.9741 114.964 65.0197 114.964C62.2925 114.964 57.8041 116.346 51.5545 119.111C45.3048 121.839 40.8163 123.202 38.0892 123.202C36.0817 123.202 33.6576 122.198 30.8168 120.191C24.908 115.987 21.9537 112.066 21.9537 108.43C21.9537 106.423 23.071 104.586 25.3058 102.919C27.3132 101.366 29.3775 100.495 31.4986 100.306L31.6123 99.6806L28.8283 95.7603C27.2754 93.5635 26.4989 91.1962 26.4989 88.6584C26.4989 79.9467 33.6197 75.5909 47.8615 75.5909C48.2781 75.5151 48.5622 75.1742 48.7137 74.5682V68.2617H19.2833V61.4438H77.6895V68.2617H57.5201V77.8067C57.5201 79.5869 58.0314 80.6853 59.0541 81.102C59.698 81.102 60.5123 80.5149 61.4971 79.3407L63.6561 76.7272C64.2243 76.159 65.2469 75.7803 66.7241 75.5909C69.1104 75.5909 71.383 76.9544 73.542 79.6816C74.5268 80.9315 75.1707 82.1815 75.4737 83.4314L69.5081 90.2492C69.4324 88.5069 69.0725 86.9161 68.4286 85.4767C67.5574 83.545 66.4211 82.5792 65.0197 82.5792C64.4894 82.5792 63.8644 82.8254 63.1448 83.3178C62.4251 83.8102 62.0653 84.3026 62.0653 84.795C62.0653 85.3631 62.3115 86.0449 62.8039 86.8403C63.372 87.7872 63.694 88.3743 63.7698 88.6016C64.0349 89.4728 64.1675 90.5712 64.1675 91.8969C64.1675 97.0103 62.0842 100.476 57.9178 102.294C55.1528 103.506 50.7969 104.112 44.8502 104.112C37.2749 104.112 32.1047 105.798 29.3396 109.169C28.2412 110.494 27.7109 111.574 27.7488 112.407C27.7867 113.544 28.3548 114.547 29.4533 115.418C30.5517 116.252 31.688 116.668 32.8622 116.668C35.0212 116.668 39.1687 115.172 45.3048 112.18C52.5393 108.657 58.3723 106.858 62.8039 106.783C66.8567 106.707 70.2656 108.506 73.0307 112.18C75.2654 115.096 76.8752 118.808 77.86 123.316C78.7311 127.293 79.1667 130.285 79.1667 132.293ZM57.0655 86.6699C57.0655 82.0868 54.6225 79.7952 49.7364 79.7952C45.7972 79.7952 42.0663 81.1777 38.5437 83.9427C34.756 86.8971 32.8622 90.2871 32.8622 94.1127C32.8622 96.1959 33.6576 97.9761 35.2484 99.4533C36.8772 100.931 38.7331 101.669 40.8163 101.669C42.9753 101.707 45.4184 100.931 48.1455 99.3397C50.5696 97.9382 52.5771 96.3095 54.168 94.4536C56.0997 92.181 57.0655 89.5864 57.0655 86.6699Z" fill="#4E4E4E"/>
</g>
<g filter="url(#filter1_d_914_73)">
<path d="M671 30.7061H646.976V28.0243H671V30.7061ZM666.195 40.5169C666.195 36.9412 664.504 35.1533 661.122 35.1533C658.619 35.1533 656.526 36.4644 654.842 39.0866C653.352 41.4108 652.607 43.884 652.607 46.5062V53.0095L648.942 51.0875V34.2818H652.786V36.9412L654.775 35.4439C656.533 34.1179 658.388 33.4549 660.34 33.4549C662.992 33.4549 665.189 34.4829 666.932 36.5389C668.571 38.4758 669.391 40.7925 669.391 43.4892C669.391 46.8712 667.96 50.1191 665.1 53.233L660.787 50.5288C662.128 49.2029 663.267 47.9812 664.206 46.8638C665.532 45.2845 666.195 43.1689 666.195 40.5169Z" fill="#4E4E4E"/>
<path d="M646.037 25.6778C645.978 25.7374 645.806 25.7672 645.523 25.7672C645.285 25.7672 645.076 25.7374 644.897 25.6778L643.445 22.7055C642.849 21.7669 642.037 21.1337 641.009 20.8059C639.996 20.4633 639.37 20.0908 639.132 19.6885C638.908 19.0032 638.476 17.9528 637.835 16.5374V16.0234H638.707C639.854 16.381 640.785 16.7162 641.501 17.0291C642.678 17.5506 643.467 18.154 643.869 18.8393C644.093 19.2118 644.436 20.1653 644.897 21.6999C645.33 23.145 645.695 24.1507 645.993 24.7169C646.022 24.985 646.037 25.3054 646.037 25.6778ZM647.356 30.7062H638.26V28.0244H647.356V30.7062ZM644.808 52.7861L641.054 50.7077V33.455H644.808V52.7861Z" fill="#4E4E4E"/>
<path d="M638.752 30.7061H631.377L631.421 33.8348C633.448 34.5797 634.908 35.5556 635.802 36.7624C636.725 38.0139 637.187 39.7049 637.187 41.8354C637.187 44.9046 635.958 47.5416 633.5 49.7467C633.038 50.1638 632.33 50.7076 631.377 51.3781C630.2 52.2124 629.455 52.6296 629.142 52.6296C628.829 52.6296 627.391 51.3185 624.829 48.6963C626.408 48.6069 628.054 48.1004 629.768 47.1766C631.392 46.3125 632.77 45.2547 633.902 44.0032C635.124 42.6623 635.735 41.2395 635.735 39.7347C635.735 38.2448 634.908 37.2094 633.254 36.6283C632.449 36.3452 631.652 36.2186 630.863 36.2484C626.036 36.4421 623.078 39.2505 621.991 44.6736L617.409 42.7964C617.409 41.5449 617.893 40.1444 618.862 38.595C619.219 38.0288 619.406 37.7085 619.42 37.634C619.42 36.9337 618.415 36.5836 616.403 36.5836C613.826 36.5836 611.822 37.7159 610.392 39.9805C609.766 40.9788 609.453 41.977 609.453 42.9752C609.453 45.061 610.414 47.0351 612.336 48.8974L616.582 53.0095C613.99 52.1156 611.584 50.8194 609.364 49.1209C606.399 46.8563 604.917 44.4278 604.917 41.8354C604.917 38.5577 606.57 36.1143 609.878 34.5052C611.323 33.805 612.813 33.4549 614.347 33.4549C616.314 33.4549 618.281 34.0434 620.247 35.2204C620.992 35.6673 621.424 35.9057 621.544 35.9355C622.676 35.4439 623.92 34.915 625.276 34.3488C625.991 34.0508 626.713 33.8497 627.443 33.7454L627.488 30.7061H604.246V28.0243H638.752V30.7061Z" fill="#4E4E4E"/>
<path d="M605.028 30.7062H602.101L602.056 52.5403L597.989 50.7972V47.6014C595.575 50.7152 593.206 52.2722 590.882 52.2722C589.407 52.2722 587.798 51.6539 586.055 50.4173C584.565 49.3595 583.328 48.1229 582.345 46.7075C581.183 45.0388 580.609 43.4149 580.624 41.8356C580.639 40.3904 581.436 38.7143 583.015 36.8073C584.788 34.6618 586.926 33.5891 589.429 33.5891C591.023 33.5891 592.625 34.267 594.234 35.6228C594.726 36.0251 595.977 37.3213 597.989 39.5114V30.7062H578.859V28.0245H597.989C597.989 24.9404 597.728 22.5268 597.206 20.7837C596.432 18.1913 594.703 15.1072 592.022 11.5315C591.962 11.5017 591.932 11.3826 591.932 11.174C591.932 10.9952 591.977 10.876 592.066 10.8164H596.335C600.179 15.0625 602.101 20.7986 602.101 28.0245H605.028V30.7062ZM596.916 40.8746C596.916 39.7125 596.283 38.7143 595.016 37.88C593.884 37.135 592.707 36.7626 591.485 36.7626C590.591 36.7626 589.474 37.1797 588.133 38.0141C585.213 39.8317 583.753 41.9771 583.753 44.4503C583.753 45.8061 584.118 46.9831 584.848 47.9813C585.652 49.0987 586.703 49.6574 587.999 49.6574C589.34 49.6574 590.77 49.0466 592.29 47.8249C593.348 46.9757 594.331 45.9328 595.24 44.6962C596.357 43.1765 596.916 41.9026 596.916 40.8746Z" fill="#4E4E4E"/>
<path d="M583.164 28.2309H561.239V33.4983C561.326 33.4983 561.414 33.5422 561.502 33.63C561.59 33.7178 561.667 33.7617 561.732 33.7617C561.557 33.7617 561.458 33.7507 561.436 33.7288C561.436 33.619 563.071 33.2679 566.341 32.6753C567.548 32.4558 568.745 32.3461 569.93 32.3461C574.868 32.3461 578.039 33.7288 579.444 36.4942C580.388 38.3378 580.86 42.0579 580.86 47.6545V60.3292C580.399 60.1536 578.654 59.4403 575.625 58.1893C575.625 57.487 575.483 57.0371 575.197 56.8396C574.034 57.5199 573.079 58.0357 572.333 58.3869C569.963 59.5062 567.208 60.0658 564.07 60.0658C559.746 60.0658 556.41 58.7051 554.062 55.9836C552.92 54.6667 552.35 53.1963 552.35 51.5721C552.35 49.7505 553.25 47.9398 555.049 46.1401C558.539 42.6505 562.874 40.9056 568.053 40.9056C571.192 40.9056 573.716 41.6299 575.625 43.0784V40.0497C574.659 38.8206 573.716 37.9976 572.794 37.5806C571.894 37.1636 570.654 36.977 569.074 37.0209C565.54 37.0867 562.303 37.7342 559.362 38.9633C558.045 39.512 556.761 40.0058 555.51 40.4447V38.0085C555.796 37.7671 556.213 37.405 556.761 36.9221C556.849 36.8124 556.904 36.7466 556.926 36.7246V28.2309H550.177V24.2803H583.164V28.2309ZM575.625 49.0701C575.625 48.1044 574.473 47.2375 572.168 46.4693C570.259 45.8328 568.668 45.5146 567.395 45.5146C562.764 45.5146 559.055 47.1826 556.267 50.5187C555.148 51.8575 554.588 52.9548 554.588 53.8108C555.049 55.413 556.86 56.214 560.02 56.214C564.103 56.214 567.834 55.1935 571.214 53.1524C574.155 51.3746 575.625 50.0139 575.625 49.0701Z" fill="#0B59D5"/>
</g>
<defs>
<filter id="filter0_d_914_73" x="0.258092" y="18.2581" width="667.008" height="173.226" filterUnits="userSpaceOnUse" color-interpolation-filters="sRGB">
<feFlood flood-opacity="0" result="BackgroundImageFix"/>
<feColorMatrix in="SourceAlpha" type="matrix" values="0 0 0 0 0 0 0 0 0 0 0 0 0 0 0 0 0 0 127 0" result="hardAlpha"/>
<feOffset dx="1.87095" dy="1.87095"/>
<feGaussianBlur stdDeviation="2.80643"/>
<feComposite in2="hardAlpha" operator="out"/>
<feColorMatrix type="matrix" values="0 0 0 0 0 0 0 0 0 0 0 0 0 0 0 0 0 0 0.18 0"/>
<feBlend mode="normal" in2="BackgroundImageFix" result="effect1_dropShadow_914_73"/>
<feBlend mode="normal" in="SourceGraphic" in2="effect1_dropShadow_914_73" result="shape"/>
</filter>
<filter id="filter1_d_914_73" x="548.177" y="8.81641" width="126.823" height="55.5128" filterUnits="userSpaceOnUse" color-interpolation-filters="sRGB">
<feFlood flood-opacity="0" result="BackgroundImageFix"/>
<feColorMatrix in="SourceAlpha" type="matrix" values="0 0 0 0 0 0 0 0 0 0 0 0 0 0 0 0 0 0 127 0" result="hardAlpha"/>
<feOffset dx="1" dy="1"/>
<feGaussianBlur stdDeviation="1.5"/>
<feComposite in2="hardAlpha" operator="out"/>
<feColorMatrix type="matrix" values="0 0 0 0 0 0 0 0 0 0 0 0 0 0 0 0 0 0 0.18 0"/>
<feBlend mode="normal" in2="BackgroundImageFix" result="effect1_dropShadow_914_73"/>
<feBlend mode="normal" in="SourceGraphic" in2="effect1_dropShadow_914_73" result="shape"/>
</filter>
</defs>
</svg>
