<svg width="49" height="154" viewBox="0 0 49 154" fill="none" xmlns="http://www.w3.org/2000/svg">
<g opacity="0.6">
<path d="M-41.8303 20.4407L-0.442874 3.9032L40.9446 20.4407L-0.442874 36.9782L-41.8303 20.4407Z" fill="#555555" stroke="#555555" stroke-width="7.55682" stroke-linejoin="round"/>
<path d="M40.9443 20.6572L40.9443 38.8154L40.9443 20.6572Z" fill="#555555"/>
<path d="M40.9443 20.6572L40.9443 38.8154" stroke="#555555" stroke-width="7.55682" stroke-linecap="round" stroke-linejoin="round"/>
<path d="M-23.0181 29.1527L-23.0181 53.6467C-23.0181 53.6467 -13.5482 62.9654 -0.443 62.9654C12.6622 62.9654 22.1321 53.6467 22.1321 53.6467L22.1321 29.1527" fill="#555555"/>
<path d="M-23.0181 29.1527L-23.0181 53.6467C-23.0181 53.6467 -13.5482 62.9654 -0.443 62.9654C12.6622 62.9654 22.1321 53.6467 22.1321 53.6467L22.1321 29.1527" stroke="#555555" stroke-width="7.55682" stroke-linecap="round" stroke-linejoin="round"/>
<path d="M1.29647 124.487L-0.516228 121.768L-2.30634 124.502C-4.57975 127.974 -7.7243 130.83 -11.4082 132.775L-13.996 134.142L-11.9267 136.211L-2.02671 146.111L-0.5 147.638L1.02671 146.111L10.9267 136.211L12.996 134.142L10.4082 132.775C6.73413 130.835 3.62539 127.98 1.29647 124.487ZM-45.5561 100.47L-45.5489 100.455L-45.542 100.438C-45.4022 100.114 -45.2618 99.7886 -45.1211 99.4626C-40.6478 89.0986 -35.8389 77.9569 -39.8623 64.0633C-28.3496 71.4994 -13.8346 76.9539 -0.506428 76.9936L-0.493576 76.9935C12.8346 76.9539 27.3496 71.4994 38.8623 64.0633C34.8389 77.9569 39.6478 89.0986 44.1211 99.4626C44.2618 99.7886 44.4022 100.114 44.542 100.438L44.5489 100.455L44.5561 100.47C46.0596 103.812 46.8409 107.246 46.8409 110.834C46.8409 117.423 44.2238 123.741 39.5652 128.4C34.9185 133.046 28.6204 135.662 22.0504 135.675C21.1107 135.63 20.2828 135.588 19.4703 135.472L18.4016 135.319L17.6383 136.083L4.32924 149.392L4.31829 149.403L-0.5 154.153L-5.31829 149.403L-5.32924 149.392L-18.6383 136.083L-19.4016 135.319L-20.4703 135.472C-21.2828 135.588 -22.1107 135.63 -23.0504 135.675C-29.6204 135.662 -35.9185 133.046 -40.5652 128.4C-45.2238 123.741 -47.8409 117.423 -47.8409 110.834C-47.8409 107.246 -47.0596 103.812 -45.5561 100.47ZM17.1628 108.247C18.4457 106.964 20.1857 106.244 22 106.244C23.8143 106.244 25.5543 106.964 26.8372 108.247C28.1202 109.53 28.8409 111.27 28.8409 113.084C28.8409 114.899 28.1202 116.639 26.8372 117.922C25.5543 119.205 23.8143 119.925 22 119.925C20.1857 119.925 18.4457 119.205 17.1628 117.922C15.8798 116.639 15.1591 114.899 15.1591 113.084C15.1591 111.27 15.8798 109.53 17.1628 108.247ZM-27.8373 108.247C-26.5543 106.964 -24.8143 106.244 -23 106.244C-21.1857 106.244 -19.4457 106.964 -18.1627 108.247C-16.8798 109.53 -16.1591 111.27 -16.1591 113.084C-16.1591 114.899 -16.8798 116.639 -18.1627 117.922C-19.4457 119.205 -21.1857 119.925 -23 119.925C-24.8143 119.925 -26.5543 119.205 -27.8373 117.922C-29.1202 116.639 -29.8409 114.899 -29.8409 113.084C-29.8409 111.27 -29.1202 109.53 -27.8373 108.247ZM36.2546 96.5798C32.4741 92.7993 27.3465 90.6754 22 90.6754C16.6535 90.6754 11.5259 92.7993 7.74537 96.5798C3.96481 100.36 1.84091 105.488 1.84091 110.834C1.84091 116.181 3.96481 121.309 7.74537 125.089C11.5259 128.87 16.6535 130.994 22 130.994C27.3465 130.994 32.4741 128.87 36.2546 125.089C40.0352 121.309 42.1591 116.181 42.1591 110.834C42.1591 105.488 40.0352 100.36 36.2546 96.5798ZM-8.74537 96.5798C-12.5259 92.7993 -17.6535 90.6754 -23 90.6754C-28.3465 90.6754 -33.4741 92.7993 -37.2546 96.5798C-41.0352 100.36 -43.1591 105.488 -43.1591 110.834C-43.1591 116.181 -41.0352 121.309 -37.2546 125.089C-33.4741 128.87 -28.3465 130.994 -23 130.994C-17.6535 130.994 -12.5259 128.87 -8.74537 125.089C-4.96481 121.309 -2.84091 116.181 -2.84091 110.834C-2.84091 105.488 -4.96481 100.36 -8.74537 96.5798Z" fill="#555555" stroke="#555555" stroke-width="4.31818"/>
</g>
</svg>
