<svg width="50" height="154" viewBox="0 0 50 154" fill="none" xmlns="http://www.w3.org/2000/svg">
<g opacity="0.6">
<path d="M8.16943 20.4407L49.5569 3.9032L90.9443 20.4407L49.5569 36.9782L8.16943 20.4407Z" fill="#555555" stroke="#555555" stroke-width="7.55682" stroke-linejoin="round"/>
<path d="M26.9814 29.1527L26.9814 53.6467C26.9814 53.6467 36.4513 62.9654 49.5565 62.9654C62.6617 62.9654 72.1316 53.6467 72.1316 53.6467V29.1527" fill="#555555"/>
<path d="M26.9814 29.1527L26.9814 53.6467C26.9814 53.6467 36.4513 62.9654 49.5565 62.9654C62.6617 62.9654 72.1316 53.6467 72.1316 53.6467V29.1527" stroke="#555555" stroke-width="7.55682" stroke-linecap="round" stroke-linejoin="round"/>
<path d="M51.2965 124.487L49.4838 121.768L47.6937 124.502C45.4202 127.974 42.2757 130.83 38.5918 132.775L36.004 134.142L38.0733 136.211L47.9733 146.111L49.5 147.638L51.0267 146.111L60.9267 136.211L62.996 134.142L60.4082 132.775C56.7341 130.835 53.6254 127.98 51.2965 124.487ZM4.44392 100.47L4.4511 100.455L4.45802 100.438C4.59779 100.114 4.73817 99.7886 4.87889 99.4626C9.3522 89.0986 14.1611 77.9569 10.1377 64.0633C21.6504 71.4994 36.1654 76.9539 49.4936 76.9936L49.5064 76.9935C62.8346 76.9539 77.3496 71.4994 88.8623 64.0633C84.8389 77.9569 89.6478 89.0986 94.1211 99.4626C94.2618 99.7886 94.4022 100.114 94.542 100.438L94.5489 100.455L94.5561 100.47C96.0596 103.812 96.8409 107.246 96.8409 110.834C96.8409 117.423 94.2237 123.741 89.5652 128.4C84.9185 133.046 78.6204 135.662 72.0504 135.675C71.1106 135.63 70.2828 135.588 69.4703 135.472L68.4016 135.319L67.6383 136.083L54.3292 149.392L54.3183 149.403L49.5 154.153L44.6817 149.403L44.6708 149.392L31.3617 136.083L30.5984 135.319L29.5297 135.472C28.7172 135.588 27.8893 135.63 26.9496 135.675C20.3796 135.662 14.0815 133.046 9.43482 128.4C4.77625 123.741 2.15909 117.423 2.15909 110.834C2.15909 107.246 2.94038 103.812 4.44392 100.47ZM67.1627 108.247C68.4457 106.964 70.1857 106.244 72 106.244C73.8143 106.244 75.5543 106.964 76.8372 108.247C78.1202 109.53 78.8409 111.27 78.8409 113.084C78.8409 114.899 78.1202 116.639 76.8372 117.922C75.5543 119.205 73.8143 119.925 72 119.925C70.1857 119.925 68.4457 119.205 67.1628 117.922C65.8798 116.639 65.1591 114.899 65.1591 113.084C65.1591 111.27 65.8798 109.53 67.1627 108.247ZM22.1627 108.247C23.4457 106.964 25.1857 106.244 27 106.244C28.8143 106.244 30.5543 106.964 31.8373 108.247C33.1202 109.53 33.8409 111.27 33.8409 113.084C33.8409 114.899 33.1202 116.639 31.8373 117.922C30.5543 119.205 28.8143 119.925 27 119.925C25.1857 119.925 23.4457 119.205 22.1627 117.922C20.8798 116.639 20.1591 114.899 20.1591 113.084C20.1591 111.27 20.8798 109.53 22.1627 108.247ZM86.2546 96.5798C82.4741 92.7993 77.3465 90.6754 72 90.6754C66.6535 90.6754 61.5259 92.7993 57.7454 96.5798C53.9648 100.36 51.8409 105.488 51.8409 110.834C51.8409 116.181 53.9648 121.309 57.7454 125.089C61.5259 128.87 66.6535 130.994 72 130.994C77.3465 130.994 82.4741 128.87 86.2546 125.089C90.0352 121.309 92.1591 116.181 92.1591 110.834C92.1591 105.488 90.0352 100.36 86.2546 96.5798ZM41.2546 96.5798C37.4741 92.7993 32.3465 90.6754 27 90.6754C21.6535 90.6754 16.5259 92.7993 12.7454 96.5798C8.96481 100.36 6.84091 105.488 6.84091 110.834C6.84091 116.181 8.96481 121.309 12.7454 125.089C16.5259 128.87 21.6535 130.994 27 130.994C32.3465 130.994 37.4741 128.87 41.2546 125.089C45.0352 121.309 47.1591 116.181 47.1591 110.834C47.1591 105.488 45.0352 100.36 41.2546 96.5798Z" fill="#555555" stroke="#555555" stroke-width="4.31818"/>
</g>
</svg>
