<svg width="43" height="138" viewBox="0 0 43 138" fill="none" xmlns="http://www.w3.org/2000/svg">
<path d="M9.50684 18.4185L45.2778 4L81.0488 18.4185L45.2778 32.837L9.50684 18.4185Z" fill="#555555" stroke="#555555" stroke-width="7.55682" stroke-linejoin="round"/>
<path d="M25.7661 26.0143L25.7661 47.3698C25.7661 47.3698 33.9509 55.4945 45.2776 55.4945C56.6044 55.4945 64.7892 47.3698 64.7892 47.3698V26.0143" fill="#555555"/>
<path d="M25.7661 26.0143L25.7661 47.3698C25.7661 47.3698 33.9509 55.4945 45.2776 55.4945C56.6044 55.4945 64.7892 47.3698 64.7892 47.3698V26.0143" stroke="#555555" stroke-width="7.55682" stroke-linecap="round" stroke-linejoin="round"/>
<path d="M44.5763 110.586L42.7638 107.868L40.9738 110.601C39.0365 113.559 36.3562 115.993 33.216 117.651L30.6273 119.017L32.6975 121.087L41.2535 129.641L42.78 131.167L44.3065 129.641L52.8625 121.087L54.9327 119.017L52.344 117.651C49.2136 115.998 46.5631 113.565 44.5763 110.586ZM4.10783 90.1198L4.11501 90.1038L4.12193 90.0878C4.24483 89.8025 4.36834 89.5164 4.49218 89.2296C8.27793 80.4619 12.3781 70.966 9.24879 59.2025C19.1292 65.4395 31.4354 69.9749 42.7736 70.0087L42.7864 70.0086C54.1246 69.9749 66.4308 65.4395 76.3112 59.2025C73.1819 70.966 77.2821 80.4619 81.0678 89.2296C81.1917 89.5164 81.3152 89.8025 81.4381 90.0878L81.445 90.1038L81.4522 90.1198C82.7357 92.9714 83.4009 95.8975 83.4009 98.9536C83.4009 104.568 81.1701 109.952 77.199 113.922C73.2397 117.88 67.8738 120.109 62.2756 120.122C61.4649 120.084 60.7651 120.048 60.0806 119.95L59.0121 119.797L58.2488 120.56L46.7481 132.058L46.7371 132.069L42.78 135.969L38.8229 132.069L38.8119 132.058L27.3112 120.56L26.5479 119.797L25.4794 119.95C24.7949 120.048 24.0951 120.084 23.2844 120.122C17.6862 120.109 12.3203 117.88 8.36102 113.922C4.38992 109.952 2.15909 104.568 2.15909 98.9536C2.15909 95.8975 2.82426 92.9714 4.10783 90.1198ZM58.2519 96.926C59.3057 95.8726 60.735 95.2807 62.2255 95.2807C63.7159 95.2807 65.1452 95.8726 66.199 96.926C67.2527 97.9795 67.8445 99.4081 67.8445 100.898C67.8445 102.387 67.2527 103.816 66.199 104.869C65.1452 105.923 63.7159 106.514 62.2255 106.514C60.735 106.514 59.3057 105.923 58.2519 104.869C57.1982 103.816 56.6064 102.387 56.6064 100.898C56.6064 99.4081 57.1982 97.9795 58.2519 96.926ZM19.361 96.926C20.4148 95.8726 21.8441 95.2807 23.3345 95.2807C24.825 95.2807 26.2543 95.8726 27.3081 96.926C28.3618 97.9795 28.9536 99.4081 28.9536 100.898C28.9536 102.387 28.3618 103.816 27.3081 104.869C26.2543 105.923 24.825 106.514 23.3345 106.514C21.8441 106.514 20.4148 105.923 19.361 104.869C18.3073 103.816 17.7155 102.387 17.7155 100.898C17.7155 99.4081 18.3073 97.9795 19.361 96.926ZM74.752 86.4297C71.4296 83.1083 66.9237 81.2425 62.2255 81.2425C57.5272 81.2425 53.0213 83.1083 49.6989 86.4297C46.3766 89.7512 44.51 94.2561 44.51 98.9536C44.51 103.651 46.3766 108.156 49.6989 111.477C53.0213 114.799 57.5272 116.665 62.2255 116.665C66.9237 116.665 71.4296 114.799 74.752 111.477C78.0743 108.156 79.9409 103.651 79.9409 98.9536C79.9409 94.2561 78.0743 89.7512 74.752 86.4297ZM35.861 86.4297C32.5387 83.1083 28.0328 81.2425 23.3345 81.2425C18.6363 81.2425 14.1304 83.1083 10.808 86.4297C7.48568 89.7512 5.61909 94.2561 5.61909 98.9536C5.61909 103.651 7.48568 108.156 10.808 111.477C14.1304 114.799 18.6363 116.665 23.3345 116.665C28.0328 116.665 32.5387 114.799 35.861 111.477C39.1834 108.156 41.05 103.651 41.05 98.9536C41.05 94.2561 39.1834 89.7512 35.861 86.4297Z" fill="#555555" stroke="#555555" stroke-width="4.31818"/>
</svg>
