<svg width="42" height="139" viewBox="0 0 42 139" fill="none" xmlns="http://www.w3.org/2000/svg">
<path d="M-34.4958 18.4185L1.26515 4L37.0262 18.4185L1.26515 32.837L-34.4958 18.4185Z" fill="#555555" stroke="#555555" stroke-width="6.5291" stroke-linejoin="round"/>
<path d="M37.0259 18.6073L37.0259 34.4388Z" fill="#555555"/>
<path d="M37.0259 18.6073L37.0259 34.4388" stroke="#555555" stroke-width="6.5291" stroke-linecap="round" stroke-linejoin="round"/>
<path d="M-18.241 26.0143L-18.241 47.3698C-18.241 47.3698 -10.0585 55.4945 1.26512 55.4945C12.5887 55.4945 20.7712 47.3698 20.7712 47.3698L20.7712 26.0143" fill="#555555"/>
<path d="M-18.241 26.0143L-18.241 47.3698C-18.241 47.3698 -10.0585 55.4945 1.26512 55.4945C12.5887 55.4945 20.7712 47.3698 20.7712 47.3698L20.7712 26.0143" stroke="#555555" stroke-width="6.5291" stroke-linecap="round" stroke-linejoin="round"/>
<path d="M0.320202 110.749L-1.24597 108.4L-2.79263 110.762C-4.75686 113.762 -7.47376 116.23 -10.6567 117.91L-12.8925 119.091L-11.1046 120.879L-2.55103 129.433L-1.23195 130.752L0.0871277 129.433L8.64074 120.879L10.4286 119.091L8.19278 117.91C5.01834 116.234 2.33239 113.768 0.320202 110.749ZM-40.1604 89.9991L-40.1542 89.9853L-40.1483 89.9714C-40.0275 89.691 -39.9062 89.41 -39.7846 89.1283C-35.9197 80.1738 -31.7648 70.5474 -35.241 58.5432C-25.294 64.968 -12.7531 69.6807 -1.2375 69.715L-1.2264 69.715C10.2892 69.6807 22.8301 64.968 32.7771 58.5432C29.3009 70.5474 33.4558 80.1738 37.3207 89.1283C37.4423 89.41 37.5636 89.691 37.6844 89.9714L37.6903 89.9853L37.6965 89.9991C38.9956 92.8859 39.6706 95.8531 39.6706 98.9536C39.6706 104.646 37.4094 110.105 33.3844 114.13C29.3696 118.145 23.928 120.405 18.2515 120.416C17.4396 120.377 16.7244 120.341 16.0224 120.241L15.0991 120.109L14.4396 120.768L2.94051 132.267L2.93106 132.277L-1.23195 136.381L-5.39496 132.277L-5.40442 132.267L-16.9035 120.768L-17.563 120.109L-18.4863 120.241C-19.1883 120.341 -19.9036 120.377 -20.7154 120.416C-26.392 120.405 -31.8335 118.145 -35.8483 114.13C-39.8733 110.105 -42.1345 104.646 -42.1345 98.9536C-42.1345 95.8531 -41.4595 92.8859 -40.1604 89.9991ZM14.0287 96.7182C15.1371 95.6097 16.6405 94.987 18.2081 94.987C19.7756 94.987 21.279 95.6097 22.3875 96.7182C23.4959 97.8266 24.1186 99.33 24.1186 100.898C24.1186 102.465 23.4959 103.969 22.3875 105.077C21.279 106.185 19.7757 106.808 18.2081 106.808C16.6405 106.808 15.1371 106.185 14.0287 105.077C12.9202 103.969 12.2975 102.465 12.2975 100.898C12.2975 99.33 12.9202 97.8266 14.0287 96.7182ZM-24.8514 96.7182C-23.7429 95.6097 -22.2395 94.987 -20.672 94.987C-19.1044 94.987 -17.601 95.6097 -16.4926 96.7182C-15.3841 97.8266 -14.7614 99.33 -14.7614 100.898C-14.7614 102.465 -15.3841 103.969 -16.4926 105.077C-17.601 106.185 -19.1044 106.808 -20.672 106.808C-22.2395 106.808 -23.7429 106.185 -24.8514 105.077C-25.9598 103.969 -26.5825 102.465 -26.5825 100.898C-26.5825 99.33 -25.9598 97.8266 -24.8514 96.7182ZM30.5241 86.6376C27.2577 83.3712 22.8275 81.5361 18.2081 81.5361C13.5887 81.5361 9.15847 83.3712 5.89206 86.6376C2.62565 89.904 0.7906 94.3342 0.7906 98.9536C0.7906 103.573 2.62565 108.003 5.89206 111.27C9.15847 114.536 13.5887 116.371 18.2081 116.371C22.8275 116.371 27.2577 114.536 30.5241 111.27C33.7905 108.003 35.6255 103.573 35.6255 98.9536C35.6255 94.3342 33.7905 89.904 30.5241 86.6376ZM-8.35596 86.6376C-11.6224 83.3712 -16.0526 81.5361 -20.672 81.5361C-25.2914 81.5361 -29.7216 83.3712 -32.988 86.6376C-36.2544 89.904 -38.0894 94.3342 -38.0894 98.9536C-38.0894 103.573 -36.2544 108.003 -32.988 111.27C-29.7216 114.536 -25.2914 116.371 -20.672 116.371C-16.0526 116.371 -11.6224 114.536 -8.35596 111.27C-5.08955 108.003 -3.2545 103.573 -3.2545 98.9536C-3.2545 94.3342 -5.08955 89.904 -8.35596 86.6376Z" fill="#555555" stroke="#555555" stroke-width="3.73091"/>
</svg>
