<svg width="365" height="101" viewBox="0 0 365 101" fill="none" xmlns="http://www.w3.org/2000/svg">
<g filter="url(#filter0_d_296_116)">
<path d="M350.507 24.9313H325.089V44.3966C325.089 45.6922 325.363 47.0284 325.909 48.405C327.023 51.219 328.865 52.626 331.436 52.626C334.898 52.626 337.53 51.1785 339.332 48.2835C340.728 46.0566 341.427 43.9613 341.427 41.9976V29.9115H347.591V55.7842C347.106 55.5008 346.195 55.0655 344.858 54.4784L341.366 52.9297V50.5003C338.977 52.2414 336.933 53.3447 335.232 53.8103C334.2 54.0938 332.975 54.2355 331.558 54.2355C327.063 54.2355 323.551 52.2616 321.02 48.3139C319.866 46.5121 319.289 44.5484 319.289 42.4227V24.9313H315.615V21.2872H350.507V24.9313Z" fill="black"/>
</g>
<g filter="url(#filter1_d_296_116)">
<path d="M316.799 24.9313H292.293V34.0718C294.5 31.6627 296.544 30.114 298.427 29.4257C299.48 29.041 300.664 28.8487 301.98 28.8487C306.92 28.8487 310.614 31.278 313.064 36.1368C314.137 38.2625 314.674 40.3578 314.674 42.4228C314.674 46.1883 313.125 49.5894 310.027 52.6261C308.995 53.6383 308.226 54.3368 307.719 54.7214L302.739 51.7454C303.994 50.4295 305.422 48.81 307.021 46.8867C308.823 44.7205 309.734 41.9875 309.754 38.6876C309.774 36.7239 309.329 35.084 308.418 33.7681C307.385 32.2295 305.928 31.4805 304.045 31.521C302.304 31.5615 300.441 32.2194 298.457 33.4948C296.676 34.6285 295.198 35.9849 294.024 37.564C292.748 39.2646 292.111 40.9044 292.111 42.4835V54.5392L286.432 51.5025V24.9313H283.092V21.2873H286.432C286.432 15.3353 284.883 10.2539 281.786 6.04303C279.923 3.51244 278.203 1.73091 276.624 0.698429L282.758 0.637695C286.159 2.50021 288.862 6.51878 290.866 12.6934C291.817 15.6289 292.293 18.4935 292.293 21.2873H316.799V24.9313Z" fill="black"/>
</g>
<g filter="url(#filter2_d_296_116)">
<path d="M283.821 24.9313H263.9V32.766C265.094 32.0777 267.048 31.1768 269.761 30.0634C270.874 29.7597 272.22 29.6079 273.799 29.6079C275.966 29.6079 277.899 30.2051 279.6 31.3995C281.503 32.7154 282.454 34.416 282.454 36.5012C282.454 39.3152 280.845 41.3599 277.626 42.6353C276.29 43.1617 275.136 43.4249 274.164 43.4249L281.209 51.9884L277.352 54.7822L266.511 41.9065L268.516 37.7462C269.589 38.0499 270.712 38.2017 271.886 38.2017C273.607 38.2017 275.014 37.7968 276.107 36.9871C277.342 36.0963 277.96 34.8209 277.96 33.1608C277.96 31.5412 276.806 30.7315 274.498 30.7315C272.878 30.7315 271.158 31.5109 269.336 33.0697C268.04 34.1832 266.856 35.5294 265.783 37.1085C264.487 39.0115 263.839 40.6412 263.839 41.9976V54.7214L258.616 52.3832V24.9313H254.759V21.2873H258.434C258.434 15.4771 257.381 10.6487 255.276 6.80222C254.871 6.05316 254.091 4.92958 252.937 3.43148C251.844 1.9941 251.085 0.850277 250.66 0H256.824C258.019 1.11346 259.254 2.9456 260.529 5.49644C262.695 9.8288 263.778 15.0924 263.778 21.2873H283.821V24.9313Z" fill="black"/>
</g>
<g filter="url(#filter3_d_296_116)">
<path d="M255.883 24.9313H235.962V32.766C237.157 32.0777 239.11 31.1768 241.823 30.0634C242.936 29.7597 244.283 29.6079 245.862 29.6079C248.028 29.6079 249.961 30.2051 251.662 31.3995C253.565 32.7154 254.516 34.416 254.516 36.5012C254.516 39.3152 252.907 41.3599 249.688 42.6353C248.352 43.1617 247.198 43.4249 246.226 43.4249L253.271 51.9884L249.415 54.7822L238.574 41.9065L240.578 37.7462C241.651 38.0499 242.774 38.2017 243.949 38.2017C245.669 38.2017 247.076 37.7968 248.17 36.9871C249.405 36.0963 250.022 34.8209 250.022 33.1608C250.022 31.5412 248.868 30.7315 246.56 30.7315C244.941 30.7315 243.22 31.5109 241.398 33.0697C240.102 34.1832 238.918 35.5294 237.845 37.1085C236.549 39.0115 235.901 40.6412 235.901 41.9976V54.7214L230.678 52.3832V24.9313H226.822V21.2873H230.496C230.496 15.4771 229.443 10.6487 227.338 6.80222C226.933 6.05316 226.154 4.92958 225 3.43148C223.906 1.9941 223.147 0.850277 222.722 0H228.887C230.081 1.11346 231.316 2.9456 232.591 5.49644C234.758 9.8288 235.841 15.0924 235.841 21.2873H255.883V24.9313Z" fill="black"/>
</g>
<g filter="url(#filter4_d_296_116)">
<path d="M227.672 24.9313H207.447V29.79C207.528 29.79 207.609 29.8305 207.69 29.9115C207.771 29.9925 207.842 30.0329 207.903 30.0329C207.741 30.0329 207.65 30.0228 207.63 30.0026C207.63 29.9014 209.138 29.5774 212.154 29.0308C213.268 28.8284 214.371 28.7272 215.464 28.7272C220.019 28.7272 222.945 30.0026 224.24 32.5534C225.111 34.254 225.546 37.6854 225.546 42.8478V54.5392C225.121 54.3772 223.512 53.7192 220.718 52.5653C220.718 51.9175 220.586 51.5024 220.323 51.3202C219.25 51.9478 218.369 52.4236 217.681 52.7475C215.495 53.78 212.954 54.2962 210.059 54.2962C206.071 54.2962 202.994 53.041 200.827 50.5307C199.775 49.316 199.248 47.9596 199.248 46.4615C199.248 44.7812 200.078 43.111 201.738 41.451C204.957 38.232 208.956 36.6226 213.733 36.6226C216.628 36.6226 218.956 37.2907 220.718 38.6268V35.833C219.827 34.6993 218.956 33.9402 218.106 33.5555C217.276 33.1709 216.132 32.9988 214.675 33.0393C211.415 33.1 208.429 33.6972 205.716 34.8309C204.502 35.3371 203.317 35.7926 202.163 36.1975V33.9503C202.427 33.7276 202.811 33.3936 203.317 32.9482C203.398 32.847 203.449 32.7862 203.469 32.766V24.9313H197.244V21.2872H227.672V24.9313ZM220.718 44.1536C220.718 43.2628 219.655 42.4632 217.529 41.7546C215.768 41.1675 214.3 40.874 213.126 40.874C208.854 40.874 205.433 42.4126 202.862 45.4898C201.829 46.7247 201.313 47.7369 201.313 48.5265C201.738 50.0043 203.409 50.7433 206.324 50.7433C210.089 50.7433 213.531 49.8019 216.649 47.9191C219.361 46.2793 220.718 45.0241 220.718 44.1536Z" fill="black"/>
</g>
<g filter="url(#filter5_d_296_116)">
<path d="M198.307 24.9313H173.801V34.0718C176.007 31.6627 178.052 30.114 179.935 29.4257C180.988 29.041 182.172 28.8487 183.488 28.8487C188.428 28.8487 192.122 31.278 194.572 36.1368C195.645 38.2625 196.181 40.3578 196.181 42.4228C196.181 46.1883 194.633 49.5894 191.535 52.6261C190.503 53.6383 189.733 54.3368 189.227 54.7214L184.247 51.7454C185.502 50.4295 186.929 48.81 188.529 46.8867C190.331 44.7205 191.242 41.9875 191.262 38.6876C191.282 36.7239 190.837 35.084 189.926 33.7681C188.893 32.2295 187.436 31.4805 185.553 31.521C183.812 31.5615 181.949 32.2194 179.965 33.4948C178.184 34.6285 176.706 35.9849 175.532 37.564C174.256 39.2646 173.619 40.9044 173.619 42.4835V54.5392L167.94 51.5025V24.9313H164.6V21.2873H167.94C167.94 15.3353 166.391 10.2539 163.294 6.04303C161.431 3.51244 159.71 1.73091 158.131 0.698429L164.265 0.637695C167.667 2.50021 170.369 6.51878 172.373 12.6934C173.325 15.6289 173.801 18.4935 173.801 21.2873H198.307V24.9313Z" fill="black"/>
</g>
<g filter="url(#filter6_d_296_116)">
<path d="M165.42 24.9313H159.073V33.4037C160.409 34.6386 161.219 35.4383 161.502 35.8027C162.008 36.4505 162.525 37.4526 163.051 38.809H159.012C159.012 36.6023 158.385 34.8815 157.129 33.6466C155.894 32.4117 154.174 31.7942 151.967 31.7942C149.659 31.7942 147.503 32.4319 145.499 33.7074C143.576 34.922 142.027 36.5619 140.853 38.6268C139.739 40.5905 139.182 42.4936 139.182 44.3358C139.182 46.502 139.962 48.1519 141.521 49.2856C142.897 50.2979 144.709 50.804 146.956 50.804C150.702 50.804 153.313 49.7715 154.791 47.7066H161.259C160.713 49.893 158.698 51.7353 155.216 53.2334C153.657 53.9014 152.21 54.2355 150.874 54.2355C148.262 54.2355 145.63 53.4965 142.978 52.0187C140.448 50.6218 138.363 48.8301 136.723 46.6437C135.083 44.437 134.263 42.2607 134.263 40.1148C134.263 38.4952 134.982 36.6631 136.419 34.6184C139.436 30.3265 143.11 28.1806 147.442 28.1806C150.297 28.1806 152.554 28.7778 154.214 29.9722V24.9313H132.775V21.2872H165.42V24.9313Z" fill="black"/>
</g>
<g filter="url(#filter7_d_296_116)">
<path d="M76.3532 16.3862L76.3532 21.2578L46.2394 21.4793L46.2394 44.7219C46.2394 48.1807 46.7746 50.695 47.845 52.2648C49.0581 53.9942 51.1751 54.9387 54.196 55.0983C56.1227 55.2047 58.0494 54.4997 59.9762 52.9831C61.6888 51.6528 63.1041 49.9633 64.2221 47.9146C65.4352 45.6797 66.0417 43.498 66.0417 41.3695L65.9704 26.3237L73.4275 29.1971V70.0643C73.4275 75.0397 71.3818 79.0972 67.2905 82.2367C63.5085 85.1368 59.0723 86.5868 53.9819 86.5868C45.3712 86.5868 39.2462 83.9661 35.6068 78.7247C34.132 76.5962 33.3947 74.7736 33.3947 73.2571C33.4184 69.9313 35.0835 67.1376 38.3898 64.8761C41.3156 62.8806 44.3484 61.8829 47.4882 61.8829L52.0195 68.6675C47.9283 68.9868 44.2651 69.9579 41.0301 71.5809C38.9131 72.6451 37.8546 74.0154 37.8546 75.6915C38.1163 78.1127 39.7457 80.2545 42.7428 82.117C44.5268 83.2344 46.8341 83.7932 49.6647 83.7932C56.1584 83.7932 61.0584 81.4385 64.3648 76.7292C65.9347 74.4943 66.7196 71.8869 66.7196 68.907V52.6638C65.1735 55.4841 61.0465 56.8942 54.3387 56.8942C48.7013 56.8942 44.4316 54.7391 41.5297 50.4289C40.1025 48.327 39.3889 45.9325 39.3889 43.2452V21.1754H34.3223V16.3862H76.3532Z" fill="#0B59D5"/>
</g>
<g filter="url(#filter8_d_296_116)">
<path d="M133.716 24.9313H101.072V21.2872H133.716V24.9313ZM127.187 38.2624C127.187 33.4037 124.89 30.9743 120.294 30.9743C116.893 30.9743 114.049 32.7559 111.761 36.3189C109.736 39.4771 108.724 42.8377 108.724 46.4008V55.2376L103.744 52.626V29.79H108.967V33.4037L111.67 31.3691C114.059 29.5673 116.579 28.6664 119.231 28.6664C122.835 28.6664 125.821 30.0633 128.189 32.8571C130.416 35.4889 131.53 38.6369 131.53 42.3012C131.53 46.8968 129.586 51.3101 125.699 55.5413L119.838 51.8668C121.661 50.0651 123.209 48.405 124.485 46.8867C126.286 44.7407 127.187 41.866 127.187 38.2624Z" fill="black"/>
</g>
<g filter="url(#filter9_d_296_116)">
<path d="M101.467 24.9313H81.2421V29.79C81.3231 29.79 81.404 29.8305 81.485 29.9115C81.566 29.9925 81.6369 30.0329 81.6976 30.0329C81.5356 30.0329 81.4445 30.0228 81.4243 30.0026C81.4243 29.9014 82.9325 29.5774 85.949 29.0308C87.0624 28.8284 88.1658 28.7272 89.259 28.7272C93.814 28.7272 96.7394 30.0026 98.0351 32.5534C98.9056 34.254 99.3409 37.6854 99.3409 42.8478V54.5392C98.9157 54.3772 97.3063 53.7192 94.5125 52.5653C94.5125 51.9175 94.3809 51.5024 94.1177 51.3202C93.0448 51.9478 92.1641 52.4236 91.4758 52.7475C89.2894 53.78 86.7486 54.2962 83.8537 54.2962C79.8655 54.2962 76.7883 53.041 74.6221 50.5307C73.5693 49.316 73.043 47.9596 73.043 46.4615C73.043 44.7812 73.873 43.111 75.5331 41.451C78.752 38.232 82.7503 36.6226 87.5281 36.6226C90.4231 36.6226 92.7512 37.2907 94.5125 38.6268V35.833C93.6217 34.6993 92.7512 33.9402 91.9009 33.5555C91.0709 33.1709 89.9271 32.9988 88.4694 33.0393C85.2101 33.1 82.224 33.6972 79.5112 34.8309C78.2965 35.3371 77.1122 35.7926 75.9582 36.1975V33.9503C76.2214 33.7276 76.6061 33.3936 77.1122 32.9482C77.1931 32.847 77.2438 32.7862 77.264 32.766V24.9313H71.0388V21.2872H101.467V24.9313ZM94.5125 44.1536C94.5125 43.2628 93.4496 42.4632 91.3239 41.7546C89.5627 41.1675 88.0949 40.874 86.9207 40.874C82.6491 40.874 79.2277 42.4126 76.6567 45.4898C75.6242 46.7247 75.1079 47.7369 75.1079 48.5265C75.5331 50.0043 77.2033 50.7433 80.1185 50.7433C83.884 50.7433 87.3256 49.8019 90.4433 47.9191C93.1561 46.2793 94.5125 45.0241 94.5125 44.1536Z" fill="black"/>
</g>
<g filter="url(#filter10_d_296_116)">
<path d="M40.1756 58.9499C40.1756 62.7154 38.3536 64.5981 34.7095 64.5981C33.09 64.5981 30.7416 63.8288 27.6644 62.2902C24.2633 60.5897 21.4088 59.7394 19.1009 59.7394C14.1409 59.7394 9.4644 61.693 5.0713 65.6002C2.96585 67.483 1.3159 69.6998 0.121468 72.2506C0.0404889 71.9267 0 71.4105 0 70.7019C0 68.2726 0.728809 65.8533 2.18643 63.4442C3.52258 61.2173 5.2535 59.3548 7.37919 57.8567C9.76807 56.1763 12.491 55.3362 15.5479 55.3362C17.6534 55.3362 19.4855 55.6905 21.0444 56.399C21.8744 56.7837 23.4737 57.7757 25.8424 59.375C27.8668 60.7516 29.4155 61.44 30.4885 61.44C33.1608 61.44 35.2865 60.3366 36.8656 58.13C37.5539 57.1785 37.8981 56.2472 37.8981 55.3362C37.8981 53.7369 37.4122 52.4007 36.4405 51.3277C35.4687 50.2345 34.1933 49.6879 32.6142 49.6879C31.1566 49.6879 28.7576 50.4268 25.4172 51.9047C22.0768 53.3623 19.6778 54.0911 18.2202 54.0911C17.1473 54.0911 15.8516 53.5547 14.3332 52.4817C11.1751 50.2345 9.59599 48.1392 9.59599 46.1957C9.59599 45.1227 10.1932 44.1409 11.3876 43.2501C12.4606 42.4201 13.5639 41.9544 14.6976 41.8532L14.7584 41.5192L13.2704 39.4239C12.4404 38.2497 12.0253 36.9844 12.0253 35.628C12.0253 30.9717 15.8314 28.6435 23.4434 28.6435C23.666 28.6031 23.8179 28.4209 23.8989 28.0969V24.7262H8.16874V21.0822H39.3861V24.7262H28.6058V29.8279C28.6058 30.7794 28.8791 31.3665 29.4257 31.5892C29.7698 31.5892 30.2051 31.2754 30.7315 30.6478L31.8854 29.2509C32.1891 28.9472 32.7357 28.7448 33.5252 28.6435C34.8006 28.6435 36.0153 29.3724 37.1693 30.83C37.6956 31.4981 38.0398 32.1661 38.2017 32.8342L35.0132 36.4782C34.9727 35.547 34.7804 34.6967 34.4362 33.9274C33.9706 32.8949 33.3633 32.3787 32.6142 32.3787C32.3308 32.3787 31.9967 32.5103 31.6121 32.7735C31.2274 33.0366 31.0351 33.2998 31.0351 33.563C31.0351 33.8667 31.1667 34.2311 31.4299 34.6562C31.7336 35.1623 31.9056 35.4761 31.9461 35.5976C32.0878 36.0632 32.1587 36.6503 32.1587 37.3589C32.1587 40.0919 31.0452 41.9443 28.8183 42.9161C27.3405 43.5639 25.0123 43.8878 21.8339 43.8878C17.785 43.8878 15.0216 44.7887 13.5437 46.5905C12.9566 47.299 12.6732 47.876 12.6934 48.3214C12.7137 48.9287 13.0173 49.4652 13.6044 49.9309C14.1915 50.3762 14.7989 50.5989 15.4265 50.5989C16.5804 50.5989 18.7972 49.7993 22.0768 48.1999C25.9436 46.3172 29.0613 45.3555 31.4299 45.3151C33.5961 45.2746 35.4181 46.2362 36.896 48.1999C38.0904 49.7588 38.9508 51.7428 39.4772 54.1519C39.9428 56.2776 40.1756 57.8769 40.1756 58.9499ZM28.3628 34.5651C28.3628 32.1155 27.057 30.8907 24.4455 30.8907C22.34 30.8907 20.3459 31.6296 18.4632 33.1075C16.4387 34.6866 15.4265 36.4985 15.4265 38.5432C15.4265 39.6567 15.8516 40.6082 16.7019 41.3977C17.5724 42.1873 18.5644 42.582 19.6778 42.582C20.8318 42.6023 22.1376 42.1873 23.5952 41.337C24.8909 40.5879 25.9638 39.7174 26.8141 38.7254C27.8466 37.5107 28.3628 36.124 28.3628 34.5651Z" fill="black"/>
</g>
<path d="M93.76 71.0733H89.7822V77.4015C89.7822 77.5797 89.8399 77.7527 89.9552 77.9204C90.0757 78.1038 90.2224 78.1955 90.3954 78.1955C91.1763 78.1955 91.5667 77.3884 91.5667 75.7743L93.1468 76.6783C92.5441 78.0147 91.6112 78.6803 90.3482 78.675C89.6145 78.6698 89.0433 78.3344 88.6345 77.6688C88.4563 77.3806 88.3672 77.0923 88.3672 76.8041V71.0733H86.7242V70.13H88.3672V67.4886L89.7822 68.4713V70.13H93.76V71.0733ZM102.289 71.0733H95.9453V73.4395C96.5166 72.8159 97.0459 72.4149 97.5333 72.2368C97.8058 72.1372 98.1124 72.0874 98.453 72.0874C99.7318 72.0874 100.688 72.7163 101.322 73.9741C101.6 74.5243 101.739 75.0668 101.739 75.6013C101.739 76.5761 101.338 77.4565 100.536 78.2427C100.269 78.5047 100.07 78.6855 99.9388 78.7851L98.6496 78.0147C98.9745 77.674 99.344 77.2548 99.758 76.7569C100.224 76.1961 100.46 75.4886 100.465 74.6344C100.471 74.1261 100.355 73.7016 100.12 73.3609C99.8523 72.9626 99.475 72.7687 98.9876 72.7792C98.5369 72.7897 98.0547 72.96 97.5412 73.2902C97.08 73.5836 96.6974 73.9348 96.3934 74.3435C96.0633 74.7838 95.8982 75.2083 95.8982 75.617V78.7379L94.4281 77.9518V71.0733H93.5634V70.13H94.4281C94.4281 68.5892 94.0272 67.2738 93.2254 66.1837C92.7432 65.5286 92.2978 65.0674 91.889 64.8001L93.477 64.7844C94.3574 65.2666 95.057 66.3069 95.5759 67.9053C95.8222 68.6652 95.9453 69.4068 95.9453 70.13H102.289V71.0733ZM110.488 71.0733H108.342V72.622C108.589 72.6796 108.767 72.7504 108.877 72.8342V73.7618C108.253 73.5469 107.603 73.4395 106.927 73.4395C106.44 73.4395 105.968 73.5207 105.512 73.6832C104.904 73.8981 104.598 74.2047 104.593 74.603C104.582 75.0222 105.177 75.2319 106.377 75.2319C106.403 75.2319 106.574 75.224 106.888 75.2083L107.36 75.1847V75.9079C106.647 75.9289 106.201 75.9472 106.023 75.9629C104.771 76.073 104.145 76.4346 104.145 77.0478C104.145 77.3884 104.362 77.6557 104.797 77.8496C105.138 78.0016 105.504 78.0776 105.898 78.0776C107.601 78.0776 108.979 77.3229 110.032 75.8136V77.8024C109.131 78.3737 108.065 78.6593 106.833 78.6593C105.486 78.6593 104.323 78.3475 103.343 77.7238C102.866 77.4199 102.627 77.0714 102.627 76.6783C102.627 76.2957 102.795 75.9629 103.13 75.6799C103.335 75.507 103.673 75.3078 104.145 75.0825L103.626 74.7838C103.316 74.6056 103.162 74.3671 103.162 74.0684C103.162 73.4186 103.652 72.9521 104.632 72.6691C105.376 72.4543 106.212 72.3468 107.14 72.3468V71.0733H102.101V70.13H110.488V71.0733ZM123.514 71.0733H116.935V76.1123C116.935 76.4477 117.005 76.7936 117.147 77.15C117.435 77.8784 117.912 78.2427 118.578 78.2427C119.474 78.2427 120.155 77.8679 120.621 77.1185C120.983 76.542 121.164 75.9996 121.164 75.4913V72.3625H122.76V79.0602C122.634 78.9868 122.398 78.8742 122.052 78.7222L121.148 78.3213V77.6924C120.53 78.1431 120 78.4287 119.56 78.5492C119.293 78.6226 118.976 78.6593 118.609 78.6593C117.446 78.6593 116.536 78.1483 115.881 77.1264C115.582 76.66 115.433 76.1516 115.433 75.6013V71.0733H114.482V70.13H123.514V71.0733ZM126.926 71.0733H126.093V70.13H126.926V71.0733ZM124.238 71.0733H123.341V70.13H124.238V71.0733ZM125.833 69.1788V78.8558C125.781 78.8401 125.713 78.8113 125.629 78.7694L125.22 78.5571C124.754 78.316 124.507 78.1955 124.481 78.1955V69.1945C124.481 68.6442 124.374 68.0599 124.159 67.4415C123.86 66.5768 123.396 65.7906 122.768 65.0831L122.272 64.525H123.947C124.817 65.395 125.388 66.4615 125.66 67.7245C125.776 68.259 125.833 68.7438 125.833 69.1788ZM133.757 71.0733H129.78V77.4015C129.78 77.5797 129.837 77.7527 129.953 77.9204C130.073 78.1038 130.22 78.1955 130.393 78.1955C131.174 78.1955 131.564 77.3884 131.564 75.7743L133.144 76.6783C132.542 78.0147 131.609 78.6803 130.346 78.675C129.612 78.6698 129.041 78.3344 128.632 77.6688C128.454 77.3806 128.365 77.0923 128.365 76.8041V71.0733H126.722V70.13H128.365V67.4886L129.78 68.4713V70.13H133.757V71.0733ZM136.312 69.3046C136.291 69.3255 136.231 69.336 136.131 69.336C136.048 69.336 135.974 69.3255 135.911 69.3046L135.4 68.259C135.191 67.9289 134.905 67.7061 134.543 67.5908C134.187 67.4703 133.967 67.3393 133.883 67.1978C133.805 66.9567 133.653 66.5872 133.427 66.0894V65.9086H133.734C134.137 66.0343 134.465 66.1522 134.716 66.2623C135.13 66.4457 135.408 66.658 135.55 66.8991C135.628 67.0301 135.749 67.3655 135.911 67.9053C136.063 68.4136 136.192 68.7674 136.297 68.9665C136.307 69.0609 136.312 69.1735 136.312 69.3046ZM136.776 71.0733H133.577V70.13H136.776V71.0733ZM135.88 78.8401L134.559 78.109V72.0402H135.88V78.8401ZM148.701 71.0733H146.107L146.123 72.1739C146.836 72.4359 147.349 72.7792 147.664 73.2037C147.989 73.6439 148.151 74.2387 148.151 74.9882C148.151 76.0678 147.719 76.9954 146.854 77.771C146.692 77.9177 146.443 78.109 146.107 78.3449C145.693 78.6383 145.431 78.7851 145.321 78.7851C145.211 78.7851 144.705 78.3239 143.804 77.4015C144.359 77.3701 144.939 77.1919 145.541 76.867C146.112 76.563 146.597 76.1909 146.996 75.7507C147.425 75.279 147.64 74.7785 147.64 74.2492C147.64 73.7251 147.349 73.3609 146.768 73.1565C146.485 73.0569 146.204 73.0124 145.926 73.0229C144.228 73.091 143.188 74.0789 142.806 75.9865L141.194 75.3262C141.194 74.886 141.364 74.3933 141.705 73.8483C141.831 73.6491 141.896 73.5365 141.901 73.5103C141.901 73.2639 141.548 73.1408 140.84 73.1408C139.934 73.1408 139.229 73.5391 138.726 74.3357C138.505 74.6868 138.395 75.0379 138.395 75.3891C138.395 76.1228 138.733 76.8172 139.41 77.4723L140.903 78.9187C139.991 78.6043 139.145 78.1483 138.364 77.5509C137.321 76.7543 136.8 75.9 136.8 74.9882C136.8 73.8352 137.381 72.9757 138.545 72.4097C139.053 72.1634 139.577 72.0402 140.117 72.0402C140.809 72.0402 141.501 72.2472 142.192 72.6613C142.454 72.8185 142.606 72.9023 142.648 72.9128C143.047 72.7399 143.484 72.5538 143.961 72.3547C144.213 72.2499 144.467 72.1791 144.724 72.1424L144.739 71.0733H136.564V70.13H148.701V71.0733ZM156.287 71.0733H151.052V72.3311C151.073 72.3311 151.094 72.3416 151.115 72.3625C151.136 72.3835 151.154 72.394 151.17 72.394C151.128 72.394 151.104 72.3914 151.099 72.3861C151.099 72.3599 151.489 72.2761 152.27 72.1346C152.559 72.0822 152.844 72.056 153.127 72.056C154.306 72.056 155.064 72.3861 155.399 73.0465C155.624 73.4867 155.737 74.375 155.737 75.7114V78.7379C155.627 78.696 155.21 78.5257 154.487 78.2269C154.487 78.0592 154.453 77.9518 154.385 77.9046C154.107 78.0671 153.879 78.1903 153.701 78.2741C153.135 78.5414 152.477 78.675 151.728 78.675C150.695 78.675 149.899 78.3501 149.338 77.7002C149.066 77.3858 148.929 77.0347 148.929 76.6469C148.929 76.2119 149.144 75.7795 149.574 75.3498C150.407 74.5165 151.442 74.0998 152.679 74.0998C153.429 74.0998 154.031 74.2728 154.487 74.6187V73.8955C154.257 73.602 154.031 73.4054 153.811 73.3059C153.596 73.2063 153.3 73.1618 152.923 73.1722C152.079 73.188 151.306 73.3426 150.604 73.636C150.289 73.7671 149.983 73.885 149.684 73.9898V73.4081C149.752 73.3504 149.852 73.2639 149.983 73.1487C150.004 73.1224 150.017 73.1067 150.022 73.1015V71.0733H148.411V70.13H156.287V71.0733ZM154.487 76.0494C154.487 75.8188 154.212 75.6118 153.662 75.4284C153.206 75.2764 152.826 75.2004 152.522 75.2004C151.416 75.2004 150.53 75.5987 149.865 76.3953C149.598 76.715 149.464 76.977 149.464 77.1814C149.574 77.564 150.006 77.7553 150.761 77.7553C151.736 77.7553 152.627 77.5116 153.434 77.0242C154.136 76.5997 154.487 76.2748 154.487 76.0494ZM163.221 71.0733H159.243V77.4015C159.243 77.5797 159.301 77.7527 159.416 77.9204C159.537 78.1038 159.683 78.1955 159.856 78.1955C160.637 78.1955 161.028 77.3884 161.028 75.7743L162.608 76.6783C162.005 78.0147 161.072 78.6803 159.809 78.675C159.075 78.6698 158.504 78.3344 158.095 77.6688C157.917 77.3806 157.828 77.0923 157.828 76.8041V71.0733H156.185V70.13H157.828V67.4886L159.243 68.4713V70.13H163.221V71.0733ZM171.396 71.0733H169.25V72.622C169.497 72.6796 169.675 72.7504 169.785 72.8342V73.7618C169.161 73.5469 168.511 73.4395 167.835 73.4395C167.348 73.4395 166.876 73.5207 166.42 73.6832C165.812 73.8981 165.506 74.2047 165.501 74.603C165.49 75.0222 166.085 75.2319 167.285 75.2319C167.311 75.2319 167.482 75.224 167.796 75.2083L168.268 75.1847V75.9079C167.555 75.9289 167.109 75.9472 166.931 75.9629C165.679 76.073 165.053 76.4346 165.053 77.0478C165.053 77.3884 165.27 77.6557 165.705 77.8496C166.046 78.0016 166.412 78.0776 166.806 78.0776C168.509 78.0776 169.887 77.3229 170.94 75.8136V77.8024C170.039 78.3737 168.973 78.6593 167.741 78.6593C166.394 78.6593 165.231 78.3475 164.251 77.7238C163.774 77.4199 163.535 77.0714 163.535 76.6783C163.535 76.2957 163.703 75.9629 164.038 75.6799C164.243 75.507 164.581 75.3078 165.053 75.0825L164.534 74.7838C164.224 74.6056 164.07 74.3671 164.07 74.0684C164.07 73.4186 164.56 72.9521 165.54 72.6691C166.284 72.4543 167.12 72.3468 168.048 72.3468V71.0733H163.009V70.13H171.396V71.0733ZM179.092 71.0733H178.259V70.13H179.092V71.0733ZM176.404 71.0733H175.508V70.13H176.404V71.0733ZM178 69.1788V78.8558C177.947 78.8401 177.879 78.8113 177.795 78.7694L177.387 78.5571C176.92 78.316 176.674 78.1955 176.648 78.1955V69.1945C176.648 68.6442 176.54 68.0599 176.325 67.4415C176.027 66.5768 175.563 65.7906 174.934 65.0831L174.439 64.525H176.113C176.983 65.395 177.554 66.4615 177.827 67.7245C177.942 68.259 178 68.7438 178 69.1788ZM181.624 69.3046C181.603 69.3255 181.543 69.336 181.443 69.336C181.359 69.336 181.286 69.3255 181.223 69.3046L180.712 68.259C180.502 67.9289 180.217 67.7061 179.855 67.5908C179.499 67.4703 179.279 67.3393 179.195 67.1978C179.116 66.9567 178.964 66.5872 178.739 66.0894V65.9086H179.045C179.449 66.0343 179.776 66.1522 180.028 66.2623C180.442 66.4457 180.72 66.658 180.861 66.8991C180.94 67.0301 181.06 67.3655 181.223 67.9053C181.375 68.4136 181.503 68.7674 181.608 68.9665C181.619 69.0609 181.624 69.1735 181.624 69.3046ZM182.088 71.0733H178.888V70.13H182.088V71.0733ZM181.191 78.8401L179.871 78.109V72.0402H181.191V78.8401ZM190.648 71.0733H184.674V74.0055C185.109 73.4657 185.628 72.9993 186.23 72.6062C186.639 72.339 187.048 72.2053 187.457 72.2053C188.285 72.2053 188.982 72.5224 189.548 73.1565C190.067 73.7382 190.326 74.3697 190.326 75.051C190.326 75.8372 189.946 76.6364 189.186 77.4487C188.426 78.2558 187.656 78.6593 186.875 78.6593C186.477 78.6593 186.057 78.4811 185.617 78.1247C185.481 78.0147 185.146 77.6871 184.611 77.1421V78.7536L183.243 78.1641V71.0733H181.954V70.13H183.243C183.243 68.8827 182.895 67.659 182.198 66.4588C181.647 65.5103 181.121 64.8159 180.618 64.3756H182.339C182.858 64.8159 183.311 65.374 183.699 66.0501C184.349 67.1873 184.674 68.5473 184.674 70.13H190.648V71.0733ZM189.453 75.8607C189.453 75.3734 189.181 74.8467 188.636 74.2807C188.028 73.6465 187.323 73.3295 186.521 73.3295C186.018 73.3295 185.546 73.5784 185.106 74.0763C184.933 74.2754 184.847 74.4248 184.847 74.5243C184.847 74.9593 185.041 75.4624 185.429 76.0337C186.246 77.2391 187.09 77.8417 187.96 77.8417C188.51 77.8417 188.94 77.488 189.249 76.7805C189.385 76.4713 189.453 76.1647 189.453 75.8607ZM198.454 71.0733H190.507V70.13H198.454V71.0733ZM197.802 73.8955C197.802 74.2047 197.616 74.5532 197.244 74.941C196.929 75.2712 196.599 75.5175 196.253 75.6799L195.074 74.3435C195.431 74.3121 195.769 74.1811 196.088 73.9505C196.455 73.6884 196.639 73.3897 196.639 73.0543C196.639 72.8761 196.523 72.7242 196.293 72.5984C196.093 72.4831 195.897 72.4254 195.703 72.4254C195.3 72.4254 194.867 72.6193 194.406 73.0072C193.468 73.7933 192.999 74.6632 192.999 75.617V78.9502L191.489 78.1641V72.3468H193.015V72.9443C193.24 72.7189 193.706 72.4831 194.414 72.2368C194.76 72.1162 195.116 72.056 195.483 72.056C196.243 72.056 196.887 72.3468 197.417 72.9285C197.674 73.2115 197.802 73.5338 197.802 73.8955ZM206.001 71.0733H200.766V72.3311C200.787 72.3311 200.808 72.3416 200.828 72.3625C200.849 72.3835 200.868 72.394 200.884 72.394C200.842 72.394 200.818 72.3914 200.813 72.3861C200.813 72.3599 201.203 72.2761 201.984 72.1346C202.272 72.0822 202.558 72.056 202.841 72.056C204.02 72.056 204.777 72.3861 205.113 73.0465C205.338 73.4867 205.451 74.375 205.451 75.7114V78.7379C205.341 78.696 204.924 78.5257 204.201 78.2269C204.201 78.0592 204.167 77.9518 204.099 77.9046C203.821 78.0671 203.593 78.1903 203.415 78.2741C202.849 78.5414 202.191 78.675 201.442 78.675C200.409 78.675 199.613 78.3501 199.052 77.7002C198.779 77.3858 198.643 77.0347 198.643 76.6469C198.643 76.2119 198.858 75.7795 199.288 75.3498C200.121 74.5165 201.156 74.0998 202.393 74.0998C203.142 74.0998 203.745 74.2728 204.201 74.6187V73.8955C203.97 73.602 203.745 73.4054 203.525 73.3059C203.31 73.2063 203.014 73.1618 202.637 73.1722C201.793 73.188 201.02 73.3426 200.318 73.636C200.003 73.7671 199.696 73.885 199.398 73.9898V73.4081C199.466 73.3504 199.565 73.2639 199.696 73.1487C199.717 73.1224 199.731 73.1067 199.736 73.1015V71.0733H198.124V70.13H206.001V71.0733ZM204.201 76.0494C204.201 75.8188 203.926 75.6118 203.375 75.4284C202.92 75.2764 202.54 75.2004 202.236 75.2004C201.13 75.2004 200.244 75.5987 199.579 76.3953C199.311 76.715 199.178 76.977 199.178 77.1814C199.288 77.564 199.72 77.7553 200.475 77.7553C201.45 77.7553 202.34 77.5116 203.148 77.0242C203.85 76.5997 204.201 76.2748 204.201 76.0494ZM213.847 71.0733H205.899V70.13H213.847V71.0733ZM213.194 73.8955C213.194 74.2047 213.008 74.5532 212.636 74.941C212.321 75.2712 211.991 75.5175 211.645 75.6799L210.466 74.3435C210.823 74.3121 211.161 74.1811 211.48 73.9505C211.847 73.6884 212.031 73.3897 212.031 73.0543C212.031 72.8761 211.915 72.7242 211.685 72.5984C211.486 72.4831 211.289 72.4254 211.095 72.4254C210.692 72.4254 210.259 72.6193 209.798 73.0072C208.86 73.7933 208.391 74.6632 208.391 75.617V78.9502L206.882 78.1641V72.3468H208.407V72.9443C208.632 72.7189 209.098 72.4831 209.806 72.2368C210.152 72.1162 210.508 72.056 210.875 72.056C211.635 72.056 212.28 72.3468 212.809 72.9285C213.066 73.2115 213.194 73.5338 213.194 73.8955ZM216.37 69.3046C216.349 69.3255 216.289 69.336 216.189 69.336C216.105 69.336 216.032 69.3255 215.969 69.3046L215.458 68.259C215.248 67.9289 214.963 67.7061 214.601 67.5908C214.245 67.4703 214.025 67.3393 213.941 67.1978C213.862 66.9567 213.71 66.5872 213.485 66.0894V65.9086H213.791C214.195 66.0343 214.523 66.1522 214.774 66.2623C215.188 66.4457 215.466 66.658 215.607 66.8991C215.686 67.0301 215.807 67.3655 215.969 67.9053C216.121 68.4136 216.249 68.7674 216.354 68.9665C216.365 69.0609 216.37 69.1735 216.37 69.3046ZM216.834 71.0733H213.634V70.13H216.834V71.0733ZM215.938 78.8401L214.617 78.109V72.0402H215.938V78.8401ZM224.459 71.0733H219.224V72.3311C219.244 72.3311 219.265 72.3416 219.286 72.3625C219.307 72.3835 219.326 72.394 219.341 72.394C219.3 72.394 219.276 72.3914 219.271 72.3861C219.271 72.3599 219.661 72.2761 220.442 72.1346C220.73 72.0822 221.016 72.056 221.299 72.056C222.478 72.056 223.235 72.3861 223.571 73.0465C223.796 73.4867 223.909 74.375 223.909 75.7114V78.7379C223.799 78.696 223.382 78.5257 222.659 78.2269C222.659 78.0592 222.625 77.9518 222.557 77.9046C222.279 78.0671 222.051 78.1903 221.873 78.2741C221.307 78.5414 220.649 78.675 219.9 78.675C218.867 78.675 218.071 78.3501 217.51 77.7002C217.237 77.3858 217.101 77.0347 217.101 76.6469C217.101 76.2119 217.316 75.7795 217.746 75.3498C218.579 74.5165 219.614 74.0998 220.851 74.0998C221.6 74.0998 222.203 74.2728 222.659 74.6187V73.8955C222.428 73.602 222.203 73.4054 221.983 73.3059C221.768 73.2063 221.472 73.1618 221.094 73.1722C220.251 73.188 219.478 73.3426 218.775 73.636C218.461 73.7671 218.154 73.885 217.856 73.9898V73.4081C217.924 73.3504 218.023 73.2639 218.154 73.1487C218.175 73.1224 218.188 73.1067 218.194 73.1015V71.0733H216.582V70.13H224.459V71.0733ZM222.659 76.0494C222.659 75.8188 222.384 75.6118 221.833 75.4284C221.377 75.2764 220.998 75.2004 220.694 75.2004C219.588 75.2004 218.702 75.5987 218.036 76.3953C217.769 76.715 217.636 76.977 217.636 77.1814C217.746 77.564 218.178 77.7553 218.933 77.7553C219.907 77.7553 220.798 77.5116 221.605 77.0242C222.308 76.5997 222.659 76.2748 222.659 76.0494ZM232.808 71.0733H224.357V70.13H232.808V71.0733ZM231.117 74.5243C231.117 73.2666 230.523 72.6377 229.333 72.6377C228.452 72.6377 227.716 73.0989 227.124 74.0212C226.6 74.8388 226.338 75.7088 226.338 76.6311V78.9187L225.049 78.2427V72.3311H226.401V73.2666L227.1 72.7399C227.719 72.2734 228.371 72.0402 229.058 72.0402C229.991 72.0402 230.764 72.4018 231.377 73.1251C231.953 73.8064 232.242 74.6213 232.242 75.5699C232.242 76.7595 231.738 77.902 230.732 78.9973L229.215 78.0461C229.687 77.5797 230.088 77.15 230.418 76.7569C230.884 76.2014 231.117 75.4572 231.117 74.5243ZM244.694 71.0733H239.458V72.3311C239.479 72.3311 239.5 72.3416 239.521 72.3625C239.542 72.3835 239.56 72.394 239.576 72.394C239.534 72.394 239.51 72.3914 239.505 72.3861C239.505 72.3599 239.896 72.2761 240.677 72.1346C240.965 72.0822 241.25 72.056 241.533 72.056C242.713 72.056 243.47 72.3861 243.805 73.0465C244.031 73.4867 244.143 74.375 244.143 75.7114V78.7379C244.033 78.696 243.617 78.5257 242.893 78.2269C242.893 78.0592 242.859 77.9518 242.791 77.9046C242.513 78.0671 242.285 78.1903 242.107 78.2741C241.541 78.5414 240.884 78.675 240.134 78.675C239.102 78.675 238.305 78.3501 237.744 77.7002C237.472 77.3858 237.336 77.0347 237.336 76.6469C237.336 76.2119 237.55 75.7795 237.98 75.3498C238.813 74.5165 239.848 74.0998 241.085 74.0998C241.835 74.0998 242.437 74.2728 242.893 74.6187V73.8955C242.663 73.602 242.437 73.4054 242.217 73.3059C242.002 73.2063 241.706 73.1618 241.329 73.1722C240.485 73.188 239.712 73.3426 239.01 73.636C238.696 73.7671 238.389 73.885 238.09 73.9898V73.4081C238.158 73.3504 238.258 73.2639 238.389 73.1487C238.41 73.1224 238.423 73.1067 238.428 73.1015V71.0733H236.817V70.13H244.694V71.0733ZM242.893 76.0494C242.893 75.8188 242.618 75.6118 242.068 75.4284C241.612 75.2764 241.232 75.2004 240.928 75.2004C239.822 75.2004 238.937 75.5987 238.271 76.3953C238.004 76.715 237.87 76.977 237.87 77.1814C237.98 77.564 238.413 77.7553 239.167 77.7553C240.142 77.7553 241.033 77.5116 241.84 77.0242C242.542 76.5997 242.893 76.2748 242.893 76.0494ZM251.627 71.0733H247.649V77.4015C247.649 77.5797 247.707 77.7527 247.822 77.9204C247.943 78.1038 248.09 78.1955 248.263 78.1955C249.043 78.1955 249.434 77.3884 249.434 75.7743L251.014 76.6783C250.411 78.0147 249.478 78.6803 248.215 78.675C247.482 78.6698 246.91 78.3344 246.502 77.6688C246.323 77.3806 246.234 77.0923 246.234 76.8041V71.0733H244.591V70.13H246.234V67.4886L247.649 68.4713V70.13H251.627V71.0733ZM264.881 70.13L264.865 71.0733H258.23L258.246 75.7114C258.246 76.3927 258.364 76.8879 258.6 77.1971C258.867 77.5378 259.334 77.7238 259.999 77.7553C260.424 77.7762 260.848 77.6374 261.273 77.3386C261.65 77.0766 261.962 76.7438 262.208 76.3403C262.475 75.9 262.609 75.4703 262.609 75.051L262.593 72.0874L264.236 72.6534V80.7032C264.236 81.6832 263.786 82.4824 262.884 83.1008C262.051 83.6721 261.074 83.9577 259.952 83.9577C258.055 83.9577 256.705 83.4415 255.904 82.4091C255.579 81.9898 255.416 81.6308 255.416 81.3321C255.421 80.677 255.788 80.1267 256.517 79.6812C257.161 79.2882 257.83 79.0917 258.521 79.0917L259.52 80.4281C258.618 80.4909 257.811 80.6822 257.098 81.0019C256.632 81.2115 256.399 81.4814 256.399 81.8116C256.456 82.2885 256.815 82.7104 257.476 83.0773C257.869 83.2974 258.377 83.4074 259.001 83.4074C260.432 83.4074 261.511 82.9436 262.24 82.016C262.586 81.5758 262.758 81.0622 262.758 80.4752V77.2757C262.418 77.8313 261.509 78.109 260.031 78.109C258.789 78.109 257.848 77.6845 257.209 76.8355C256.894 76.4215 256.737 75.9498 256.737 75.4205V71.0733H255.621V70.13H264.881ZM273.167 71.0733H271.398V73.2351C271.398 73.2823 271.607 73.5155 272.027 73.9348C272.346 74.3226 272.506 74.8781 272.506 75.6013C272.506 76.8015 271.974 77.6898 270.91 78.2662C270.407 78.5388 269.86 78.675 269.267 78.675C268.408 78.675 267.522 78.2951 266.61 77.5352C265.657 76.7386 265.18 75.8738 265.18 74.941C265.18 74.5112 265.334 74.0658 265.643 73.6046C265.921 73.1906 266.257 72.8473 266.65 72.5748C267.121 72.2499 267.69 72.0874 268.356 72.0874C268.722 72.0874 269.265 72.1844 269.983 72.3783C270.014 72.3783 270.03 72.3573 270.03 72.3154V71.0733H264.637V70.13H273.167V71.0733ZM271.351 74.5558C271.351 73.8168 271.026 73.3216 270.376 73.07C270.135 72.9757 269.928 72.9285 269.755 72.9285C269.105 72.9285 268.405 73.2194 267.656 73.8011C266.781 74.4824 266.343 75.3498 266.343 76.4032C266.343 76.8958 266.626 77.2993 267.192 77.6138C267.449 77.7553 267.708 77.826 267.97 77.826C268.62 77.826 269.333 77.5116 270.109 76.8827C270.937 76.2119 271.351 75.4362 271.351 74.5558ZM281.837 71.0733H275.258V76.1123C275.258 76.4477 275.328 76.7936 275.47 77.15C275.758 77.8784 276.235 78.2427 276.901 78.2427C277.797 78.2427 278.478 77.8679 278.945 77.1185C279.306 76.542 279.487 75.9996 279.487 75.4913V72.3625H281.083V79.0602C280.957 78.9868 280.721 78.8742 280.375 78.7222L279.471 78.3213V77.6924C278.853 78.1431 278.323 78.4287 277.883 78.5492C277.616 78.6226 277.299 78.6593 276.932 78.6593C275.769 78.6593 274.859 78.1483 274.204 77.1264C273.906 76.66 273.756 76.1516 273.756 75.6013V71.0733H272.805V70.13H281.837V71.0733ZM289.644 71.0733H281.696V70.13H289.644V71.0733ZM288.991 73.8955C288.991 74.2047 288.805 74.5532 288.433 74.941C288.118 75.2712 287.788 75.5175 287.442 75.6799L286.263 74.3435C286.62 74.3121 286.958 74.1811 287.277 73.9505C287.644 73.6884 287.828 73.3897 287.828 73.0543C287.828 72.8761 287.712 72.7242 287.482 72.5984C287.283 72.4831 287.086 72.4254 286.892 72.4254C286.489 72.4254 286.056 72.6193 285.595 73.0072C284.657 73.7933 284.188 74.6632 284.188 75.617V78.9502L282.679 78.1641V72.3468H284.204V72.9443C284.429 72.7189 284.895 72.4831 285.603 72.2368C285.949 72.1162 286.305 72.056 286.672 72.056C287.432 72.056 288.077 72.3468 288.606 72.9285C288.863 73.2115 288.991 73.5338 288.991 73.8955ZM299.053 71.0733H296.443V78.7222C296.391 78.7222 295.935 78.5178 295.076 78.109V71.0733H293.739V70.13H295.013C295.013 70.0042 294.892 69.7736 294.651 69.4382L294.187 68.7936C294.056 68.563 293.991 68.3088 293.991 68.0311C293.991 67.7376 294.109 67.4258 294.344 67.0956C294.554 66.8021 294.798 66.5663 295.076 66.3881C295.432 66.1627 295.843 66.0501 296.31 66.0501C297.269 66.0501 297.968 66.3828 298.409 67.0484C298.613 67.3576 298.736 67.7192 298.778 68.1333C298.312 67.41 297.733 67.0484 297.041 67.0484C296.47 67.0484 296.035 67.2712 295.736 67.7166C295.594 67.9262 295.524 68.1437 295.524 68.3691C295.524 68.7255 295.809 69.1657 296.38 69.6898C296.422 69.8051 296.443 69.9518 296.443 70.13H299.053V71.0733ZM301.585 69.3046C301.564 69.3255 301.503 69.336 301.404 69.336C301.32 69.336 301.247 69.3255 301.184 69.3046L300.673 68.259C300.463 67.9289 300.177 67.7061 299.816 67.5908C299.459 67.4703 299.239 67.3393 299.155 67.1978C299.077 66.9567 298.925 66.5872 298.7 66.0894V65.9086H299.006C299.41 66.0343 299.737 66.1522 299.989 66.2623C300.403 66.4457 300.681 66.658 300.822 66.8991C300.901 67.0301 301.021 67.3655 301.184 67.9053C301.336 68.4136 301.464 68.7674 301.569 68.9665C301.579 69.0609 301.585 69.1735 301.585 69.3046ZM302.048 71.0733H298.849V70.13H302.048V71.0733ZM301.152 78.8401L299.832 78.109V72.0402H301.152V78.8401ZM310.365 71.0733H301.915V70.13H310.365V71.0733ZM308.675 74.5243C308.675 73.2666 308.08 72.6377 306.891 72.6377C306.01 72.6377 305.274 73.0989 304.682 74.0212C304.158 74.8388 303.896 75.7088 303.896 76.6311V78.9187L302.606 78.2427V72.3311H303.959V73.2666L304.658 72.7399C305.277 72.2734 305.929 72.0402 306.616 72.0402C307.549 72.0402 308.322 72.4018 308.935 73.1251C309.511 73.8064 309.799 74.6213 309.799 75.5699C309.799 76.7595 309.296 77.902 308.29 78.9973L306.773 78.0461C307.245 77.5797 307.645 77.15 307.976 76.7569C308.442 76.2014 308.675 75.4572 308.675 74.5243ZM318.423 79.9328C318.423 80.9076 317.951 81.395 317.008 81.395C316.589 81.395 315.981 81.1958 315.184 80.7975C314.304 80.3573 313.565 80.1372 312.967 80.1372C311.683 80.1372 310.473 80.6429 309.336 81.6544C308.791 82.1418 308.363 82.7156 308.054 83.376C308.033 83.2921 308.023 83.1585 308.023 82.9751C308.023 82.3462 308.211 81.7199 308.589 81.0963C308.935 80.5198 309.383 80.0376 309.933 79.6498C310.551 79.2148 311.256 78.9973 312.048 78.9973C312.593 78.9973 313.067 79.089 313.471 79.2725C313.685 79.372 314.099 79.6288 314.713 80.0429C315.237 80.3992 315.638 80.5774 315.915 80.5774C316.607 80.5774 317.157 80.2918 317.566 79.7206C317.744 79.4742 317.833 79.2332 317.833 78.9973C317.833 78.5833 317.708 78.2374 317.456 77.9597C317.205 77.6767 316.874 77.5352 316.466 77.5352C316.088 77.5352 315.467 77.7264 314.603 78.109C313.738 78.4864 313.117 78.675 312.739 78.675C312.462 78.675 312.126 78.5361 311.733 78.2584C310.916 77.6767 310.507 77.1342 310.507 76.6311C310.507 76.3534 310.662 76.0992 310.971 75.8686C311.248 75.6537 311.534 75.5332 311.828 75.507L311.843 75.4205L311.458 74.8781C311.243 74.5741 311.136 74.2466 311.136 73.8955C311.136 72.6901 312.121 72.0874 314.092 72.0874C314.149 72.0769 314.189 72.0298 314.21 71.9459V71.0733H310.137V70.13H318.219V71.0733H315.428V72.394C315.428 72.6403 315.499 72.7923 315.64 72.8499C315.729 72.8499 315.842 72.7687 315.978 72.6062L316.277 72.2446C316.356 72.166 316.497 72.1136 316.701 72.0874C317.032 72.0874 317.346 72.2761 317.645 72.6534C317.781 72.8263 317.87 72.9993 317.912 73.1722L317.087 74.1156C317.076 73.8745 317.026 73.6544 316.937 73.4552C316.817 73.188 316.66 73.0543 316.466 73.0543C316.392 73.0543 316.306 73.0884 316.206 73.1565C316.107 73.2246 316.057 73.2928 316.057 73.3609C316.057 73.4395 316.091 73.5338 316.159 73.6439C316.238 73.7749 316.282 73.8562 316.293 73.8876C316.329 74.0081 316.348 74.1601 316.348 74.3435C316.348 75.051 316.06 75.5306 315.483 75.7821C315.1 75.9498 314.498 76.0337 313.675 76.0337C312.627 76.0337 311.911 76.2669 311.529 76.7333C311.377 76.9168 311.304 77.0661 311.309 77.1814C311.314 77.3386 311.393 77.4775 311.545 77.598C311.697 77.7133 311.854 77.771 312.016 77.771C312.315 77.771 312.889 77.564 313.738 77.15C314.739 76.6626 315.546 76.4136 316.159 76.4032C316.72 76.3927 317.192 76.6416 317.574 77.15C317.883 77.5535 318.106 78.0671 318.242 78.6907C318.363 79.241 318.423 79.655 318.423 79.9328ZM315.365 73.6203C315.365 72.9862 315.027 72.6691 314.351 72.6691C313.806 72.6691 313.29 72.8604 312.802 73.243C312.278 73.6518 312.016 74.1208 312.016 74.6501C312.016 74.9384 312.126 75.1847 312.346 75.3891C312.572 75.5935 312.829 75.6957 313.117 75.6957C313.416 75.7009 313.754 75.5935 314.131 75.3734C314.466 75.1794 314.744 74.9541 314.964 74.6973C315.231 74.3828 315.365 74.0239 315.365 73.6203ZM326.371 71.0733H324.225V72.622C324.471 72.6796 324.649 72.7504 324.759 72.8342V73.7618C324.135 73.5469 323.486 73.4395 322.81 73.4395C322.322 73.4395 321.851 73.5207 321.395 73.6832C320.787 73.8981 320.48 74.2047 320.475 74.603C320.464 75.0222 321.059 75.2319 322.259 75.2319C322.286 75.2319 322.456 75.224 322.77 75.2083L323.242 75.1847V75.9079C322.529 75.9289 322.084 75.9472 321.906 75.9629C320.653 76.073 320.027 76.4346 320.027 77.0478C320.027 77.3884 320.244 77.6557 320.679 77.8496C321.02 78.0016 321.387 78.0776 321.78 78.0776C323.483 78.0776 324.861 77.3229 325.915 75.8136V77.8024C325.013 78.3737 323.947 78.6593 322.715 78.6593C321.368 78.6593 320.205 78.3475 319.225 77.7238C318.748 77.4199 318.51 77.0714 318.51 76.6783C318.51 76.2957 318.677 75.9629 319.013 75.6799C319.217 75.507 319.555 75.3078 320.027 75.0825L319.508 74.7838C319.199 74.6056 319.044 74.3671 319.044 74.0684C319.044 73.4186 319.534 72.9521 320.514 72.6691C321.258 72.4543 322.094 72.3468 323.022 72.3468V71.0733H317.983V70.13H326.371V71.0733ZM334.137 71.0733H326.19V70.13H334.137V71.0733ZM333.485 73.8955C333.485 74.2047 333.299 74.5532 332.927 74.941C332.612 75.2712 332.282 75.5175 331.936 75.6799L330.757 74.3435C331.114 74.3121 331.452 74.1811 331.771 73.9505C332.138 73.6884 332.322 73.3897 332.322 73.0543C332.322 72.8761 332.206 72.7242 331.976 72.5984C331.777 72.4831 331.58 72.4254 331.386 72.4254C330.983 72.4254 330.55 72.6193 330.089 73.0072C329.151 73.7933 328.682 74.6632 328.682 75.617V78.9502L327.173 78.1641V72.3468H328.698V72.9443C328.923 72.7189 329.389 72.4831 330.097 72.2368C330.443 72.1162 330.799 72.056 331.166 72.056C331.926 72.056 332.57 72.3468 333.1 72.9285C333.357 73.2115 333.485 73.5338 333.485 73.8955ZM340.961 71.0733H336.983V77.4015C336.983 77.5797 337.041 77.7527 337.156 77.9204C337.277 78.1038 337.423 78.1955 337.596 78.1955C338.377 78.1955 338.768 77.3884 338.768 75.7743L340.348 76.6783C339.745 78.0147 338.812 78.6803 337.549 78.675C336.815 78.6698 336.244 78.3344 335.835 77.6688C335.657 77.3806 335.568 77.0923 335.568 76.8041V71.0733H333.925V70.13H335.568V67.4886L336.983 68.4713V70.13H340.961V71.0733ZM343.516 69.3046C343.495 69.3255 343.435 69.336 343.335 69.336C343.251 69.336 343.178 69.3255 343.115 69.3046L342.604 68.259C342.394 67.9289 342.109 67.7061 341.747 67.5908C341.391 67.4703 341.171 67.3393 341.087 67.1978C341.008 66.9567 340.856 66.5872 340.631 66.0894V65.9086H340.937C341.341 66.0343 341.668 66.1522 341.92 66.2623C342.334 66.4457 342.612 66.658 342.753 66.8991C342.832 67.0301 342.952 67.3655 343.115 67.9053C343.267 68.4136 343.395 68.7674 343.5 68.9665C343.511 69.0609 343.516 69.1735 343.516 69.3046ZM343.98 71.0733H340.78V70.13H343.98V71.0733ZM343.083 78.8401L341.763 78.109V72.0402H343.083V78.8401ZM352.847 71.0733H343.83V70.13H352.847V71.0733ZM352.218 75.4205C352.218 75.997 352.045 76.542 351.699 77.0556C351.38 77.5325 350.958 77.923 350.434 78.2269C349.909 78.5257 349.425 78.675 348.979 78.675C348.544 78.675 348.002 78.4313 347.352 77.9439C347.038 77.7081 346.576 77.3019 345.968 76.7255V83.3917L344.711 82.7314V72.3311H345.937V74.2492L346.417 73.7461C347.522 72.5879 348.419 72.0088 349.105 72.0088C349.849 72.0088 350.559 72.394 351.235 73.1644C351.891 73.9138 352.218 74.6658 352.218 75.4205ZM351.44 74.5086C351.44 74.1103 351.233 73.7278 350.819 73.3609C350.614 73.1775 350.355 73.0858 350.041 73.0858C349.422 73.0858 348.654 73.4605 347.737 74.2099C346.794 74.9803 346.322 75.6642 346.322 76.2617C346.322 76.6128 346.65 76.922 347.305 77.1893C347.598 77.3098 347.884 77.3701 348.162 77.3701C349.074 77.3701 349.865 77.0189 350.536 76.3167C351.138 75.6878 351.44 75.0851 351.44 74.5086ZM360.685 71.0733H359.828V74.0527C359.518 73.8693 359.073 73.712 358.491 73.581C357.946 73.4552 357.475 73.3923 357.076 73.3923C356.117 73.3923 355.313 73.5627 354.663 73.9033C354.296 74.0972 354.113 74.3514 354.113 74.6658C354.113 75.0851 354.333 75.2947 354.773 75.2947C355.04 75.2947 355.389 75.2161 355.818 75.0589C356.096 74.9593 356.453 74.8336 356.888 74.6816C357.071 74.6187 357.396 74.5872 357.862 74.5872C358.769 74.5872 359.445 74.8676 359.891 75.4284C360.105 75.6957 360.213 76.0101 360.213 76.3717C360.213 77.205 359.689 77.8601 358.641 78.337C358.206 78.5361 357.792 78.6488 357.399 78.675C357.776 79.0524 358.135 79.241 358.476 79.241C358.586 79.241 358.704 79.2253 358.829 79.1939L359.623 80.4909C359.461 80.6324 359.128 80.7032 358.625 80.7032C358.216 80.7032 357.87 80.5643 357.587 80.2866C357.435 80.1346 357.22 79.8175 356.943 79.3354C356.707 78.9213 356.51 78.7117 356.353 78.7065C355.383 78.6803 354.637 78.5047 354.113 78.1798C353.782 77.9754 353.617 77.695 353.617 77.3386C353.617 76.8984 353.879 76.6783 354.403 76.6783C354.597 76.6783 355.001 76.8303 355.614 77.1342C356.232 77.433 356.741 77.5823 357.139 77.5823C357.936 77.5823 358.683 77.3937 359.38 77.0163C359.72 76.8329 359.891 76.6075 359.891 76.3403C359.891 75.942 359.576 75.7428 358.947 75.7428C358.753 75.7428 358.127 75.8843 357.068 76.1673C356.445 76.335 356.062 76.4189 355.921 76.4189C355.087 76.4189 354.401 76.0258 353.861 75.2397C353.599 74.8624 353.468 74.4562 353.468 74.0212C353.463 73.1356 354.068 72.5381 355.284 72.2289C355.782 72.1031 356.251 72.0402 356.691 72.0402C357.194 72.0402 357.907 72.1634 358.829 72.4097V71.0733H352.572V70.13H360.685V71.0733Z" fill="black" fill-opacity="0.61"/>
<defs>
<filter id="filter0_d_296_116" x="315.615" y="21.2872" width="48.581" height="46.5302" filterUnits="userSpaceOnUse" color-interpolation-filters="sRGB">
<feFlood flood-opacity="0" result="BackgroundImageFix"/>
<feColorMatrix in="SourceAlpha" type="matrix" values="0 0 0 0 0 0 0 0 0 0 0 0 0 0 0 0 0 0 127 0" result="hardAlpha"/>
<feOffset dx="8.27978" dy="6.62382"/>
<feGaussianBlur stdDeviation="2.70473"/>
<feComposite in2="hardAlpha" operator="out"/>
<feColorMatrix type="matrix" values="0 0 0 0 0 0 0 0 0 0 0 0 0 0 0 0 0 0 0.25 0"/>
<feBlend mode="normal" in2="BackgroundImageFix" result="effect1_dropShadow_296_116"/>
<feBlend mode="normal" in="SourceGraphic" in2="effect1_dropShadow_296_116" result="shape"/>
</filter>
<filter id="filter1_d_296_116" x="276.624" y="0.637695" width="53.8648" height="66.117" filterUnits="userSpaceOnUse" color-interpolation-filters="sRGB">
<feFlood flood-opacity="0" result="BackgroundImageFix"/>
<feColorMatrix in="SourceAlpha" type="matrix" values="0 0 0 0 0 0 0 0 0 0 0 0 0 0 0 0 0 0 127 0" result="hardAlpha"/>
<feOffset dx="8.27978" dy="6.62382"/>
<feGaussianBlur stdDeviation="2.70473"/>
<feComposite in2="hardAlpha" operator="out"/>
<feColorMatrix type="matrix" values="0 0 0 0 0 0 0 0 0 0 0 0 0 0 0 0 0 0 0.25 0"/>
<feBlend mode="normal" in2="BackgroundImageFix" result="effect1_dropShadow_296_116"/>
<feBlend mode="normal" in="SourceGraphic" in2="effect1_dropShadow_296_116" result="shape"/>
</filter>
<filter id="filter2_d_296_116" x="250.66" y="0" width="46.8501" height="66.8154" filterUnits="userSpaceOnUse" color-interpolation-filters="sRGB">
<feFlood flood-opacity="0" result="BackgroundImageFix"/>
<feColorMatrix in="SourceAlpha" type="matrix" values="0 0 0 0 0 0 0 0 0 0 0 0 0 0 0 0 0 0 127 0" result="hardAlpha"/>
<feOffset dx="8.27978" dy="6.62382"/>
<feGaussianBlur stdDeviation="2.70473"/>
<feComposite in2="hardAlpha" operator="out"/>
<feColorMatrix type="matrix" values="0 0 0 0 0 0 0 0 0 0 0 0 0 0 0 0 0 0 0.25 0"/>
<feBlend mode="normal" in2="BackgroundImageFix" result="effect1_dropShadow_296_116"/>
<feBlend mode="normal" in="SourceGraphic" in2="effect1_dropShadow_296_116" result="shape"/>
</filter>
<filter id="filter3_d_296_116" x="222.722" y="0" width="46.8501" height="66.8154" filterUnits="userSpaceOnUse" color-interpolation-filters="sRGB">
<feFlood flood-opacity="0" result="BackgroundImageFix"/>
<feColorMatrix in="SourceAlpha" type="matrix" values="0 0 0 0 0 0 0 0 0 0 0 0 0 0 0 0 0 0 127 0" result="hardAlpha"/>
<feOffset dx="8.27978" dy="6.62382"/>
<feGaussianBlur stdDeviation="2.70473"/>
<feComposite in2="hardAlpha" operator="out"/>
<feColorMatrix type="matrix" values="0 0 0 0 0 0 0 0 0 0 0 0 0 0 0 0 0 0 0.25 0"/>
<feBlend mode="normal" in2="BackgroundImageFix" result="effect1_dropShadow_296_116"/>
<feBlend mode="normal" in="SourceGraphic" in2="effect1_dropShadow_296_116" result="shape"/>
</filter>
<filter id="filter4_d_296_116" x="197.244" y="21.2872" width="44.117" height="45.2852" filterUnits="userSpaceOnUse" color-interpolation-filters="sRGB">
<feFlood flood-opacity="0" result="BackgroundImageFix"/>
<feColorMatrix in="SourceAlpha" type="matrix" values="0 0 0 0 0 0 0 0 0 0 0 0 0 0 0 0 0 0 127 0" result="hardAlpha"/>
<feOffset dx="8.27978" dy="6.62382"/>
<feGaussianBlur stdDeviation="2.70473"/>
<feComposite in2="hardAlpha" operator="out"/>
<feColorMatrix type="matrix" values="0 0 0 0 0 0 0 0 0 0 0 0 0 0 0 0 0 0 0.25 0"/>
<feBlend mode="normal" in2="BackgroundImageFix" result="effect1_dropShadow_296_116"/>
<feBlend mode="normal" in="SourceGraphic" in2="effect1_dropShadow_296_116" result="shape"/>
</filter>
<filter id="filter5_d_296_116" x="158.131" y="0.637695" width="53.8648" height="66.117" filterUnits="userSpaceOnUse" color-interpolation-filters="sRGB">
<feFlood flood-opacity="0" result="BackgroundImageFix"/>
<feColorMatrix in="SourceAlpha" type="matrix" values="0 0 0 0 0 0 0 0 0 0 0 0 0 0 0 0 0 0 127 0" result="hardAlpha"/>
<feOffset dx="8.27978" dy="6.62382"/>
<feGaussianBlur stdDeviation="2.70473"/>
<feComposite in2="hardAlpha" operator="out"/>
<feColorMatrix type="matrix" values="0 0 0 0 0 0 0 0 0 0 0 0 0 0 0 0 0 0 0.25 0"/>
<feBlend mode="normal" in2="BackgroundImageFix" result="effect1_dropShadow_296_116"/>
<feBlend mode="normal" in="SourceGraphic" in2="effect1_dropShadow_296_116" result="shape"/>
</filter>
<filter id="filter6_d_296_116" x="132.775" y="21.2872" width="46.3338" height="44.9815" filterUnits="userSpaceOnUse" color-interpolation-filters="sRGB">
<feFlood flood-opacity="0" result="BackgroundImageFix"/>
<feColorMatrix in="SourceAlpha" type="matrix" values="0 0 0 0 0 0 0 0 0 0 0 0 0 0 0 0 0 0 127 0" result="hardAlpha"/>
<feOffset dx="8.27978" dy="6.62382"/>
<feGaussianBlur stdDeviation="2.70473"/>
<feComposite in2="hardAlpha" operator="out"/>
<feColorMatrix type="matrix" values="0 0 0 0 0 0 0 0 0 0 0 0 0 0 0 0 0 0 0.25 0"/>
<feBlend mode="normal" in2="BackgroundImageFix" result="effect1_dropShadow_296_116"/>
<feBlend mode="normal" in="SourceGraphic" in2="effect1_dropShadow_296_116" result="shape"/>
</filter>
<filter id="filter7_d_296_116" x="33.3947" y="16.3862" width="59.1519" height="84.435" filterUnits="userSpaceOnUse" color-interpolation-filters="sRGB">
<feFlood flood-opacity="0" result="BackgroundImageFix"/>
<feColorMatrix in="SourceAlpha" type="matrix" values="0 0 0 0 0 0 0 0 0 0 0 0 0 0 0 0 0 0 127 0" result="hardAlpha"/>
<feOffset dx="9.79437" dy="7.8355"/>
<feGaussianBlur stdDeviation="3.19949"/>
<feComposite in2="hardAlpha" operator="out"/>
<feColorMatrix type="matrix" values="0 0 0 0 0 0 0 0 0 0 0 0 0 0 0 0 0 0 0.25 0"/>
<feBlend mode="normal" in2="BackgroundImageFix" result="effect1_dropShadow_296_116"/>
<feBlend mode="normal" in="SourceGraphic" in2="effect1_dropShadow_296_116" result="shape"/>
</filter>
<filter id="filter8_d_296_116" x="101.072" y="21.2872" width="46.3338" height="46.2873" filterUnits="userSpaceOnUse" color-interpolation-filters="sRGB">
<feFlood flood-opacity="0" result="BackgroundImageFix"/>
<feColorMatrix in="SourceAlpha" type="matrix" values="0 0 0 0 0 0 0 0 0 0 0 0 0 0 0 0 0 0 127 0" result="hardAlpha"/>
<feOffset dx="8.27978" dy="6.62382"/>
<feGaussianBlur stdDeviation="2.70473"/>
<feComposite in2="hardAlpha" operator="out"/>
<feColorMatrix type="matrix" values="0 0 0 0 0 0 0 0 0 0 0 0 0 0 0 0 0 0 0.25 0"/>
<feBlend mode="normal" in2="BackgroundImageFix" result="effect1_dropShadow_296_116"/>
<feBlend mode="normal" in="SourceGraphic" in2="effect1_dropShadow_296_116" result="shape"/>
</filter>
<filter id="filter9_d_296_116" x="71.0388" y="21.2872" width="44.117" height="45.2852" filterUnits="userSpaceOnUse" color-interpolation-filters="sRGB">
<feFlood flood-opacity="0" result="BackgroundImageFix"/>
<feColorMatrix in="SourceAlpha" type="matrix" values="0 0 0 0 0 0 0 0 0 0 0 0 0 0 0 0 0 0 127 0" result="hardAlpha"/>
<feOffset dx="8.27978" dy="6.62382"/>
<feGaussianBlur stdDeviation="2.70473"/>
<feComposite in2="hardAlpha" operator="out"/>
<feColorMatrix type="matrix" values="0 0 0 0 0 0 0 0 0 0 0 0 0 0 0 0 0 0 0.25 0"/>
<feBlend mode="normal" in2="BackgroundImageFix" result="effect1_dropShadow_296_116"/>
<feBlend mode="normal" in="SourceGraphic" in2="effect1_dropShadow_296_116" result="shape"/>
</filter>
<filter id="filter10_d_296_116" x="0" y="21.0822" width="53.8648" height="63.2017" filterUnits="userSpaceOnUse" color-interpolation-filters="sRGB">
<feFlood flood-opacity="0" result="BackgroundImageFix"/>
<feColorMatrix in="SourceAlpha" type="matrix" values="0 0 0 0 0 0 0 0 0 0 0 0 0 0 0 0 0 0 127 0" result="hardAlpha"/>
<feOffset dx="8.27978" dy="6.62382"/>
<feGaussianBlur stdDeviation="2.70473"/>
<feComposite in2="hardAlpha" operator="out"/>
<feColorMatrix type="matrix" values="0 0 0 0 0 0 0 0 0 0 0 0 0 0 0 0 0 0 0.25 0"/>
<feBlend mode="normal" in2="BackgroundImageFix" result="effect1_dropShadow_296_116"/>
<feBlend mode="normal" in="SourceGraphic" in2="effect1_dropShadow_296_116" result="shape"/>
</filter>
</defs>
</svg>
