<svg width="50" height="80" viewBox="0 0 50 80" fill="none" xmlns="http://www.w3.org/2000/svg">
<path d="M4.12695 10.3539L25.0338 2L45.9407 10.3539L25.0338 18.7078L4.12695 10.3539Z" fill="black" stroke="black" stroke-width="3.97805" stroke-linejoin="round"/>
<path d="M45.9406 10.4633V19.6359" stroke="black" stroke-width="3.97805" stroke-linecap="round" stroke-linejoin="round"/>
<path d="M13.63 14.7548V27.1279C13.63 27.1279 18.4137 31.8352 25.0338 31.8352C31.6539 31.8352 36.4376 27.1279 36.4376 27.1279V14.7548" stroke="black" stroke-width="3.97805" stroke-linecap="round" stroke-linejoin="round"/>
<path d="M25.0049 63.5178C26.2779 65.4272 27.9828 66.9957 30.0059 68.0641L25.0049 73.0651L20.0039 68.0641C22.0271 66.9957 23.7547 65.4272 25.0049 63.5178ZM36.3708 52.6065C35.165 52.6065 34.0086 53.0855 33.156 53.9381C32.3034 54.7907 31.8244 55.9471 31.8244 57.1529C31.8244 58.3587 32.3034 59.515 33.156 60.3676C34.0086 61.2202 35.165 61.6992 36.3708 61.6992C37.5765 61.6992 38.7329 61.2202 39.5855 60.3676C40.4381 59.515 40.9171 58.3587 40.9171 57.1529C40.9171 55.9471 40.4381 54.7907 39.5855 53.9381C38.7329 53.0855 37.5765 52.6065 36.3708 52.6065ZM13.639 52.6065C12.4333 52.6065 11.2769 53.0855 10.4243 53.9381C9.57168 54.7907 9.0927 55.9471 9.0927 57.1529C9.0927 58.3587 9.57168 59.515 10.4243 60.3676C11.2769 61.2202 12.4333 61.6992 13.639 61.6992C14.8448 61.6992 16.0012 61.2202 16.8538 60.3676C17.7064 59.515 18.1854 58.3587 18.1854 57.1529C18.1854 55.9471 17.7064 54.7907 16.8538 53.9381C16.0012 53.0855 14.8448 52.6065 13.639 52.6065ZM36.3708 46.9236C38.7823 46.9236 41.0951 47.8816 42.8003 49.5868C44.5055 51.292 45.4635 53.6048 45.4635 56.0163C45.4635 58.4278 44.5055 60.7406 42.8003 62.4458C41.0951 64.151 38.7823 65.109 36.3708 65.109C33.9593 65.109 31.6465 64.151 29.9413 62.4458C28.2361 60.7406 27.2781 58.4278 27.2781 56.0163C27.2781 53.6048 28.2361 51.292 29.9413 49.5868C31.6465 47.8816 33.9593 46.9236 36.3708 46.9236ZM13.639 46.9236C16.0506 46.9236 18.3633 47.8816 20.0686 49.5868C21.7738 51.292 22.7317 53.6048 22.7317 56.0163C22.7317 58.4278 21.7738 60.7406 20.0686 62.4458C18.3633 64.151 16.0506 65.109 13.639 65.109C11.2275 65.109 8.91475 64.151 7.20954 62.4458C5.50433 60.7406 4.54635 58.4278 4.54635 56.0163C4.54635 53.6048 5.50433 51.292 7.20954 49.5868C8.91475 47.8816 11.2275 46.9236 13.639 46.9236ZM2.81874 29.4202C6.81952 37.8309 3.93259 44.1049 1.25025 50.3334C0.431903 52.1519 0 54.0386 0 56.0163C0 59.6336 1.43697 63.1027 3.99478 65.6606C6.5526 68.2184 10.0217 69.6553 13.639 69.6553C14.1164 69.6326 14.5938 69.6099 15.0711 69.5417L21.7997 76.2703L25.0049 79.43L28.2101 76.2703L34.9387 69.5417C35.4161 69.6099 35.8934 69.6326 36.3708 69.6553C39.9881 69.6553 43.4572 68.2184 46.015 65.6606C48.5729 63.1027 50.0098 59.6336 50.0098 56.0163C50.0098 54.0386 49.5779 52.1519 48.7596 50.3334C46.0772 44.1049 43.1903 37.8309 47.1911 29.4202C41.1899 34.1029 32.6428 37.8082 25.0049 37.8309C17.3671 37.8082 8.81992 34.1029 2.81874 29.4202Z" fill="black"/>
</svg>
