<svg width="46" height="46" viewBox="0 0 46 46" fill="none" xmlns="http://www.w3.org/2000/svg">
<path d="M10.3335 31.9375C10.3335 30.2578 11.0008 28.6468 12.1885 27.4591C13.3762 26.2714 14.9871 25.6041 16.6668 25.6041H29.3335C31.0132 25.6041 32.6241 26.2714 33.8118 27.4591C34.9996 28.6468 35.6668 30.2578 35.6668 31.9375C35.6668 32.7773 35.3332 33.5828 34.7393 34.1766C34.1455 34.7705 33.34 35.1041 32.5002 35.1041H13.5002C12.6603 35.1041 11.8549 34.7705 11.261 34.1766C10.6671 33.5828 10.3335 32.7773 10.3335 31.9375Z" stroke="black" stroke-width="3.95833" stroke-linejoin="round"/>
<path d="M23 16.8334C25.6234 16.8334 27.75 14.7067 27.75 12.0834C27.75 9.46002 25.6234 7.33337 23 7.33337C20.3766 7.33337 18.25 9.46002 18.25 12.0834C18.25 14.7067 20.3766 16.8334 23 16.8334Z" stroke="black" stroke-width="3.95833"/>
<rect x="0.575" y="0.575" width="44.85" height="44.85" rx="22.425" stroke="black" stroke-width="1.15"/>
</svg>
