<svg width="1343" height="106" viewBox="0 0 1343 106" fill="none" xmlns="http://www.w3.org/2000/svg">
<g filter="url(#filter0_d_298_137)">
<path d="M1328.51 29.9313H1303.09V49.3966C1303.09 50.6922 1303.36 52.0284 1303.91 53.405C1305.02 56.219 1306.87 57.626 1309.44 57.626C1312.9 57.626 1315.53 56.1785 1317.33 53.2835C1318.73 51.0566 1319.43 48.9613 1319.43 46.9976V34.9115H1325.59V60.7842C1325.11 60.5008 1324.19 60.0655 1322.86 59.4784L1319.37 57.9297V55.5003C1316.98 57.2414 1314.93 58.3447 1313.23 58.8103C1312.2 59.0938 1310.97 59.2355 1309.56 59.2355C1305.06 59.2355 1301.55 57.2616 1299.02 53.3139C1297.87 51.5121 1297.29 49.5484 1297.29 47.4227V29.9313H1293.61V26.2872H1328.51V29.9313Z" fill="black"/>
</g>
<g filter="url(#filter1_d_298_137)">
<path d="M1294.8 29.9313H1270.29V39.0718C1272.5 36.6627 1274.54 35.114 1276.43 34.4257C1277.48 34.041 1278.66 33.8487 1279.98 33.8487C1284.92 33.8487 1288.61 36.278 1291.06 41.1368C1292.14 43.2625 1292.67 45.3578 1292.67 47.4228C1292.67 51.1883 1291.12 54.5894 1288.03 57.6261C1286.99 58.6383 1286.23 59.3368 1285.72 59.7214L1280.74 56.7454C1281.99 55.4295 1283.42 53.81 1285.02 51.8867C1286.82 49.7205 1287.73 46.9875 1287.75 43.6876C1287.77 41.7239 1287.33 40.084 1286.42 38.7681C1285.39 37.2295 1283.93 36.4805 1282.04 36.521C1280.3 36.5615 1278.44 37.2194 1276.46 38.4948C1274.68 39.6285 1273.2 40.9849 1272.02 42.564C1270.75 44.2646 1270.11 45.9044 1270.11 47.4835V59.5392L1264.43 56.5025V29.9313H1261.09V26.2873H1264.43C1264.43 20.3353 1262.88 15.2539 1259.79 11.043C1257.92 8.51244 1256.2 6.73091 1254.62 5.69843L1260.76 5.6377C1264.16 7.50021 1266.86 11.5188 1268.87 17.6934C1269.82 20.6289 1270.29 23.4935 1270.29 26.2873H1294.8V29.9313Z" fill="black"/>
</g>
<g filter="url(#filter2_d_298_137)">
<path d="M1261.82 29.9313H1241.9V37.766C1243.09 37.0777 1245.05 36.1768 1247.76 35.0634C1248.87 34.7597 1250.22 34.6079 1251.8 34.6079C1253.97 34.6079 1255.9 35.2051 1257.6 36.3995C1259.5 37.7154 1260.45 39.416 1260.45 41.5012C1260.45 44.3152 1258.84 46.3599 1255.63 47.6353C1254.29 48.1617 1253.14 48.4249 1252.16 48.4249L1259.21 56.9884L1255.35 59.7822L1244.51 46.9065L1246.52 42.7462C1247.59 43.0499 1248.71 43.2017 1249.89 43.2017C1251.61 43.2017 1253.01 42.7968 1254.11 41.9871C1255.34 41.0963 1255.96 39.8209 1255.96 38.1608C1255.96 36.5412 1254.81 35.7315 1252.5 35.7315C1250.88 35.7315 1249.16 36.5109 1247.34 38.0697C1246.04 39.1832 1244.86 40.5294 1243.78 42.1085C1242.49 44.0115 1241.84 45.6412 1241.84 46.9976V59.7214L1236.62 57.3832V29.9313H1232.76V26.2873H1236.43C1236.43 20.4771 1235.38 15.6487 1233.28 11.8022C1232.87 11.0532 1232.09 9.92958 1230.94 8.43148C1229.84 6.9941 1229.09 5.85028 1228.66 5H1234.82C1236.02 6.11346 1237.25 7.9456 1238.53 10.4964C1240.7 14.8288 1241.78 20.0924 1241.78 26.2873H1261.82V29.9313Z" fill="black"/>
</g>
<g filter="url(#filter3_d_298_137)">
<path d="M1233.88 29.9313H1213.96V37.766C1215.16 37.0777 1217.11 36.1768 1219.82 35.0634C1220.94 34.7597 1222.28 34.6079 1223.86 34.6079C1226.03 34.6079 1227.96 35.2051 1229.66 36.3995C1231.56 37.7154 1232.52 39.416 1232.52 41.5012C1232.52 44.3152 1230.91 46.3599 1227.69 47.6353C1226.35 48.1617 1225.2 48.4249 1224.23 48.4249L1231.27 56.9884L1227.41 59.7822L1216.57 46.9065L1218.58 42.7462C1219.65 43.0499 1220.77 43.2017 1221.95 43.2017C1223.67 43.2017 1225.08 42.7968 1226.17 41.9871C1227.4 41.0963 1228.02 39.8209 1228.02 38.1608C1228.02 36.5412 1226.87 35.7315 1224.56 35.7315C1222.94 35.7315 1221.22 36.5109 1219.4 38.0697C1218.1 39.1832 1216.92 40.5294 1215.84 42.1085C1214.55 44.0115 1213.9 45.6412 1213.9 46.9976V59.7214L1208.68 57.3832V29.9313H1204.82V26.2873H1208.5C1208.5 20.4771 1207.44 15.6487 1205.34 11.8022C1204.93 11.0532 1204.15 9.92958 1203 8.43148C1201.91 6.9941 1201.15 5.85028 1200.72 5H1206.89C1208.08 6.11346 1209.32 7.9456 1210.59 10.4964C1212.76 14.8288 1213.84 20.0924 1213.84 26.2873H1233.88V29.9313Z" fill="black"/>
</g>
<g filter="url(#filter4_d_298_137)">
<path d="M1205.67 29.9313H1185.45V34.79C1185.53 34.79 1185.61 34.8305 1185.69 34.9115C1185.77 34.9925 1185.84 35.0329 1185.9 35.0329C1185.74 35.0329 1185.65 35.0228 1185.63 35.0026C1185.63 34.9014 1187.14 34.5774 1190.15 34.0308C1191.27 33.8284 1192.37 33.7272 1193.46 33.7272C1198.02 33.7272 1200.94 35.0026 1202.24 37.5534C1203.11 39.254 1203.55 42.6854 1203.55 47.8478V59.5392C1203.12 59.3772 1201.51 58.7192 1198.72 57.5653C1198.72 56.9175 1198.59 56.5024 1198.32 56.3202C1197.25 56.9478 1196.37 57.4236 1195.68 57.7475C1193.49 58.78 1190.95 59.2962 1188.06 59.2962C1184.07 59.2962 1180.99 58.041 1178.83 55.5307C1177.77 54.316 1177.25 52.9596 1177.25 51.4615C1177.25 49.7812 1178.08 48.111 1179.74 46.451C1182.96 43.232 1186.96 41.6226 1191.73 41.6226C1194.63 41.6226 1196.96 42.2907 1198.72 43.6268V40.833C1197.83 39.6993 1196.96 38.9402 1196.11 38.5555C1195.28 38.1709 1194.13 37.9988 1192.67 38.0393C1189.42 38.1 1186.43 38.6972 1183.72 39.8309C1182.5 40.3371 1181.32 40.7926 1180.16 41.1975V38.9503C1180.43 38.7276 1180.81 38.3936 1181.32 37.9482C1181.4 37.847 1181.45 37.7862 1181.47 37.766V29.9313H1175.24V26.2872H1205.67V29.9313ZM1198.72 49.1536C1198.72 48.2628 1197.66 47.4632 1195.53 46.7546C1193.77 46.1675 1192.3 45.874 1191.13 45.874C1186.85 45.874 1183.43 47.4126 1180.86 50.4898C1179.83 51.7247 1179.31 52.7369 1179.31 53.5265C1179.74 55.0043 1181.41 55.7433 1184.32 55.7433C1188.09 55.7433 1191.53 54.8019 1194.65 52.9191C1197.36 51.2793 1198.72 50.0241 1198.72 49.1536Z" fill="black"/>
</g>
<g filter="url(#filter5_d_298_137)">
<path d="M1176.31 29.9313H1151.8V39.0718C1154.01 36.6627 1156.05 35.114 1157.93 34.4257C1158.99 34.041 1160.17 33.8487 1161.49 33.8487C1166.43 33.8487 1170.12 36.278 1172.57 41.1368C1173.64 43.2625 1174.18 45.3578 1174.18 47.4228C1174.18 51.1883 1172.63 54.5894 1169.54 57.6261C1168.5 58.6383 1167.73 59.3368 1167.23 59.7214L1162.25 56.7454C1163.5 55.4295 1164.93 53.81 1166.53 51.8867C1168.33 49.7205 1169.24 46.9875 1169.26 43.6876C1169.28 41.7239 1168.84 40.084 1167.93 38.7681C1166.89 37.2295 1165.44 36.4805 1163.55 36.521C1161.81 36.5615 1159.95 37.2194 1157.97 38.4948C1156.18 39.6285 1154.71 40.9849 1153.53 42.564C1152.26 44.2646 1151.62 45.9044 1151.62 47.4835V59.5392L1145.94 56.5025V29.9313H1142.6V26.2873H1145.94C1145.94 20.3353 1144.39 15.2539 1141.29 11.043C1139.43 8.51244 1137.71 6.73091 1136.13 5.69843L1142.27 5.6377C1145.67 7.50021 1148.37 11.5188 1150.37 17.6934C1151.32 20.6289 1151.8 23.4935 1151.8 26.2873H1176.31V29.9313Z" fill="black"/>
</g>
<g filter="url(#filter6_d_298_137)">
<path d="M1143.42 29.9313H1137.07V38.4037C1138.41 39.6386 1139.22 40.4383 1139.5 40.8027C1140.01 41.4505 1140.52 42.4526 1141.05 43.809H1137.01C1137.01 41.6023 1136.38 39.8815 1135.13 38.6466C1133.89 37.4117 1132.17 36.7942 1129.97 36.7942C1127.66 36.7942 1125.5 37.4319 1123.5 38.7074C1121.58 39.922 1120.03 41.5619 1118.85 43.6268C1117.74 45.5905 1117.18 47.4936 1117.18 49.3358C1117.18 51.502 1117.96 53.1519 1119.52 54.2856C1120.9 55.2979 1122.71 55.804 1124.96 55.804C1128.7 55.804 1131.31 54.7715 1132.79 52.7066H1139.26C1138.71 54.893 1136.7 56.7353 1133.22 58.2334C1131.66 58.9014 1130.21 59.2355 1128.87 59.2355C1126.26 59.2355 1123.63 58.4965 1120.98 57.0187C1118.45 55.6218 1116.36 53.8301 1114.72 51.6437C1113.08 49.437 1112.26 47.2607 1112.26 45.1148C1112.26 43.4952 1112.98 41.6631 1114.42 39.6184C1117.44 35.3265 1121.11 33.1806 1125.44 33.1806C1128.3 33.1806 1130.55 33.7778 1132.21 34.9722V29.9313H1110.78V26.2872H1143.42V29.9313Z" fill="black"/>
</g>
<g filter="url(#filter7_d_298_137)">
<path d="M1054.35 21.3862L1054.35 26.2578L1024.24 26.4793L1024.24 49.7219C1024.24 53.1807 1024.77 55.695 1025.84 57.2648C1027.06 58.9942 1029.17 59.9387 1032.2 60.0983C1034.12 60.2047 1036.05 59.4997 1037.98 57.9831C1039.69 56.6528 1041.1 54.9633 1042.22 52.9146C1043.44 50.6797 1044.04 48.498 1044.04 46.3695L1043.97 31.3237L1051.43 34.1971V75.0643C1051.43 80.0397 1049.38 84.0972 1045.29 87.2367C1041.51 90.1368 1037.07 91.5868 1031.98 91.5868C1023.37 91.5868 1017.25 88.9661 1013.61 83.7247C1012.13 81.5962 1011.39 79.7736 1011.39 78.2571C1011.42 74.9313 1013.08 72.1376 1016.39 69.8761C1019.32 67.8806 1022.35 66.8829 1025.49 66.8829L1030.02 73.6675C1025.93 73.9868 1022.26 74.9579 1019.03 76.5809C1016.91 77.6451 1015.85 79.0154 1015.85 80.6915C1016.12 83.1127 1017.75 85.2545 1020.74 87.117C1022.53 88.2344 1024.83 88.7932 1027.66 88.7932C1034.16 88.7932 1039.06 86.4385 1042.36 81.7292C1043.93 79.4943 1044.72 76.8869 1044.72 73.907V57.6638C1043.17 60.4841 1039.05 61.8942 1032.34 61.8942C1026.7 61.8942 1022.43 59.7391 1019.53 55.4289C1018.1 53.327 1017.39 50.9325 1017.39 48.2452V26.1754H1012.32V21.3862H1054.35Z" fill="#0B59D5"/>
</g>
<g filter="url(#filter8_d_298_137)">
<path d="M1111.72 29.9313H1079.07V26.2872H1111.72V29.9313ZM1105.19 43.2624C1105.19 38.4037 1102.89 35.9743 1098.29 35.9743C1094.89 35.9743 1092.05 37.7559 1089.76 41.3189C1087.74 44.4771 1086.72 47.8377 1086.72 51.4008V60.2376L1081.74 57.626V34.79H1086.97V38.4037L1089.67 36.3691C1092.06 34.5673 1094.58 33.6664 1097.23 33.6664C1100.83 33.6664 1103.82 35.0633 1106.19 37.8571C1108.42 40.4889 1109.53 43.6369 1109.53 47.3012C1109.53 51.8968 1107.59 56.3101 1103.7 60.5413L1097.84 56.8668C1099.66 55.0651 1101.21 53.405 1102.48 51.8867C1104.29 49.7407 1105.19 46.866 1105.19 43.2624Z" fill="black"/>
</g>
<g filter="url(#filter9_d_298_137)">
<path d="M1079.47 29.9313H1059.24V34.79C1059.32 34.79 1059.4 34.8305 1059.49 34.9115C1059.57 34.9925 1059.64 35.0329 1059.7 35.0329C1059.54 35.0329 1059.44 35.0228 1059.42 35.0026C1059.42 34.9014 1060.93 34.5774 1063.95 34.0308C1065.06 33.8284 1066.17 33.7272 1067.26 33.7272C1071.81 33.7272 1074.74 35.0026 1076.04 37.5534C1076.91 39.254 1077.34 42.6854 1077.34 47.8478V59.5392C1076.92 59.3772 1075.31 58.7192 1072.51 57.5653C1072.51 56.9175 1072.38 56.5024 1072.12 56.3202C1071.04 56.9478 1070.16 57.4236 1069.48 57.7475C1067.29 58.78 1064.75 59.2962 1061.85 59.2962C1057.87 59.2962 1054.79 58.041 1052.62 55.5307C1051.57 54.316 1051.04 52.9596 1051.04 51.4615C1051.04 49.7812 1051.87 48.111 1053.53 46.451C1056.75 43.232 1060.75 41.6226 1065.53 41.6226C1068.42 41.6226 1070.75 42.2907 1072.51 43.6268V40.833C1071.62 39.6993 1070.75 38.9402 1069.9 38.5555C1069.07 38.1709 1067.93 37.9988 1066.47 38.0393C1063.21 38.1 1060.22 38.6972 1057.51 39.8309C1056.3 40.3371 1055.11 40.7926 1053.96 41.1975V38.9503C1054.22 38.7276 1054.61 38.3936 1055.11 37.9482C1055.19 37.847 1055.24 37.7862 1055.26 37.766V29.9313H1049.04V26.2872H1079.47V29.9313ZM1072.51 49.1536C1072.51 48.2628 1071.45 47.4632 1069.32 46.7546C1067.56 46.1675 1066.09 45.874 1064.92 45.874C1060.65 45.874 1057.23 47.4126 1054.66 50.4898C1053.62 51.7247 1053.11 52.7369 1053.11 53.5265C1053.53 55.0043 1055.2 55.7433 1058.12 55.7433C1061.88 55.7433 1065.33 54.8019 1068.44 52.9191C1071.16 51.2793 1072.51 50.0241 1072.51 49.1536Z" fill="black"/>
</g>
<g filter="url(#filter10_d_298_137)">
<path d="M1018.18 63.9499C1018.18 67.7154 1016.35 69.5981 1012.71 69.5981C1011.09 69.5981 1008.74 68.8288 1005.66 67.2902C1002.26 65.5897 999.409 64.7394 997.101 64.7394C992.141 64.7394 987.464 66.693 983.071 70.6002C980.966 72.483 979.316 74.6998 978.121 77.2506C978.04 76.9267 978 76.4105 978 75.7019C978 73.2726 978.729 70.8533 980.186 68.4442C981.523 66.2173 983.253 64.3548 985.379 62.8567C987.768 61.1763 990.491 60.3362 993.548 60.3362C995.653 60.3362 997.486 60.6905 999.044 61.399C999.874 61.7837 1001.47 62.7757 1003.84 64.375C1005.87 65.7516 1007.42 66.44 1008.49 66.44C1011.16 66.44 1013.29 65.3366 1014.87 63.13C1015.55 62.1785 1015.9 61.2472 1015.9 60.3362C1015.9 58.7369 1015.41 57.4007 1014.44 56.3277C1013.47 55.2345 1012.19 54.6879 1010.61 54.6879C1009.16 54.6879 1006.76 55.4268 1003.42 56.9047C1000.08 58.3623 997.678 59.0911 996.22 59.0911C995.147 59.0911 993.852 58.5547 992.333 57.4817C989.175 55.2345 987.596 53.1392 987.596 51.1957C987.596 50.1227 988.193 49.1409 989.388 48.2501C990.461 47.4201 991.564 46.9544 992.698 46.8532L992.758 46.5192L991.27 44.4239C990.44 43.2497 990.025 41.9844 990.025 40.628C990.025 35.9717 993.831 33.6435 1001.44 33.6435C1001.67 33.6031 1001.82 33.4209 1001.9 33.0969V29.7262H986.169V26.0822H1017.39V29.7262H1006.61V34.8279C1006.61 35.7794 1006.88 36.3665 1007.43 36.5892C1007.77 36.5892 1008.21 36.2754 1008.73 35.6478L1009.89 34.2509C1010.19 33.9472 1010.74 33.7448 1011.53 33.6435C1012.8 33.6435 1014.02 34.3724 1015.17 35.83C1015.7 36.4981 1016.04 37.1661 1016.2 37.8342L1013.01 41.4782C1012.97 40.547 1012.78 39.6967 1012.44 38.9274C1011.97 37.8949 1011.36 37.3787 1010.61 37.3787C1010.33 37.3787 1010 37.5103 1009.61 37.7735C1009.23 38.0366 1009.04 38.2998 1009.04 38.563C1009.04 38.8667 1009.17 39.2311 1009.43 39.6562C1009.73 40.1623 1009.91 40.4761 1009.95 40.5976C1010.09 41.0632 1010.16 41.6503 1010.16 42.3589C1010.16 45.0919 1009.05 46.9443 1006.82 47.9161C1005.34 48.5639 1003.01 48.8878 999.834 48.8878C995.785 48.8878 993.022 49.7887 991.544 51.5905C990.957 52.299 990.673 52.876 990.693 53.3214C990.714 53.9287 991.017 54.4652 991.604 54.9309C992.192 55.3762 992.799 55.5989 993.426 55.5989C994.58 55.5989 996.797 54.7993 1000.08 53.1999C1003.94 51.3172 1007.06 50.3555 1009.43 50.3151C1011.6 50.2746 1013.42 51.2362 1014.9 53.1999C1016.09 54.7588 1016.95 56.7428 1017.48 59.1519C1017.94 61.2776 1018.18 62.8769 1018.18 63.9499ZM1006.36 39.5651C1006.36 37.1155 1005.06 35.8907 1002.45 35.8907C1000.34 35.8907 998.346 36.6296 996.463 38.1075C994.439 39.6866 993.426 41.4985 993.426 43.5432C993.426 44.6567 993.852 45.6082 994.702 46.3977C995.572 47.1873 996.564 47.582 997.678 47.582C998.832 47.6023 1000.14 47.1873 1001.6 46.337C1002.89 45.5879 1003.96 44.7174 1004.81 43.7254C1005.85 42.5107 1006.36 41.124 1006.36 39.5651Z" fill="black"/>
</g>
<path d="M1071.76 76.0733H1067.78V82.4015C1067.78 82.5797 1067.84 82.7527 1067.96 82.9204C1068.08 83.1038 1068.22 83.1955 1068.4 83.1955C1069.18 83.1955 1069.57 82.3884 1069.57 80.7743L1071.15 81.6783C1070.54 83.0147 1069.61 83.6803 1068.35 83.675C1067.61 83.6698 1067.04 83.3344 1066.63 82.6688C1066.46 82.3806 1066.37 82.0923 1066.37 81.8041V76.0733H1064.72V75.13H1066.37V72.4886L1067.78 73.4713V75.13H1071.76V76.0733ZM1080.29 76.0733H1073.95V78.4395C1074.52 77.8159 1075.05 77.4149 1075.53 77.2368C1075.81 77.1372 1076.11 77.0874 1076.45 77.0874C1077.73 77.0874 1078.69 77.7163 1079.32 78.9741C1079.6 79.5243 1079.74 80.0668 1079.74 80.6013C1079.74 81.5761 1079.34 82.4565 1078.54 83.2427C1078.27 83.5047 1078.07 83.6855 1077.94 83.7851L1076.65 83.0147C1076.97 82.674 1077.34 82.2548 1077.76 81.7569C1078.22 81.1961 1078.46 80.4886 1078.47 79.6344C1078.47 79.1261 1078.36 78.7016 1078.12 78.3609C1077.85 77.9626 1077.47 77.7687 1076.99 77.7792C1076.54 77.7897 1076.05 77.96 1075.54 78.2902C1075.08 78.5836 1074.7 78.9348 1074.39 79.3435C1074.06 79.7838 1073.9 80.2083 1073.9 80.617V83.7379L1072.43 82.9518V76.0733H1071.56V75.13H1072.43C1072.43 73.5892 1072.03 72.2738 1071.23 71.1837C1070.74 70.5286 1070.3 70.0674 1069.89 69.8001L1071.48 69.7844C1072.36 70.2666 1073.06 71.3069 1073.58 72.9053C1073.82 73.6652 1073.95 74.4068 1073.95 75.13H1080.29V76.0733ZM1088.49 76.0733H1086.34V77.622C1086.59 77.6796 1086.77 77.7504 1086.88 77.8342V78.7618C1086.25 78.5469 1085.6 78.4395 1084.93 78.4395C1084.44 78.4395 1083.97 78.5207 1083.51 78.6832C1082.9 78.8981 1082.6 79.2047 1082.59 79.603C1082.58 80.0222 1083.18 80.2319 1084.38 80.2319C1084.4 80.2319 1084.57 80.224 1084.89 80.2083L1085.36 80.1847V80.9079C1084.65 80.9289 1084.2 80.9472 1084.02 80.9629C1082.77 81.073 1082.14 81.4346 1082.14 82.0478C1082.14 82.3884 1082.36 82.6557 1082.8 82.8496C1083.14 83.0016 1083.5 83.0776 1083.9 83.0776C1085.6 83.0776 1086.98 82.3229 1088.03 80.8136V82.8024C1087.13 83.3737 1086.06 83.6593 1084.83 83.6593C1083.49 83.6593 1082.32 83.3475 1081.34 82.7238C1080.87 82.4199 1080.63 82.0714 1080.63 81.6783C1080.63 81.2957 1080.79 80.9629 1081.13 80.6799C1081.33 80.507 1081.67 80.3078 1082.14 80.0825L1081.63 79.7838C1081.32 79.6056 1081.16 79.3671 1081.16 79.0684C1081.16 78.4186 1081.65 77.9521 1082.63 77.6691C1083.38 77.4543 1084.21 77.3468 1085.14 77.3468V76.0733H1080.1V75.13H1088.49V76.0733ZM1101.51 76.0733H1094.93V81.1123C1094.93 81.4477 1095.01 81.7936 1095.15 82.15C1095.43 82.8784 1095.91 83.2427 1096.58 83.2427C1097.47 83.2427 1098.15 82.8679 1098.62 82.1185C1098.98 81.542 1099.16 80.9996 1099.16 80.4913V77.3625H1100.76V84.0602C1100.63 83.9868 1100.4 83.8742 1100.05 83.7222L1099.15 83.3213V82.6924C1098.53 83.1431 1098 83.4287 1097.56 83.5492C1097.29 83.6226 1096.98 83.6593 1096.61 83.6593C1095.45 83.6593 1094.54 83.1483 1093.88 82.1264C1093.58 81.66 1093.43 81.1516 1093.43 80.6013V76.0733H1092.48V75.13H1101.51V76.0733ZM1104.93 76.0733H1104.09V75.13H1104.93V76.0733ZM1102.24 76.0733H1101.34V75.13H1102.24V76.0733ZM1103.83 74.1788V83.8558C1103.78 83.8401 1103.71 83.8113 1103.63 83.7694L1103.22 83.5571C1102.75 83.316 1102.51 83.1955 1102.48 83.1955V74.1945C1102.48 73.6442 1102.37 73.0599 1102.16 72.4415C1101.86 71.5768 1101.4 70.7906 1100.77 70.0831L1100.27 69.525H1101.95C1102.82 70.395 1103.39 71.4615 1103.66 72.7245C1103.78 73.259 1103.83 73.7438 1103.83 74.1788ZM1111.76 76.0733H1107.78V82.4015C1107.78 82.5797 1107.84 82.7527 1107.95 82.9204C1108.07 83.1038 1108.22 83.1955 1108.39 83.1955C1109.17 83.1955 1109.56 82.3884 1109.56 80.7743L1111.14 81.6783C1110.54 83.0147 1109.61 83.6803 1108.35 83.675C1107.61 83.6698 1107.04 83.3344 1106.63 82.6688C1106.45 82.3806 1106.36 82.0923 1106.36 81.8041V76.0733H1104.72V75.13H1106.36V72.4886L1107.78 73.4713V75.13H1111.76V76.0733ZM1114.31 74.3046C1114.29 74.3255 1114.23 74.336 1114.13 74.336C1114.05 74.336 1113.97 74.3255 1113.91 74.3046L1113.4 73.259C1113.19 72.9289 1112.9 72.7061 1112.54 72.5908C1112.19 72.4703 1111.97 72.3393 1111.88 72.1978C1111.8 71.9567 1111.65 71.5872 1111.43 71.0894V70.9086H1111.73C1112.14 71.0343 1112.46 71.1522 1112.72 71.2623C1113.13 71.4457 1113.41 71.658 1113.55 71.8991C1113.63 72.0301 1113.75 72.3655 1113.91 72.9053C1114.06 73.4136 1114.19 73.7674 1114.3 73.9665C1114.31 74.0609 1114.31 74.1735 1114.31 74.3046ZM1114.78 76.0733H1111.58V75.13H1114.78V76.0733ZM1113.88 83.8401L1112.56 83.109V77.0402H1113.88V83.8401ZM1126.7 76.0733H1124.11L1124.12 77.1739C1124.84 77.4359 1125.35 77.7792 1125.66 78.2037C1125.99 78.6439 1126.15 79.2387 1126.15 79.9882C1126.15 81.0678 1125.72 81.9954 1124.85 82.771C1124.69 82.9177 1124.44 83.109 1124.11 83.3449C1123.69 83.6383 1123.43 83.7851 1123.32 83.7851C1123.21 83.7851 1122.71 83.3239 1121.8 82.4015C1122.36 82.3701 1122.94 82.1919 1123.54 81.867C1124.11 81.563 1124.6 81.1909 1125 80.7507C1125.43 80.279 1125.64 79.7785 1125.64 79.2492C1125.64 78.7251 1125.35 78.3609 1124.77 78.1565C1124.48 78.0569 1124.2 78.0124 1123.93 78.0229C1122.23 78.091 1121.19 79.0789 1120.81 80.9865L1119.19 80.3262C1119.19 79.886 1119.36 79.3933 1119.7 78.8483C1119.83 78.6491 1119.9 78.5365 1119.9 78.5103C1119.9 78.2639 1119.55 78.1408 1118.84 78.1408C1117.93 78.1408 1117.23 78.5391 1116.73 79.3357C1116.51 79.6868 1116.4 80.0379 1116.4 80.3891C1116.4 81.1228 1116.73 81.8172 1117.41 82.4723L1118.9 83.9187C1117.99 83.6043 1117.14 83.1483 1116.36 82.5509C1115.32 81.7543 1114.8 80.9 1114.8 79.9882C1114.8 78.8352 1115.38 77.9757 1116.54 77.4097C1117.05 77.1634 1117.58 77.0402 1118.12 77.0402C1118.81 77.0402 1119.5 77.2472 1120.19 77.6613C1120.45 77.8185 1120.61 77.9023 1120.65 77.9128C1121.05 77.7399 1121.48 77.5538 1121.96 77.3547C1122.21 77.2499 1122.47 77.1791 1122.72 77.1424L1122.74 76.0733H1114.56V75.13H1126.7V76.0733ZM1134.29 76.0733H1129.05V77.3311C1129.07 77.3311 1129.09 77.3416 1129.11 77.3625C1129.14 77.3835 1129.15 77.394 1129.17 77.394C1129.13 77.394 1129.1 77.3914 1129.1 77.3861C1129.1 77.3599 1129.49 77.2761 1130.27 77.1346C1130.56 77.0822 1130.84 77.056 1131.13 77.056C1132.31 77.056 1133.06 77.3861 1133.4 78.0465C1133.62 78.4867 1133.74 79.375 1133.74 80.7114V83.7379C1133.63 83.696 1133.21 83.5257 1132.49 83.2269C1132.49 83.0592 1132.45 82.9518 1132.38 82.9046C1132.11 83.0671 1131.88 83.1903 1131.7 83.2741C1131.13 83.5414 1130.48 83.675 1129.73 83.675C1128.7 83.675 1127.9 83.3501 1127.34 82.7002C1127.07 82.3858 1126.93 82.0347 1126.93 81.6469C1126.93 81.2119 1127.14 80.7795 1127.57 80.3498C1128.41 79.5165 1129.44 79.0998 1130.68 79.0998C1131.43 79.0998 1132.03 79.2728 1132.49 79.6187V78.8955C1132.26 78.602 1132.03 78.4054 1131.81 78.3059C1131.6 78.2063 1131.3 78.1618 1130.92 78.1722C1130.08 78.188 1129.31 78.3426 1128.6 78.636C1128.29 78.7671 1127.98 78.885 1127.68 78.9898V78.4081C1127.75 78.3504 1127.85 78.2639 1127.98 78.1487C1128 78.1224 1128.02 78.1067 1128.02 78.1015V76.0733H1126.41V75.13H1134.29V76.0733ZM1132.49 81.0494C1132.49 80.8188 1132.21 80.6118 1131.66 80.4284C1131.21 80.2764 1130.83 80.2004 1130.52 80.2004C1129.42 80.2004 1128.53 80.5987 1127.86 81.3953C1127.6 81.715 1127.46 81.977 1127.46 82.1814C1127.57 82.564 1128.01 82.7553 1128.76 82.7553C1129.74 82.7553 1130.63 82.5116 1131.43 82.0242C1132.14 81.5997 1132.49 81.2748 1132.49 81.0494ZM1141.22 76.0733H1137.24V82.4015C1137.24 82.5797 1137.3 82.7527 1137.42 82.9204C1137.54 83.1038 1137.68 83.1955 1137.86 83.1955C1138.64 83.1955 1139.03 82.3884 1139.03 80.7743L1140.61 81.6783C1140 83.0147 1139.07 83.6803 1137.81 83.675C1137.08 83.6698 1136.5 83.3344 1136.1 82.6688C1135.92 82.3806 1135.83 82.0923 1135.83 81.8041V76.0733H1134.19V75.13H1135.83V72.4886L1137.24 73.4713V75.13H1141.22V76.0733ZM1149.4 76.0733H1147.25V77.622C1147.5 77.6796 1147.67 77.7504 1147.78 77.8342V78.7618C1147.16 78.5469 1146.51 78.4395 1145.84 78.4395C1145.35 78.4395 1144.88 78.5207 1144.42 78.6832C1143.81 78.8981 1143.51 79.2047 1143.5 79.603C1143.49 80.0222 1144.08 80.2319 1145.28 80.2319C1145.31 80.2319 1145.48 80.224 1145.8 80.2083L1146.27 80.1847V80.9079C1145.55 80.9289 1145.11 80.9472 1144.93 80.9629C1143.68 81.073 1143.05 81.4346 1143.05 82.0478C1143.05 82.3884 1143.27 82.6557 1143.7 82.8496C1144.05 83.0016 1144.41 83.0776 1144.81 83.0776C1146.51 83.0776 1147.89 82.3229 1148.94 80.8136V82.8024C1148.04 83.3737 1146.97 83.6593 1145.74 83.6593C1144.39 83.6593 1143.23 83.3475 1142.25 82.7238C1141.77 82.4199 1141.54 82.0714 1141.54 81.6783C1141.54 81.2957 1141.7 80.9629 1142.04 80.6799C1142.24 80.507 1142.58 80.3078 1143.05 80.0825L1142.53 79.7838C1142.22 79.6056 1142.07 79.3671 1142.07 79.0684C1142.07 78.4186 1142.56 77.9521 1143.54 77.6691C1144.28 77.4543 1145.12 77.3468 1146.05 77.3468V76.0733H1141.01V75.13H1149.4V76.0733ZM1157.09 76.0733H1156.26V75.13H1157.09V76.0733ZM1154.4 76.0733H1153.51V75.13H1154.4V76.0733ZM1156 74.1788V83.8558C1155.95 83.8401 1155.88 83.8113 1155.8 83.7694L1155.39 83.5571C1154.92 83.316 1154.67 83.1955 1154.65 83.1955V74.1945C1154.65 73.6442 1154.54 73.0599 1154.33 72.4415C1154.03 71.5768 1153.56 70.7906 1152.93 70.0831L1152.44 69.525H1154.11C1154.98 70.395 1155.55 71.4615 1155.83 72.7245C1155.94 73.259 1156 73.7438 1156 74.1788ZM1159.62 74.3046C1159.6 74.3255 1159.54 74.336 1159.44 74.336C1159.36 74.336 1159.29 74.3255 1159.22 74.3046L1158.71 73.259C1158.5 72.9289 1158.22 72.7061 1157.85 72.5908C1157.5 72.4703 1157.28 72.3393 1157.19 72.1978C1157.12 71.9567 1156.96 71.5872 1156.74 71.0894V70.9086H1157.05C1157.45 71.0343 1157.78 71.1522 1158.03 71.2623C1158.44 71.4457 1158.72 71.658 1158.86 71.8991C1158.94 72.0301 1159.06 72.3655 1159.22 72.9053C1159.37 73.4136 1159.5 73.7674 1159.61 73.9665C1159.62 74.0609 1159.62 74.1735 1159.62 74.3046ZM1160.09 76.0733H1156.89V75.13H1160.09V76.0733ZM1159.19 83.8401L1157.87 83.109V77.0402H1159.19V83.8401ZM1168.65 76.0733H1162.67V79.0055C1163.11 78.4657 1163.63 77.9993 1164.23 77.6062C1164.64 77.339 1165.05 77.2053 1165.46 77.2053C1166.28 77.2053 1166.98 77.5224 1167.55 78.1565C1168.07 78.7382 1168.33 79.3697 1168.33 80.051C1168.33 80.8372 1167.95 81.6364 1167.19 82.4487C1166.43 83.2558 1165.66 83.6593 1164.87 83.6593C1164.48 83.6593 1164.06 83.4811 1163.62 83.1247C1163.48 83.0147 1163.15 82.6871 1162.61 82.1421V83.7536L1161.24 83.1641V76.0733H1159.95V75.13H1161.24C1161.24 73.8827 1160.89 72.659 1160.2 71.4588C1159.65 70.5103 1159.12 69.8159 1158.62 69.3756H1160.34C1160.86 69.8159 1161.31 70.374 1161.7 71.0501C1162.35 72.1873 1162.67 73.5473 1162.67 75.13H1168.65V76.0733ZM1167.45 80.8607C1167.45 80.3734 1167.18 79.8467 1166.64 79.2807C1166.03 78.6465 1165.32 78.3295 1164.52 78.3295C1164.02 78.3295 1163.55 78.5784 1163.11 79.0763C1162.93 79.2754 1162.85 79.4248 1162.85 79.5243C1162.85 79.9593 1163.04 80.4624 1163.43 81.0337C1164.25 82.2391 1165.09 82.8417 1165.96 82.8417C1166.51 82.8417 1166.94 82.488 1167.25 81.7805C1167.39 81.4713 1167.45 81.1647 1167.45 80.8607ZM1176.45 76.0733H1168.51V75.13H1176.45V76.0733ZM1175.8 78.8955C1175.8 79.2047 1175.62 79.5532 1175.24 79.941C1174.93 80.2712 1174.6 80.5175 1174.25 80.6799L1173.07 79.3435C1173.43 79.3121 1173.77 79.1811 1174.09 78.9505C1174.45 78.6884 1174.64 78.3897 1174.64 78.0543C1174.64 77.8761 1174.52 77.7242 1174.29 77.5984C1174.09 77.4831 1173.9 77.4254 1173.7 77.4254C1173.3 77.4254 1172.87 77.6193 1172.41 78.0072C1171.47 78.7933 1171 79.6632 1171 80.617V83.9502L1169.49 83.1641V77.3468H1171.01V77.9443C1171.24 77.7189 1171.71 77.4831 1172.41 77.2368C1172.76 77.1162 1173.12 77.056 1173.48 77.056C1174.24 77.056 1174.89 77.3468 1175.42 77.9285C1175.67 78.2115 1175.8 78.5338 1175.8 78.8955ZM1184 76.0733H1178.77V77.3311C1178.79 77.3311 1178.81 77.3416 1178.83 77.3625C1178.85 77.3835 1178.87 77.394 1178.88 77.394C1178.84 77.394 1178.82 77.3914 1178.81 77.3861C1178.81 77.3599 1179.2 77.2761 1179.98 77.1346C1180.27 77.0822 1180.56 77.056 1180.84 77.056C1182.02 77.056 1182.78 77.3861 1183.11 78.0465C1183.34 78.4867 1183.45 79.375 1183.45 80.7114V83.7379C1183.34 83.696 1182.92 83.5257 1182.2 83.2269C1182.2 83.0592 1182.17 82.9518 1182.1 82.9046C1181.82 83.0671 1181.59 83.1903 1181.41 83.2741C1180.85 83.5414 1180.19 83.675 1179.44 83.675C1178.41 83.675 1177.61 83.3501 1177.05 82.7002C1176.78 82.3858 1176.64 82.0347 1176.64 81.6469C1176.64 81.2119 1176.86 80.7795 1177.29 80.3498C1178.12 79.5165 1179.16 79.0998 1180.39 79.0998C1181.14 79.0998 1181.74 79.2728 1182.2 79.6187V78.8955C1181.97 78.602 1181.74 78.4054 1181.52 78.3059C1181.31 78.2063 1181.01 78.1618 1180.64 78.1722C1179.79 78.188 1179.02 78.3426 1178.32 78.636C1178 78.7671 1177.7 78.885 1177.4 78.9898V78.4081C1177.47 78.3504 1177.57 78.2639 1177.7 78.1487C1177.72 78.1224 1177.73 78.1067 1177.74 78.1015V76.0733H1176.12V75.13H1184V76.0733ZM1182.2 81.0494C1182.2 80.8188 1181.93 80.6118 1181.38 80.4284C1180.92 80.2764 1180.54 80.2004 1180.24 80.2004C1179.13 80.2004 1178.24 80.5987 1177.58 81.3953C1177.31 81.715 1177.18 81.977 1177.18 82.1814C1177.29 82.564 1177.72 82.7553 1178.47 82.7553C1179.45 82.7553 1180.34 82.5116 1181.15 82.0242C1181.85 81.5997 1182.2 81.2748 1182.2 81.0494ZM1191.85 76.0733H1183.9V75.13H1191.85V76.0733ZM1191.19 78.8955C1191.19 79.2047 1191.01 79.5532 1190.64 79.941C1190.32 80.2712 1189.99 80.5175 1189.65 80.6799L1188.47 79.3435C1188.82 79.3121 1189.16 79.1811 1189.48 78.9505C1189.85 78.6884 1190.03 78.3897 1190.03 78.0543C1190.03 77.8761 1189.92 77.7242 1189.68 77.5984C1189.49 77.4831 1189.29 77.4254 1189.1 77.4254C1188.69 77.4254 1188.26 77.6193 1187.8 78.0072C1186.86 78.7933 1186.39 79.6632 1186.39 80.617V83.9502L1184.88 83.1641V77.3468H1186.41V77.9443C1186.63 77.7189 1187.1 77.4831 1187.81 77.2368C1188.15 77.1162 1188.51 77.056 1188.87 77.056C1189.63 77.056 1190.28 77.3468 1190.81 77.9285C1191.07 78.2115 1191.19 78.5338 1191.19 78.8955ZM1194.37 74.3046C1194.35 74.3255 1194.29 74.336 1194.19 74.336C1194.11 74.336 1194.03 74.3255 1193.97 74.3046L1193.46 73.259C1193.25 72.9289 1192.96 72.7061 1192.6 72.5908C1192.24 72.4703 1192.02 72.3393 1191.94 72.1978C1191.86 71.9567 1191.71 71.5872 1191.48 71.0894V70.9086H1191.79C1192.19 71.0343 1192.52 71.1522 1192.77 71.2623C1193.19 71.4457 1193.47 71.658 1193.61 71.8991C1193.69 72.0301 1193.81 72.3655 1193.97 72.9053C1194.12 73.4136 1194.25 73.7674 1194.35 73.9665C1194.36 74.0609 1194.37 74.1735 1194.37 74.3046ZM1194.83 76.0733H1191.63V75.13H1194.83V76.0733ZM1193.94 83.8401L1192.62 83.109V77.0402H1193.94V83.8401ZM1202.46 76.0733H1197.22V77.3311C1197.24 77.3311 1197.27 77.3416 1197.29 77.3625C1197.31 77.3835 1197.33 77.394 1197.34 77.394C1197.3 77.394 1197.28 77.3914 1197.27 77.3861C1197.27 77.3599 1197.66 77.2761 1198.44 77.1346C1198.73 77.0822 1199.02 77.056 1199.3 77.056C1200.48 77.056 1201.24 77.3861 1201.57 78.0465C1201.8 78.4867 1201.91 79.375 1201.91 80.7114V83.7379C1201.8 83.696 1201.38 83.5257 1200.66 83.2269C1200.66 83.0592 1200.62 82.9518 1200.56 82.9046C1200.28 83.0671 1200.05 83.1903 1199.87 83.2741C1199.31 83.5414 1198.65 83.675 1197.9 83.675C1196.87 83.675 1196.07 83.3501 1195.51 82.7002C1195.24 82.3858 1195.1 82.0347 1195.1 81.6469C1195.1 81.2119 1195.32 80.7795 1195.75 80.3498C1196.58 79.5165 1197.61 79.0998 1198.85 79.0998C1199.6 79.0998 1200.2 79.2728 1200.66 79.6187V78.8955C1200.43 78.602 1200.2 78.4054 1199.98 78.3059C1199.77 78.2063 1199.47 78.1618 1199.09 78.1722C1198.25 78.188 1197.48 78.3426 1196.78 78.636C1196.46 78.7671 1196.15 78.885 1195.86 78.9898V78.4081C1195.92 78.3504 1196.02 78.2639 1196.15 78.1487C1196.18 78.1224 1196.19 78.1067 1196.19 78.1015V76.0733H1194.58V75.13H1202.46V76.0733ZM1200.66 81.0494C1200.66 80.8188 1200.38 80.6118 1199.83 80.4284C1199.38 80.2764 1199 80.2004 1198.69 80.2004C1197.59 80.2004 1196.7 80.5987 1196.04 81.3953C1195.77 81.715 1195.64 81.977 1195.64 82.1814C1195.75 82.564 1196.18 82.7553 1196.93 82.7553C1197.91 82.7553 1198.8 82.5116 1199.61 82.0242C1200.31 81.5997 1200.66 81.2748 1200.66 81.0494ZM1210.81 76.0733H1202.36V75.13H1210.81V76.0733ZM1209.12 79.5243C1209.12 78.2666 1208.52 77.6377 1207.33 77.6377C1206.45 77.6377 1205.72 78.0989 1205.12 79.0212C1204.6 79.8388 1204.34 80.7088 1204.34 81.6311V83.9187L1203.05 83.2427V77.3311H1204.4V78.2666L1205.1 77.7399C1205.72 77.2734 1206.37 77.0402 1207.06 77.0402C1207.99 77.0402 1208.76 77.4018 1209.38 78.1251C1209.95 78.8064 1210.24 79.6213 1210.24 80.5699C1210.24 81.7595 1209.74 82.902 1208.73 83.9973L1207.21 83.0461C1207.69 82.5797 1208.09 82.15 1208.42 81.7569C1208.88 81.2014 1209.12 80.4572 1209.12 79.5243ZM1222.69 76.0733H1217.46V77.3311C1217.48 77.3311 1217.5 77.3416 1217.52 77.3625C1217.54 77.3835 1217.56 77.394 1217.58 77.394C1217.53 77.394 1217.51 77.3914 1217.51 77.3861C1217.51 77.3599 1217.9 77.2761 1218.68 77.1346C1218.96 77.0822 1219.25 77.056 1219.53 77.056C1220.71 77.056 1221.47 77.3861 1221.81 78.0465C1222.03 78.4867 1222.14 79.375 1222.14 80.7114V83.7379C1222.03 83.696 1221.62 83.5257 1220.89 83.2269C1220.89 83.0592 1220.86 82.9518 1220.79 82.9046C1220.51 83.0671 1220.29 83.1903 1220.11 83.2741C1219.54 83.5414 1218.88 83.675 1218.13 83.675C1217.1 83.675 1216.3 83.3501 1215.74 82.7002C1215.47 82.3858 1215.34 82.0347 1215.34 81.6469C1215.34 81.2119 1215.55 80.7795 1215.98 80.3498C1216.81 79.5165 1217.85 79.0998 1219.09 79.0998C1219.83 79.0998 1220.44 79.2728 1220.89 79.6187V78.8955C1220.66 78.602 1220.44 78.4054 1220.22 78.3059C1220 78.2063 1219.71 78.1618 1219.33 78.1722C1218.49 78.188 1217.71 78.3426 1217.01 78.636C1216.7 78.7671 1216.39 78.885 1216.09 78.9898V78.4081C1216.16 78.3504 1216.26 78.2639 1216.39 78.1487C1216.41 78.1224 1216.42 78.1067 1216.43 78.1015V76.0733H1214.82V75.13H1222.69V76.0733ZM1220.89 81.0494C1220.89 80.8188 1220.62 80.6118 1220.07 80.4284C1219.61 80.2764 1219.23 80.2004 1218.93 80.2004C1217.82 80.2004 1216.94 80.5987 1216.27 81.3953C1216 81.715 1215.87 81.977 1215.87 82.1814C1215.98 82.564 1216.41 82.7553 1217.17 82.7553C1218.14 82.7553 1219.03 82.5116 1219.84 82.0242C1220.54 81.5997 1220.89 81.2748 1220.89 81.0494ZM1229.63 76.0733H1225.65V82.4015C1225.65 82.5797 1225.71 82.7527 1225.82 82.9204C1225.94 83.1038 1226.09 83.1955 1226.26 83.1955C1227.04 83.1955 1227.43 82.3884 1227.43 80.7743L1229.01 81.6783C1228.41 83.0147 1227.48 83.6803 1226.22 83.675C1225.48 83.6698 1224.91 83.3344 1224.5 82.6688C1224.32 82.3806 1224.23 82.0923 1224.23 81.8041V76.0733H1222.59V75.13H1224.23V72.4886L1225.65 73.4713V75.13H1229.63V76.0733ZM1242.88 75.13L1242.87 76.0733H1236.23L1236.25 80.7114C1236.25 81.3927 1236.36 81.8879 1236.6 82.1971C1236.87 82.5378 1237.33 82.7238 1238 82.7553C1238.42 82.7762 1238.85 82.6374 1239.27 82.3386C1239.65 82.0766 1239.96 81.7438 1240.21 81.3403C1240.48 80.9 1240.61 80.4703 1240.61 80.051L1240.59 77.0874L1242.24 77.6534V85.7032C1242.24 86.6832 1241.79 87.4824 1240.88 88.1008C1240.05 88.6721 1239.07 88.9577 1237.95 88.9577C1236.05 88.9577 1234.71 88.4415 1233.9 87.4091C1233.58 86.9898 1233.42 86.6308 1233.42 86.3321C1233.42 85.677 1233.79 85.1267 1234.52 84.6812C1235.16 84.2882 1235.83 84.0917 1236.52 84.0917L1237.52 85.4281C1236.62 85.4909 1235.81 85.6822 1235.1 86.0019C1234.63 86.2115 1234.4 86.4814 1234.4 86.8116C1234.46 87.2885 1234.82 87.7104 1235.48 88.0773C1235.87 88.2974 1236.38 88.4074 1237 88.4074C1238.43 88.4074 1239.51 87.9436 1240.24 87.016C1240.59 86.5758 1240.76 86.0622 1240.76 85.4752V82.2757C1240.42 82.8313 1239.51 83.109 1238.03 83.109C1236.79 83.109 1235.85 82.6845 1235.21 81.8355C1234.89 81.4215 1234.74 80.9498 1234.74 80.4205V76.0733H1233.62V75.13H1242.88ZM1251.17 76.0733H1249.4V78.2351C1249.4 78.2823 1249.61 78.5155 1250.03 78.9348C1250.35 79.3226 1250.51 79.8781 1250.51 80.6013C1250.51 81.8015 1249.97 82.6898 1248.91 83.2662C1248.41 83.5388 1247.86 83.675 1247.27 83.675C1246.41 83.675 1245.52 83.2951 1244.61 82.5352C1243.66 81.7386 1243.18 80.8738 1243.18 79.941C1243.18 79.5112 1243.33 79.0658 1243.64 78.6046C1243.92 78.1906 1244.26 77.8473 1244.65 77.5748C1245.12 77.2499 1245.69 77.0874 1246.36 77.0874C1246.72 77.0874 1247.26 77.1844 1247.98 77.3783C1248.01 77.3783 1248.03 77.3573 1248.03 77.3154V76.0733H1242.64V75.13H1251.17V76.0733ZM1249.35 79.5558C1249.35 78.8168 1249.03 78.3216 1248.38 78.07C1248.13 77.9757 1247.93 77.9285 1247.75 77.9285C1247.1 77.9285 1246.41 78.2194 1245.66 78.8011C1244.78 79.4824 1244.34 80.3498 1244.34 81.4032C1244.34 81.8958 1244.63 82.2993 1245.19 82.6138C1245.45 82.7553 1245.71 82.826 1245.97 82.826C1246.62 82.826 1247.33 82.5116 1248.11 81.8827C1248.94 81.2119 1249.35 80.4362 1249.35 79.5558ZM1259.84 76.0733H1253.26V81.1123C1253.26 81.4477 1253.33 81.7936 1253.47 82.15C1253.76 82.8784 1254.23 83.2427 1254.9 83.2427C1255.8 83.2427 1256.48 82.8679 1256.94 82.1185C1257.31 81.542 1257.49 80.9996 1257.49 80.4913V77.3625H1259.08V84.0602C1258.96 83.9868 1258.72 83.8742 1258.38 83.7222L1257.47 83.3213V82.6924C1256.85 83.1431 1256.32 83.4287 1255.88 83.5492C1255.62 83.6226 1255.3 83.6593 1254.93 83.6593C1253.77 83.6593 1252.86 83.1483 1252.2 82.1264C1251.91 81.66 1251.76 81.1516 1251.76 80.6013V76.0733H1250.8V75.13H1259.84V76.0733ZM1267.64 76.0733H1259.7V75.13H1267.64V76.0733ZM1266.99 78.8955C1266.99 79.2047 1266.8 79.5532 1266.43 79.941C1266.12 80.2712 1265.79 80.5175 1265.44 80.6799L1264.26 79.3435C1264.62 79.3121 1264.96 79.1811 1265.28 78.9505C1265.64 78.6884 1265.83 78.3897 1265.83 78.0543C1265.83 77.8761 1265.71 77.7242 1265.48 77.5984C1265.28 77.4831 1265.09 77.4254 1264.89 77.4254C1264.49 77.4254 1264.06 77.6193 1263.59 78.0072C1262.66 78.7933 1262.19 79.6632 1262.19 80.617V83.9502L1260.68 83.1641V77.3468H1262.2V77.9443C1262.43 77.7189 1262.9 77.4831 1263.6 77.2368C1263.95 77.1162 1264.31 77.056 1264.67 77.056C1265.43 77.056 1266.08 77.3468 1266.61 77.9285C1266.86 78.2115 1266.99 78.5338 1266.99 78.8955ZM1277.05 76.0733H1274.44V83.7222C1274.39 83.7222 1273.93 83.5178 1273.08 83.109V76.0733H1271.74V75.13H1273.01C1273.01 75.0042 1272.89 74.7736 1272.65 74.4382L1272.19 73.7936C1272.06 73.563 1271.99 73.3088 1271.99 73.0311C1271.99 72.7376 1272.11 72.4258 1272.34 72.0956C1272.55 71.8021 1272.8 71.5663 1273.08 71.3881C1273.43 71.1627 1273.84 71.0501 1274.31 71.0501C1275.27 71.0501 1275.97 71.3828 1276.41 72.0484C1276.61 72.3576 1276.74 72.7192 1276.78 73.1333C1276.31 72.41 1275.73 72.0484 1275.04 72.0484C1274.47 72.0484 1274.03 72.2712 1273.74 72.7166C1273.59 72.9262 1273.52 73.1437 1273.52 73.3691C1273.52 73.7255 1273.81 74.1657 1274.38 74.6898C1274.42 74.8051 1274.44 74.9518 1274.44 75.13H1277.05V76.0733ZM1279.58 74.3046C1279.56 74.3255 1279.5 74.336 1279.4 74.336C1279.32 74.336 1279.25 74.3255 1279.18 74.3046L1278.67 73.259C1278.46 72.9289 1278.18 72.7061 1277.82 72.5908C1277.46 72.4703 1277.24 72.3393 1277.16 72.1978C1277.08 71.9567 1276.92 71.5872 1276.7 71.0894V70.9086H1277.01C1277.41 71.0343 1277.74 71.1522 1277.99 71.2623C1278.4 71.4457 1278.68 71.658 1278.82 71.8991C1278.9 72.0301 1279.02 72.3655 1279.18 72.9053C1279.34 73.4136 1279.46 73.7674 1279.57 73.9665C1279.58 74.0609 1279.58 74.1735 1279.58 74.3046ZM1280.05 76.0733H1276.85V75.13H1280.05V76.0733ZM1279.15 83.8401L1277.83 83.109V77.0402H1279.15V83.8401ZM1288.37 76.0733H1279.91V75.13H1288.37V76.0733ZM1286.68 79.5243C1286.68 78.2666 1286.08 77.6377 1284.89 77.6377C1284.01 77.6377 1283.27 78.0989 1282.68 79.0212C1282.16 79.8388 1281.9 80.7088 1281.9 81.6311V83.9187L1280.61 83.2427V77.3311H1281.96V78.2666L1282.66 77.7399C1283.28 77.2734 1283.93 77.0402 1284.62 77.0402C1285.55 77.0402 1286.32 77.4018 1286.93 78.1251C1287.51 78.8064 1287.8 79.6213 1287.8 80.5699C1287.8 81.7595 1287.3 82.902 1286.29 83.9973L1284.77 83.0461C1285.24 82.5797 1285.65 82.15 1285.98 81.7569C1286.44 81.2014 1286.68 80.4572 1286.68 79.5243ZM1296.42 84.9328C1296.42 85.9076 1295.95 86.395 1295.01 86.395C1294.59 86.395 1293.98 86.1958 1293.18 85.7975C1292.3 85.3573 1291.56 85.1372 1290.97 85.1372C1289.68 85.1372 1288.47 85.6429 1287.34 86.6544C1286.79 87.1418 1286.36 87.7156 1286.05 88.376C1286.03 88.2921 1286.02 88.1585 1286.02 87.9751C1286.02 87.3462 1286.21 86.7199 1286.59 86.0963C1286.93 85.5198 1287.38 85.0376 1287.93 84.6498C1288.55 84.2148 1289.26 83.9973 1290.05 83.9973C1290.59 83.9973 1291.07 84.089 1291.47 84.2725C1291.69 84.372 1292.1 84.6288 1292.71 85.0429C1293.24 85.3992 1293.64 85.5774 1293.92 85.5774C1294.61 85.5774 1295.16 85.2918 1295.57 84.7206C1295.74 84.4742 1295.83 84.2332 1295.83 83.9973C1295.83 83.5833 1295.71 83.2374 1295.46 82.9597C1295.2 82.6767 1294.87 82.5352 1294.47 82.5352C1294.09 82.5352 1293.47 82.7264 1292.6 83.109C1291.74 83.4864 1291.12 83.675 1290.74 83.675C1290.46 83.675 1290.13 83.5361 1289.73 83.2584C1288.92 82.6767 1288.51 82.1342 1288.51 81.6311C1288.51 81.3534 1288.66 81.0992 1288.97 80.8686C1289.25 80.6537 1289.53 80.5332 1289.83 80.507L1289.84 80.4205L1289.46 79.8781C1289.24 79.5741 1289.14 79.2466 1289.14 78.8955C1289.14 77.6901 1290.12 77.0874 1292.09 77.0874C1292.15 77.0769 1292.19 77.0298 1292.21 76.9459V76.0733H1288.14V75.13H1296.22V76.0733H1293.43V77.394C1293.43 77.6403 1293.5 77.7923 1293.64 77.8499C1293.73 77.8499 1293.84 77.7687 1293.98 77.6062L1294.28 77.2446C1294.36 77.166 1294.5 77.1136 1294.7 77.0874C1295.03 77.0874 1295.35 77.2761 1295.64 77.6534C1295.78 77.8263 1295.87 77.9993 1295.91 78.1722L1295.09 79.1156C1295.08 78.8745 1295.03 78.6544 1294.94 78.4552C1294.82 78.188 1294.66 78.0543 1294.47 78.0543C1294.39 78.0543 1294.31 78.0884 1294.21 78.1565C1294.11 78.2246 1294.06 78.2928 1294.06 78.3609C1294.06 78.4395 1294.09 78.5338 1294.16 78.6439C1294.24 78.7749 1294.28 78.8562 1294.29 78.8876C1294.33 79.0081 1294.35 79.1601 1294.35 79.3435C1294.35 80.051 1294.06 80.5306 1293.48 80.7821C1293.1 80.9498 1292.5 81.0337 1291.67 81.0337C1290.63 81.0337 1289.91 81.2669 1289.53 81.7333C1289.38 81.9168 1289.3 82.0661 1289.31 82.1814C1289.31 82.3386 1289.39 82.4775 1289.54 82.598C1289.7 82.7133 1289.85 82.771 1290.02 82.771C1290.31 82.771 1290.89 82.564 1291.74 82.15C1292.74 81.6626 1293.55 81.4136 1294.16 81.4032C1294.72 81.3927 1295.19 81.6416 1295.57 82.15C1295.88 82.5535 1296.11 83.0671 1296.24 83.6907C1296.36 84.241 1296.42 84.655 1296.42 84.9328ZM1293.36 78.6203C1293.36 77.9862 1293.03 77.6691 1292.35 77.6691C1291.81 77.6691 1291.29 77.8604 1290.8 78.243C1290.28 78.6518 1290.02 79.1208 1290.02 79.6501C1290.02 79.9384 1290.13 80.1847 1290.35 80.3891C1290.57 80.5935 1290.83 80.6957 1291.12 80.6957C1291.42 80.7009 1291.75 80.5935 1292.13 80.3734C1292.47 80.1794 1292.74 79.9541 1292.96 79.6973C1293.23 79.3828 1293.36 79.0239 1293.36 78.6203ZM1304.37 76.0733H1302.22V77.622C1302.47 77.6796 1302.65 77.7504 1302.76 77.8342V78.7618C1302.14 78.5469 1301.49 78.4395 1300.81 78.4395C1300.32 78.4395 1299.85 78.5207 1299.39 78.6832C1298.79 78.8981 1298.48 79.2047 1298.47 79.603C1298.46 80.0222 1299.06 80.2319 1300.26 80.2319C1300.29 80.2319 1300.46 80.224 1300.77 80.2083L1301.24 80.1847V80.9079C1300.53 80.9289 1300.08 80.9472 1299.91 80.9629C1298.65 81.073 1298.03 81.4346 1298.03 82.0478C1298.03 82.3884 1298.24 82.6557 1298.68 82.8496C1299.02 83.0016 1299.39 83.0776 1299.78 83.0776C1301.48 83.0776 1302.86 82.3229 1303.91 80.8136V82.8024C1303.01 83.3737 1301.95 83.6593 1300.72 83.6593C1299.37 83.6593 1298.2 83.3475 1297.22 82.7238C1296.75 82.4199 1296.51 82.0714 1296.51 81.6783C1296.51 81.2957 1296.68 80.9629 1297.01 80.6799C1297.22 80.507 1297.55 80.3078 1298.03 80.0825L1297.51 79.7838C1297.2 79.6056 1297.04 79.3671 1297.04 79.0684C1297.04 78.4186 1297.53 77.9521 1298.51 77.6691C1299.26 77.4543 1300.09 77.3468 1301.02 77.3468V76.0733H1295.98V75.13H1304.37V76.0733ZM1312.14 76.0733H1304.19V75.13H1312.14V76.0733ZM1311.48 78.8955C1311.48 79.2047 1311.3 79.5532 1310.93 79.941C1310.61 80.2712 1310.28 80.5175 1309.94 80.6799L1308.76 79.3435C1309.11 79.3121 1309.45 79.1811 1309.77 78.9505C1310.14 78.6884 1310.32 78.3897 1310.32 78.0543C1310.32 77.8761 1310.21 77.7242 1309.98 77.5984C1309.78 77.4831 1309.58 77.4254 1309.39 77.4254C1308.98 77.4254 1308.55 77.6193 1308.09 78.0072C1307.15 78.7933 1306.68 79.6632 1306.68 80.617V83.9502L1305.17 83.1641V77.3468H1306.7V77.9443C1306.92 77.7189 1307.39 77.4831 1308.1 77.2368C1308.44 77.1162 1308.8 77.056 1309.17 77.056C1309.93 77.056 1310.57 77.3468 1311.1 77.9285C1311.36 78.2115 1311.48 78.5338 1311.48 78.8955ZM1318.96 76.0733H1314.98V82.4015C1314.98 82.5797 1315.04 82.7527 1315.16 82.9204C1315.28 83.1038 1315.42 83.1955 1315.6 83.1955C1316.38 83.1955 1316.77 82.3884 1316.77 80.7743L1318.35 81.6783C1317.74 83.0147 1316.81 83.6803 1315.55 83.675C1314.82 83.6698 1314.24 83.3344 1313.84 82.6688C1313.66 82.3806 1313.57 82.0923 1313.57 81.8041V76.0733H1311.93V75.13H1313.57V72.4886L1314.98 73.4713V75.13H1318.96V76.0733ZM1321.52 74.3046C1321.49 74.3255 1321.43 74.336 1321.33 74.336C1321.25 74.336 1321.18 74.3255 1321.11 74.3046L1320.6 73.259C1320.39 72.9289 1320.11 72.7061 1319.75 72.5908C1319.39 72.4703 1319.17 72.3393 1319.09 72.1978C1319.01 71.9567 1318.86 71.5872 1318.63 71.0894V70.9086H1318.94C1319.34 71.0343 1319.67 71.1522 1319.92 71.2623C1320.33 71.4457 1320.61 71.658 1320.75 71.8991C1320.83 72.0301 1320.95 72.3655 1321.11 72.9053C1321.27 73.4136 1321.4 73.7674 1321.5 73.9665C1321.51 74.0609 1321.52 74.1735 1321.52 74.3046ZM1321.98 76.0733H1318.78V75.13H1321.98V76.0733ZM1321.08 83.8401L1319.76 83.109V77.0402H1321.08V83.8401ZM1330.85 76.0733H1321.83V75.13H1330.85V76.0733ZM1330.22 80.4205C1330.22 80.997 1330.04 81.542 1329.7 82.0556C1329.38 82.5325 1328.96 82.923 1328.43 83.2269C1327.91 83.5257 1327.42 83.675 1326.98 83.675C1326.54 83.675 1326 83.4313 1325.35 82.9439C1325.04 82.7081 1324.58 82.3019 1323.97 81.7255V88.3917L1322.71 87.7314V77.3311H1323.94V79.2492L1324.42 78.7461C1325.52 77.5879 1326.42 77.0088 1327.1 77.0088C1327.85 77.0088 1328.56 77.394 1329.24 78.1644C1329.89 78.9138 1330.22 79.6658 1330.22 80.4205ZM1329.44 79.5086C1329.44 79.1103 1329.23 78.7278 1328.82 78.3609C1328.61 78.1775 1328.35 78.0858 1328.04 78.0858C1327.42 78.0858 1326.65 78.4605 1325.74 79.2099C1324.79 79.9803 1324.32 80.6642 1324.32 81.2617C1324.32 81.6128 1324.65 81.922 1325.3 82.1893C1325.6 82.3098 1325.88 82.3701 1326.16 82.3701C1327.07 82.3701 1327.86 82.0189 1328.54 81.3167C1329.14 80.6878 1329.44 80.0851 1329.44 79.5086ZM1338.68 76.0733H1337.83V79.0527C1337.52 78.8693 1337.07 78.712 1336.49 78.581C1335.95 78.4552 1335.47 78.3923 1335.08 78.3923C1334.12 78.3923 1333.31 78.5627 1332.66 78.9033C1332.3 79.0972 1332.11 79.3514 1332.11 79.6658C1332.11 80.0851 1332.33 80.2947 1332.77 80.2947C1333.04 80.2947 1333.39 80.2161 1333.82 80.0589C1334.1 79.9593 1334.45 79.8336 1334.89 79.6816C1335.07 79.6187 1335.4 79.5872 1335.86 79.5872C1336.77 79.5872 1337.44 79.8676 1337.89 80.4284C1338.11 80.6957 1338.21 81.0101 1338.21 81.3717C1338.21 82.205 1337.69 82.8601 1336.64 83.337C1336.21 83.5361 1335.79 83.6488 1335.4 83.675C1335.78 84.0524 1336.13 84.241 1336.48 84.241C1336.59 84.241 1336.7 84.2253 1336.83 84.1939L1337.62 85.4909C1337.46 85.6324 1337.13 85.7032 1336.62 85.7032C1336.22 85.7032 1335.87 85.5643 1335.59 85.2866C1335.44 85.1346 1335.22 84.8175 1334.94 84.3354C1334.71 83.9213 1334.51 83.7117 1334.35 83.7065C1333.38 83.6803 1332.64 83.5047 1332.11 83.1798C1331.78 82.9754 1331.62 82.695 1331.62 82.3386C1331.62 81.8984 1331.88 81.6783 1332.4 81.6783C1332.6 81.6783 1333 81.8303 1333.61 82.1342C1334.23 82.433 1334.74 82.5823 1335.14 82.5823C1335.94 82.5823 1336.68 82.3937 1337.38 82.0163C1337.72 81.8329 1337.89 81.6075 1337.89 81.3403C1337.89 80.942 1337.58 80.7428 1336.95 80.7428C1336.75 80.7428 1336.13 80.8843 1335.07 81.1673C1334.44 81.335 1334.06 81.4189 1333.92 81.4189C1333.09 81.4189 1332.4 81.0258 1331.86 80.2397C1331.6 79.8624 1331.47 79.4562 1331.47 79.0212C1331.46 78.1356 1332.07 77.5381 1333.28 77.2289C1333.78 77.1031 1334.25 77.0402 1334.69 77.0402C1335.19 77.0402 1335.91 77.1634 1336.83 77.4097V76.0733H1330.57V75.13H1338.68V76.0733Z" fill="black" fill-opacity="0.61"/>
<path d="M4.12695 10.3539L25.0338 2L45.9407 10.3539L25.0338 18.7078L4.12695 10.3539Z" fill="black" stroke="black" stroke-width="3.97805" stroke-linejoin="round"/>
<path d="M45.9406 10.4633V19.6359" stroke="black" stroke-width="3.97805" stroke-linecap="round" stroke-linejoin="round"/>
<path d="M13.63 14.7548V27.1279C13.63 27.1279 18.4137 31.8352 25.0338 31.8352C31.6539 31.8352 36.4376 27.1279 36.4376 27.1279V14.7548" stroke="black" stroke-width="3.97805" stroke-linecap="round" stroke-linejoin="round"/>
<path d="M25.0049 63.5178C26.2779 65.4272 27.9828 66.9957 30.0059 68.0641L25.0049 73.0651L20.0039 68.0641C22.0271 66.9957 23.7547 65.4272 25.0049 63.5178ZM36.3708 52.6065C35.165 52.6065 34.0086 53.0855 33.156 53.9381C32.3034 54.7907 31.8244 55.9471 31.8244 57.1529C31.8244 58.3587 32.3034 59.515 33.156 60.3676C34.0086 61.2202 35.165 61.6992 36.3708 61.6992C37.5765 61.6992 38.7329 61.2202 39.5855 60.3676C40.4381 59.515 40.9171 58.3587 40.9171 57.1529C40.9171 55.9471 40.4381 54.7907 39.5855 53.9381C38.7329 53.0855 37.5765 52.6065 36.3708 52.6065ZM13.639 52.6065C12.4333 52.6065 11.2769 53.0855 10.4243 53.9381C9.57168 54.7907 9.0927 55.9471 9.0927 57.1529C9.0927 58.3587 9.57168 59.515 10.4243 60.3676C11.2769 61.2202 12.4333 61.6992 13.639 61.6992C14.8448 61.6992 16.0012 61.2202 16.8538 60.3676C17.7064 59.515 18.1854 58.3587 18.1854 57.1529C18.1854 55.9471 17.7064 54.7907 16.8538 53.9381C16.0012 53.0855 14.8448 52.6065 13.639 52.6065ZM36.3708 46.9236C38.7823 46.9236 41.0951 47.8816 42.8003 49.5868C44.5055 51.292 45.4635 53.6048 45.4635 56.0163C45.4635 58.4278 44.5055 60.7406 42.8003 62.4458C41.0951 64.151 38.7823 65.109 36.3708 65.109C33.9593 65.109 31.6465 64.151 29.9413 62.4458C28.2361 60.7406 27.2781 58.4278 27.2781 56.0163C27.2781 53.6048 28.2361 51.292 29.9413 49.5868C31.6465 47.8816 33.9593 46.9236 36.3708 46.9236ZM13.639 46.9236C16.0506 46.9236 18.3633 47.8816 20.0686 49.5868C21.7738 51.292 22.7317 53.6048 22.7317 56.0163C22.7317 58.4278 21.7738 60.7406 20.0686 62.4458C18.3633 64.151 16.0506 65.109 13.639 65.109C11.2275 65.109 8.91475 64.151 7.20954 62.4458C5.50433 60.7406 4.54635 58.4278 4.54635 56.0163C4.54635 53.6048 5.50433 51.292 7.20954 49.5868C8.91475 47.8816 11.2275 46.9236 13.639 46.9236ZM2.81874 29.4202C6.81952 37.8309 3.93259 44.1049 1.25025 50.3334C0.431903 52.1519 0 54.0386 0 56.0163C0 59.6336 1.43697 63.1027 3.99478 65.6606C6.5526 68.2184 10.0217 69.6553 13.639 69.6553C14.1164 69.6326 14.5938 69.6099 15.0711 69.5417L21.7997 76.2703L25.0049 79.43L28.2101 76.2703L34.9387 69.5417C35.4161 69.6099 35.8934 69.6326 36.3708 69.6553C39.9881 69.6553 43.4572 68.2184 46.015 65.6606C48.5729 63.1027 50.0098 59.6336 50.0098 56.0163C50.0098 54.0386 49.5779 52.1519 48.7596 50.3334C46.0772 44.1049 43.1903 37.8309 47.1911 29.4202C41.1899 34.1029 32.6428 37.8082 25.0049 37.8309C17.3671 37.8082 8.81992 34.1029 2.81874 29.4202Z" fill="black"/>
<defs>
<filter id="filter0_d_298_137" x="1293.61" y="26.2872" width="48.5811" height="46.5302" filterUnits="userSpaceOnUse" color-interpolation-filters="sRGB">
<feFlood flood-opacity="0" result="BackgroundImageFix"/>
<feColorMatrix in="SourceAlpha" type="matrix" values="0 0 0 0 0 0 0 0 0 0 0 0 0 0 0 0 0 0 127 0" result="hardAlpha"/>
<feOffset dx="8.27978" dy="6.62382"/>
<feGaussianBlur stdDeviation="2.70473"/>
<feComposite in2="hardAlpha" operator="out"/>
<feColorMatrix type="matrix" values="0 0 0 0 0 0 0 0 0 0 0 0 0 0 0 0 0 0 0.25 0"/>
<feBlend mode="normal" in2="BackgroundImageFix" result="effect1_dropShadow_298_137"/>
<feBlend mode="normal" in="SourceGraphic" in2="effect1_dropShadow_298_137" result="shape"/>
</filter>
<filter id="filter1_d_298_137" x="1254.62" y="5.6377" width="53.8648" height="66.117" filterUnits="userSpaceOnUse" color-interpolation-filters="sRGB">
<feFlood flood-opacity="0" result="BackgroundImageFix"/>
<feColorMatrix in="SourceAlpha" type="matrix" values="0 0 0 0 0 0 0 0 0 0 0 0 0 0 0 0 0 0 127 0" result="hardAlpha"/>
<feOffset dx="8.27978" dy="6.62382"/>
<feGaussianBlur stdDeviation="2.70473"/>
<feComposite in2="hardAlpha" operator="out"/>
<feColorMatrix type="matrix" values="0 0 0 0 0 0 0 0 0 0 0 0 0 0 0 0 0 0 0.25 0"/>
<feBlend mode="normal" in2="BackgroundImageFix" result="effect1_dropShadow_298_137"/>
<feBlend mode="normal" in="SourceGraphic" in2="effect1_dropShadow_298_137" result="shape"/>
</filter>
<filter id="filter2_d_298_137" x="1228.66" y="5" width="46.8501" height="66.8154" filterUnits="userSpaceOnUse" color-interpolation-filters="sRGB">
<feFlood flood-opacity="0" result="BackgroundImageFix"/>
<feColorMatrix in="SourceAlpha" type="matrix" values="0 0 0 0 0 0 0 0 0 0 0 0 0 0 0 0 0 0 127 0" result="hardAlpha"/>
<feOffset dx="8.27978" dy="6.62382"/>
<feGaussianBlur stdDeviation="2.70473"/>
<feComposite in2="hardAlpha" operator="out"/>
<feColorMatrix type="matrix" values="0 0 0 0 0 0 0 0 0 0 0 0 0 0 0 0 0 0 0.25 0"/>
<feBlend mode="normal" in2="BackgroundImageFix" result="effect1_dropShadow_298_137"/>
<feBlend mode="normal" in="SourceGraphic" in2="effect1_dropShadow_298_137" result="shape"/>
</filter>
<filter id="filter3_d_298_137" x="1200.72" y="5" width="46.8501" height="66.8154" filterUnits="userSpaceOnUse" color-interpolation-filters="sRGB">
<feFlood flood-opacity="0" result="BackgroundImageFix"/>
<feColorMatrix in="SourceAlpha" type="matrix" values="0 0 0 0 0 0 0 0 0 0 0 0 0 0 0 0 0 0 127 0" result="hardAlpha"/>
<feOffset dx="8.27978" dy="6.62382"/>
<feGaussianBlur stdDeviation="2.70473"/>
<feComposite in2="hardAlpha" operator="out"/>
<feColorMatrix type="matrix" values="0 0 0 0 0 0 0 0 0 0 0 0 0 0 0 0 0 0 0.25 0"/>
<feBlend mode="normal" in2="BackgroundImageFix" result="effect1_dropShadow_298_137"/>
<feBlend mode="normal" in="SourceGraphic" in2="effect1_dropShadow_298_137" result="shape"/>
</filter>
<filter id="filter4_d_298_137" x="1175.24" y="26.2872" width="44.117" height="45.2852" filterUnits="userSpaceOnUse" color-interpolation-filters="sRGB">
<feFlood flood-opacity="0" result="BackgroundImageFix"/>
<feColorMatrix in="SourceAlpha" type="matrix" values="0 0 0 0 0 0 0 0 0 0 0 0 0 0 0 0 0 0 127 0" result="hardAlpha"/>
<feOffset dx="8.27978" dy="6.62382"/>
<feGaussianBlur stdDeviation="2.70473"/>
<feComposite in2="hardAlpha" operator="out"/>
<feColorMatrix type="matrix" values="0 0 0 0 0 0 0 0 0 0 0 0 0 0 0 0 0 0 0.25 0"/>
<feBlend mode="normal" in2="BackgroundImageFix" result="effect1_dropShadow_298_137"/>
<feBlend mode="normal" in="SourceGraphic" in2="effect1_dropShadow_298_137" result="shape"/>
</filter>
<filter id="filter5_d_298_137" x="1136.13" y="5.6377" width="53.8648" height="66.117" filterUnits="userSpaceOnUse" color-interpolation-filters="sRGB">
<feFlood flood-opacity="0" result="BackgroundImageFix"/>
<feColorMatrix in="SourceAlpha" type="matrix" values="0 0 0 0 0 0 0 0 0 0 0 0 0 0 0 0 0 0 127 0" result="hardAlpha"/>
<feOffset dx="8.27978" dy="6.62382"/>
<feGaussianBlur stdDeviation="2.70473"/>
<feComposite in2="hardAlpha" operator="out"/>
<feColorMatrix type="matrix" values="0 0 0 0 0 0 0 0 0 0 0 0 0 0 0 0 0 0 0.25 0"/>
<feBlend mode="normal" in2="BackgroundImageFix" result="effect1_dropShadow_298_137"/>
<feBlend mode="normal" in="SourceGraphic" in2="effect1_dropShadow_298_137" result="shape"/>
</filter>
<filter id="filter6_d_298_137" x="1110.78" y="26.2872" width="46.3338" height="44.9815" filterUnits="userSpaceOnUse" color-interpolation-filters="sRGB">
<feFlood flood-opacity="0" result="BackgroundImageFix"/>
<feColorMatrix in="SourceAlpha" type="matrix" values="0 0 0 0 0 0 0 0 0 0 0 0 0 0 0 0 0 0 127 0" result="hardAlpha"/>
<feOffset dx="8.27978" dy="6.62382"/>
<feGaussianBlur stdDeviation="2.70473"/>
<feComposite in2="hardAlpha" operator="out"/>
<feColorMatrix type="matrix" values="0 0 0 0 0 0 0 0 0 0 0 0 0 0 0 0 0 0 0.25 0"/>
<feBlend mode="normal" in2="BackgroundImageFix" result="effect1_dropShadow_298_137"/>
<feBlend mode="normal" in="SourceGraphic" in2="effect1_dropShadow_298_137" result="shape"/>
</filter>
<filter id="filter7_d_298_137" x="1011.39" y="21.3862" width="59.1519" height="84.435" filterUnits="userSpaceOnUse" color-interpolation-filters="sRGB">
<feFlood flood-opacity="0" result="BackgroundImageFix"/>
<feColorMatrix in="SourceAlpha" type="matrix" values="0 0 0 0 0 0 0 0 0 0 0 0 0 0 0 0 0 0 127 0" result="hardAlpha"/>
<feOffset dx="9.79437" dy="7.8355"/>
<feGaussianBlur stdDeviation="3.19949"/>
<feComposite in2="hardAlpha" operator="out"/>
<feColorMatrix type="matrix" values="0 0 0 0 0 0 0 0 0 0 0 0 0 0 0 0 0 0 0.25 0"/>
<feBlend mode="normal" in2="BackgroundImageFix" result="effect1_dropShadow_298_137"/>
<feBlend mode="normal" in="SourceGraphic" in2="effect1_dropShadow_298_137" result="shape"/>
</filter>
<filter id="filter8_d_298_137" x="1079.07" y="26.2872" width="46.3338" height="46.2873" filterUnits="userSpaceOnUse" color-interpolation-filters="sRGB">
<feFlood flood-opacity="0" result="BackgroundImageFix"/>
<feColorMatrix in="SourceAlpha" type="matrix" values="0 0 0 0 0 0 0 0 0 0 0 0 0 0 0 0 0 0 127 0" result="hardAlpha"/>
<feOffset dx="8.27978" dy="6.62382"/>
<feGaussianBlur stdDeviation="2.70473"/>
<feComposite in2="hardAlpha" operator="out"/>
<feColorMatrix type="matrix" values="0 0 0 0 0 0 0 0 0 0 0 0 0 0 0 0 0 0 0.25 0"/>
<feBlend mode="normal" in2="BackgroundImageFix" result="effect1_dropShadow_298_137"/>
<feBlend mode="normal" in="SourceGraphic" in2="effect1_dropShadow_298_137" result="shape"/>
</filter>
<filter id="filter9_d_298_137" x="1049.04" y="26.2872" width="44.117" height="45.2852" filterUnits="userSpaceOnUse" color-interpolation-filters="sRGB">
<feFlood flood-opacity="0" result="BackgroundImageFix"/>
<feColorMatrix in="SourceAlpha" type="matrix" values="0 0 0 0 0 0 0 0 0 0 0 0 0 0 0 0 0 0 127 0" result="hardAlpha"/>
<feOffset dx="8.27978" dy="6.62382"/>
<feGaussianBlur stdDeviation="2.70473"/>
<feComposite in2="hardAlpha" operator="out"/>
<feColorMatrix type="matrix" values="0 0 0 0 0 0 0 0 0 0 0 0 0 0 0 0 0 0 0.25 0"/>
<feBlend mode="normal" in2="BackgroundImageFix" result="effect1_dropShadow_298_137"/>
<feBlend mode="normal" in="SourceGraphic" in2="effect1_dropShadow_298_137" result="shape"/>
</filter>
<filter id="filter10_d_298_137" x="978" y="26.0822" width="53.8648" height="63.2017" filterUnits="userSpaceOnUse" color-interpolation-filters="sRGB">
<feFlood flood-opacity="0" result="BackgroundImageFix"/>
<feColorMatrix in="SourceAlpha" type="matrix" values="0 0 0 0 0 0 0 0 0 0 0 0 0 0 0 0 0 0 127 0" result="hardAlpha"/>
<feOffset dx="8.27978" dy="6.62382"/>
<feGaussianBlur stdDeviation="2.70473"/>
<feComposite in2="hardAlpha" operator="out"/>
<feColorMatrix type="matrix" values="0 0 0 0 0 0 0 0 0 0 0 0 0 0 0 0 0 0 0.25 0"/>
<feBlend mode="normal" in2="BackgroundImageFix" result="effect1_dropShadow_298_137"/>
<feBlend mode="normal" in="SourceGraphic" in2="effect1_dropShadow_298_137" result="shape"/>
</filter>
</defs>
</svg>
