<svg width="39" height="61" viewBox="0 0 39 61" fill="none" xmlns="http://www.w3.org/2000/svg">
<path d="M3.14453 8.36551L19.0751 2L35.0057 8.36551L19.0751 14.731L3.14453 8.36551Z" fill="black" stroke="black" stroke-width="3.03119" stroke-linejoin="round"/>
<path d="M35.0056 8.44885V15.4382" stroke="black" stroke-width="3.03119" stroke-linecap="round" stroke-linejoin="round"/>
<path d="M10.386 11.7189V21.147C10.386 21.147 14.0311 24.7338 19.0754 24.7338C24.1198 24.7338 27.7649 21.147 27.7649 21.147V11.7189" stroke="black" stroke-width="3.03119" stroke-linecap="round" stroke-linejoin="round"/>
<path d="M19.0532 48.8752C20.0232 50.3302 21.3223 51.5254 22.8639 52.3394L19.0532 56.1501L15.2426 52.3394C16.7842 51.5254 18.1006 50.3302 19.0532 48.8752ZM27.7138 40.5611C26.795 40.5611 25.9139 40.9261 25.2642 41.5757C24.6145 42.2254 24.2496 43.1065 24.2496 44.0253C24.2496 44.9441 24.6145 45.8252 25.2642 46.4749C25.9139 47.1246 26.795 47.4895 27.7138 47.4895C28.6326 47.4895 29.5137 47.1246 30.1634 46.4749C30.813 45.8252 31.178 44.9441 31.178 44.0253C31.178 43.1065 30.813 42.2254 30.1634 41.5757C29.5137 40.9261 28.6326 40.5611 27.7138 40.5611ZM10.3927 40.5611C9.4739 40.5611 8.59276 40.9261 7.94309 41.5757C7.29343 42.2254 6.92845 43.1065 6.92845 44.0253C6.92845 44.9441 7.29343 45.8252 7.94309 46.4749C8.59276 47.1246 9.4739 47.4895 10.3927 47.4895C11.3114 47.4895 12.1926 47.1246 12.8422 46.4749C13.4919 45.8252 13.8569 44.9441 13.8569 44.0253C13.8569 43.1065 13.4919 42.2254 12.8422 41.5757C12.1926 40.9261 11.3114 40.5611 10.3927 40.5611ZM27.7138 36.2308C29.5513 36.2308 31.3136 36.9608 32.6129 38.2601C33.9123 39.5594 34.6422 41.3217 34.6422 43.1593C34.6422 44.9968 33.9123 46.7591 32.6129 48.0584C31.3136 49.3577 29.5513 50.0877 27.7138 50.0877C25.8762 50.0877 24.114 49.3577 22.8146 48.0584C21.5153 46.7591 20.7853 44.9968 20.7853 43.1593C20.7853 41.3217 21.5153 39.5594 22.8146 38.2601C24.114 36.9608 25.8762 36.2308 27.7138 36.2308ZM10.3927 36.2308C12.2302 36.2308 13.9925 36.9608 15.2918 38.2601C16.5912 39.5594 17.3211 41.3217 17.3211 43.1593C17.3211 44.9968 16.5912 46.7591 15.2918 48.0584C13.9925 49.3577 12.2302 50.0877 10.3927 50.0877C8.55513 50.0877 6.79285 49.3577 5.49352 48.0584C4.19418 46.7591 3.46422 44.9968 3.46422 43.1593C3.46422 41.3217 4.19418 39.5594 5.49352 38.2601C6.79285 36.9608 8.55513 36.2308 10.3927 36.2308ZM2.14782 22.8936C5.19633 29.3024 2.99655 34.083 0.952661 38.829C0.329101 40.2147 0 41.6523 0 43.1593C0 45.9156 1.09494 48.559 3.04394 50.508C4.99295 52.457 7.63636 53.5519 10.3927 53.5519C10.7564 53.5346 11.1202 53.5173 11.4839 53.4653L16.6109 58.5924L19.0532 61L21.4955 58.5924L26.6226 53.4653C26.9863 53.5173 27.35 53.5346 27.7138 53.5519C30.4701 53.5519 33.1135 52.457 35.0625 50.508C37.0115 48.559 38.1065 45.9156 38.1065 43.1593C38.1065 41.6523 37.7774 40.2147 37.1538 38.829C35.1099 34.083 32.9101 29.3024 35.9586 22.8936C31.3859 26.4617 24.8731 29.285 19.0532 29.3024C13.2333 29.285 6.72059 26.4617 2.14782 22.8936Z" fill="black"/>
</svg>
