<svg width="30" height="30" viewBox="0 0 30 30" fill="none" xmlns="http://www.w3.org/2000/svg">
<path d="M13.5268 23.4356L12.0837 24.8787L3.87839 23.2088L8.81601 28.1464L7.37286 29.5896L0.167453 22.3842L1.6106 20.941L9.82621 22.6213L4.87829 17.6733L6.32143 16.2302L13.5268 23.4356ZM17.2826 13.7217C17.4888 13.9278 17.6606 14.1271 17.798 14.3196L13.6232 18.4944C14.0699 18.8723 14.5372 19.051 15.0251 19.0304C15.5131 19.0098 15.9426 18.8139 16.3137 18.4428C16.8497 17.9068 17.0009 17.2952 16.7672 16.608L18.3238 15.0514C18.7086 15.7661 18.846 16.5358 18.7361 17.3605C18.6193 18.1782 18.2207 18.9273 17.5403 19.6076C16.9906 20.1574 16.3755 20.5319 15.6952 20.7312C15.0148 20.9168 14.3276 20.9099 13.6335 20.7106C12.9463 20.5045 12.3107 20.1093 11.7265 19.5252C11.1355 18.9342 10.737 18.2951 10.5308 17.6079C10.3246 16.9206 10.3178 16.2403 10.5102 15.5668C10.7026 14.8934 11.0806 14.2749 11.6441 13.7114C12.187 13.1685 12.7883 12.8008 13.448 12.6084C14.1146 12.4091 14.7812 12.4091 15.4478 12.6084C16.1144 12.7939 16.726 13.165 17.2826 13.7217ZM15.3756 14.804C14.9977 14.4398 14.5682 14.2783 14.0871 14.3196C13.5992 14.3539 13.1662 14.5601 12.7883 14.938C12.4309 15.2954 12.2385 15.7077 12.211 16.175C12.1835 16.6286 12.3347 17.0753 12.6646 17.5151L15.3756 14.804ZM23.521 2.01998L27.5618 9.40062L26.0053 10.9572L20.9749 8.00902L23.923 13.0394L22.3562 14.6062L14.9652 10.5758L16.429 9.112L21.7892 12.4518L18.5319 7.00913L20.0575 5.48352L25.4693 8.75121L22.1397 3.40127L23.521 2.01998Z" fill="#FF0000"/>
</svg>
