<svg width="23" height="23" viewBox="0 0 23 23" fill="none" xmlns="http://www.w3.org/2000/svg">
<path d="M20.1252 20.1248L15.9632 15.9628M15.9632 15.9628C16.6751 15.2509 17.2398 14.4057 17.6251 13.4755C18.0104 12.5453 18.2087 11.5483 18.2087 10.5415C18.2087 9.53467 18.0104 8.5377 17.6251 7.60752C17.2398 6.67733 16.6751 5.83214 15.9632 5.12021C15.2512 4.40827 14.406 3.84354 13.4758 3.45824C12.5457 3.07294 11.5487 2.87463 10.5419 2.87463C9.53504 2.87463 8.53807 3.07294 7.60788 3.45824C6.6777 3.84354 5.83251 4.40827 5.12057 5.12021C3.68276 6.55802 2.875 8.50812 2.875 10.5415C2.875 12.5749 3.68276 14.525 5.12057 15.9628C6.55839 17.4006 8.50848 18.2084 10.5419 18.2084C12.5752 18.2084 14.5253 17.4006 15.9632 15.9628Z" stroke="#636363" stroke-width="2.26761" stroke-linecap="round" stroke-linejoin="round"/>
</svg>
